<?xml version="1.0" encoding="utf-8"?>
<!-- Generator: Adobe Illustrator 22.1.0, SVG Export Plug-In . SVG Version: 6.00 Build 0)  -->
<svg version="1.1" id="Layer_1" xmlns="http://www.w3.org/2000/svg" xmlns:xlink="http://www.w3.org/1999/xlink" x="0px" y="0px"
	 viewBox="0 0 720 720" style="enable-background:new 0 0 720 720;" xml:space="preserve">
<style type="text/css">
	.st0{opacity:0.28;fill:#848484;enable-background:new    ;}
	.st1{fill:#F09F54;}
	.st2{opacity:0.29;fill:#F09F54;enable-background:new    ;}
	.st3{fill:none;stroke:#444E59;stroke-width:4;stroke-linecap:round;stroke-linejoin:round;stroke-miterlimit:10;}
	.st4{fill:none;stroke:#444E59;stroke-width:3;stroke-linecap:round;stroke-linejoin:round;stroke-miterlimit:10;}
	.st5{fill:#848484;}
	.st6{opacity:0.25;fill:#848484;enable-background:new    ;}
	.st7{fill:#FFFFFF;}
	.st8{fill:#71A850;}
	.st9{opacity:0.4;fill:#71A850;enable-background:new    ;}
	.st10{fill:#444E59;}
	.st11{opacity:0.48;fill:#848484;enable-background:new    ;}
	.st12{fill:#E9FBFF;}
	.st13{fill:#C9C9C9;}
	.st14{fill:none;stroke:#444E59;stroke-width:5;stroke-linecap:round;stroke-linejoin:round;stroke-miterlimit:10;}
	.st15{opacity:0.29;fill:#848484;enable-background:new    ;}
	.st16{opacity:0.3;}
	.st17{fill:none;stroke:#444E59;stroke-width:2;stroke-linecap:round;stroke-linejoin:round;stroke-dasharray:4.0794,4.0794;}
	.st18{opacity:0.52;fill:#5F8C42;enable-background:new    ;}
	.st19{opacity:0.52;fill:#D38444;enable-background:new    ;}
	.st20{fill:#2FA9ED;}
	.st21{opacity:0.52;fill:#288FBC;enable-background:new    ;}
	.st22{fill:#E7534E;}
	.st23{opacity:0.52;fill:#BF4040;enable-background:new    ;}
	.st24{fill:none;stroke:#FFFFFF;stroke-width:4;stroke-linecap:round;stroke-linejoin:round;stroke-miterlimit:10;}
	.st25{opacity:0.29;}
	.st26{fill:#BCBCBC;}
	.st27{fill:none;stroke:#64BDFF;stroke-width:4;stroke-linecap:round;stroke-linejoin:round;stroke-miterlimit:10;}
	.st28{fill:none;stroke:#FF5F5F;stroke-width:4;stroke-linecap:round;stroke-linejoin:round;stroke-miterlimit:10;}
	.st29{fill:none;stroke:#FFBE78;stroke-width:4;stroke-linecap:round;stroke-linejoin:round;stroke-miterlimit:10;}
	.st30{fill:none;stroke:#C383F2;stroke-width:4;stroke-linecap:round;stroke-linejoin:round;stroke-miterlimit:10;}
	.st31{fill:none;stroke:#6DBF7B;stroke-width:4;stroke-linecap:round;stroke-linejoin:round;stroke-miterlimit:10;}
	.st32{fill:#9483C4;}
	
		.st33{opacity:0.56;fill:none;stroke:#FFFFFF;stroke-width:3;stroke-linecap:round;stroke-linejoin:round;stroke-miterlimit:10;enable-background:new    ;}
	.st34{opacity:0.56;}
	.st35{fill:none;stroke:#FFFFFF;stroke-width:3;stroke-linecap:round;stroke-linejoin:round;stroke-miterlimit:10;}
</style>
<g id="XMLID_238_">
	<path id="XMLID_1313_" class="st0" d="M699.7,482.8H24.1c-5,0-9-4-9-9l0,0c0-5,4-9,9-9h675.7c5,0,9,4,9,9l0,0
		C708.7,478.8,704.7,482.8,699.7,482.8z"/>
	<g id="XMLID_45_">
		<path id="XMLID_41_" class="st1" d="M670.4,390.4c0-37.2-28.2-67.8-64.7-71.3v-8.4h-21.9v160.7h21.9v-9.7
			C642.1,458.2,670.4,427.6,670.4,390.4z M605.6,438.6v-96.3c23.4,3.4,41.8,23.7,41.8,48.2C647.4,414.9,629,435.2,605.6,438.6z"/>
		<path id="XMLID_222_" class="st2" d="M605.6,319.1v-8.4h-21.9v160.7h21.9v-9.7c36.5-3.5,64.7-34,64.7-71.3
			C670.4,353.2,642.1,322.6,605.6,319.1z M605.6,454.3v8.3h-20.5V318h20.5v8.5c32.1,3.1,58,30.5,58,63.9
			C663.7,423.8,637.8,451.2,605.6,454.3z"/>
		<path id="XMLID_48_" class="st3" d="M670.4,390.4c0-37.2-28.2-67.8-64.7-71.3v-8.4h-21.9v160.7h21.9v-9.7
			C642.1,458.2,670.4,427.6,670.4,390.4z M605.6,438.6v-96.3c23.4,3.4,41.8,23.7,41.8,48.2C647.4,414.9,629,435.2,605.6,438.6z"/>
		<g id="XMLID_49_">
			<g id="XMLID_67_">
				<line id="XMLID_68_" class="st4" x1="592.5" y1="455.3" x2="583.7" y2="455.3"/>
			</g>
			<g id="XMLID_65_">
				<line id="XMLID_66_" class="st4" x1="592.5" y1="439.3" x2="583.7" y2="439.3"/>
			</g>
			<g id="XMLID_63_">
				<line id="XMLID_64_" class="st4" x1="592.5" y1="423.2" x2="583.7" y2="423.2"/>
			</g>
			<g id="XMLID_61_">
				<line id="XMLID_62_" class="st4" x1="592.5" y1="407.1" x2="583.7" y2="407.1"/>
			</g>
			<g id="XMLID_59_">
				<line id="XMLID_60_" class="st4" x1="592.5" y1="391.1" x2="583.7" y2="391.1"/>
			</g>
			<g id="XMLID_56_">
				<line id="XMLID_57_" class="st4" x1="592.5" y1="375" x2="583.7" y2="375"/>
			</g>
			<g id="XMLID_54_">
				<line id="XMLID_55_" class="st4" x1="592.5" y1="358.9" x2="583.7" y2="358.9"/>
			</g>
			<g id="XMLID_52_">
				<line id="XMLID_53_" class="st4" x1="592.5" y1="342.8" x2="583.7" y2="342.8"/>
			</g>
			<g id="XMLID_50_">
				<line id="XMLID_51_" class="st4" x1="592.5" y1="326.8" x2="583.7" y2="326.8"/>
			</g>
		</g>
	</g>
	<g id="XMLID_212_">
		<rect id="XMLID_207_" x="535.2" y="229.4" class="st1" width="33.1" height="241.6"/>
		<rect id="XMLID_208_" x="535.2" y="229.4" class="st1" width="33.1" height="241.6"/>
		<rect id="XMLID_209_" x="553.9" y="229.4" class="st2" width="14.4" height="241.6"/>
		<rect id="XMLID_121_" x="535.2" y="229.4" class="st3" width="33.1" height="241.6"/>
		<g id="XMLID_203_">
			<g id="XMLID_266_">
				<line id="XMLID_269_" class="st4" x1="546.7" y1="446.6" x2="535.2" y2="446.6"/>
				<line id="XMLID_268_" class="st4" x1="542.3" y1="458.1" x2="535.2" y2="458.1"/>
			</g>
			<g id="XMLID_262_">
				<line id="XMLID_265_" class="st4" x1="546.7" y1="423.6" x2="535.2" y2="423.6"/>
				<line id="XMLID_264_" class="st4" x1="542.3" y1="435.1" x2="535.2" y2="435.1"/>
			</g>
			<g id="XMLID_258_">
				<line id="XMLID_261_" class="st4" x1="546.7" y1="400.6" x2="535.2" y2="400.6"/>
				<line id="XMLID_260_" class="st4" x1="542.3" y1="412.1" x2="535.2" y2="412.1"/>
			</g>
			<g id="XMLID_254_">
				<line id="XMLID_257_" class="st4" x1="546.7" y1="377.5" x2="535.2" y2="377.5"/>
				<line id="XMLID_256_" class="st4" x1="542.3" y1="389" x2="535.2" y2="389"/>
			</g>
			<g id="XMLID_249_">
				<line id="XMLID_253_" class="st4" x1="546.7" y1="354.5" x2="535.2" y2="354.5"/>
				<line id="XMLID_251_" class="st4" x1="542.3" y1="366" x2="535.2" y2="366"/>
			</g>
			<g id="XMLID_245_">
				<line id="XMLID_248_" class="st4" x1="546.7" y1="331.5" x2="535.2" y2="331.5"/>
				<line id="XMLID_247_" class="st4" x1="542.3" y1="343" x2="535.2" y2="343"/>
			</g>
			<g id="XMLID_223_">
				<line id="XMLID_244_" class="st4" x1="546.7" y1="308.5" x2="535.2" y2="308.5"/>
				<line id="XMLID_243_" class="st4" x1="542.3" y1="320" x2="535.2" y2="320"/>
			</g>
			<g id="XMLID_215_">
				<line id="XMLID_219_" class="st4" x1="546.7" y1="285.5" x2="535.2" y2="285.5"/>
				<line id="XMLID_218_" class="st4" x1="542.3" y1="297" x2="535.2" y2="297"/>
			</g>
			<g id="XMLID_118_">
				<line id="XMLID_210_" class="st4" x1="546.7" y1="262.5" x2="535.2" y2="262.5"/>
				<line id="XMLID_141_" class="st4" x1="542.3" y1="274" x2="535.2" y2="274"/>
			</g>
			<g id="XMLID_36_">
				<line id="XMLID_113_" class="st4" x1="546.7" y1="239.5" x2="535.2" y2="239.5"/>
				<line id="XMLID_112_" class="st4" x1="542.3" y1="251" x2="535.2" y2="251"/>
			</g>
		</g>
	</g>
	<g id="XMLID_1_">
		<rect id="XMLID_93_" x="474" y="287.8" class="st5" width="12.9" height="34.1"/>
		<rect id="XMLID_237_" x="474" y="287.8" class="st6" width="4.8" height="34.1"/>
		<rect id="XMLID_40_" x="474" y="287.8" class="st3" width="12.9" height="34.1"/>
		<rect id="XMLID_95_" x="477.5" y="322" class="st7" width="5.9" height="16.5"/>
		<rect id="XMLID_42_" x="477.5" y="322" class="st3" width="5.9" height="16.5"/>
		<g id="XMLID_16_">
			<polygon id="XMLID_98_" class="st7" points="470.5,353.2 440.5,470.9 486.1,354.8 			"/>
			<polygon id="XMLID_37_" class="st3" points="470.5,353.2 440.5,470.9 486.1,354.8 			"/>
			<polygon id="XMLID_97_" class="st7" points="490.5,353.2 520.5,470.9 475,354.8 			"/>
			<polygon id="XMLID_38_" class="st3" points="490.5,353.2 520.5,470.9 475,354.8 			"/>
		</g>
		<circle id="XMLID_91_" class="st8" cx="480.5" cy="356.3" r="20"/>
		<path id="XMLID_241_" class="st9" d="M466.1,356.3c0-10.1,7.5-18.4,17.2-19.8c-0.9-0.1-1.8-0.2-2.8-0.2c-11,0-20,9-20,20
			s9,20,20,20c0.9,0,1.9-0.1,2.8-0.2C473.6,374.7,466.1,366.4,466.1,356.3z"/>
		<circle id="XMLID_39_" class="st3" cx="480.5" cy="356.3" r="20"/>
		<circle id="XMLID_94_" class="st10" cx="480.5" cy="356.3" r="6.8"/>
		<circle id="XMLID_92_" class="st3" cx="480.5" cy="356.3" r="6.8"/>
	</g>
	<path id="XMLID_75_" class="st5" d="M408.4,470.7h-132c-7.7,0-14-6.3-14-14v-272c0-7.7,6.3-14,14-14h132c7.7,0,14,6.3,14,14v272
		C422.4,464.4,416,470.7,408.4,470.7z"/>
	<path id="XMLID_116_" class="st0" d="M408.4,170.7h-8.4c7.7,0,14,6.3,14,14v272c0,7.7-6.3,14-14,14h8.5c7.7,0,14-6.3,14-14v-272
		C422.4,176.9,416,170.7,408.4,170.7z"/>
	<path id="XMLID_81_" class="st11" d="M270.6,456.7v-272c0-7.7,6.3-14,14-14h-8.3c-7.7,0-14,6.3-14,14v272c0,7.7,6.3,14,14,14h8.3
		C276.9,470.7,270.6,464.4,270.6,456.7z"/>
	<path id="XMLID_3_" class="st3" d="M408.4,470.7h-132c-7.7,0-14-6.3-14-14v-272c0-7.7,6.3-14,14-14h132c7.7,0,14,6.3,14,14v272
		C422.4,464.4,416,470.7,408.4,470.7z"/>
	<rect id="XMLID_77_" x="262.4" y="208.2" class="st12" width="160" height="224"/>
	<path id="XMLID_5_" class="st13" d="M421.5,280.4H409c-6.8,0-12.3-5.5-12.3-12.3v-30.5c0-6.8,5.5-12.3,12.3-12.3h12.5V280.4z"/>
	<path id="XMLID_2_" class="st13" d="M271.5,404h-9.2v-97.3h9.2c6.9,0,12.5,5.6,12.5,12.5v72.3C283.9,398.4,278.4,404,271.5,404z"/>
	<rect id="XMLID_6_" x="262.4" y="208.2" class="st3" width="160" height="224"/>
	<g id="XMLID_4_">
		<line id="XMLID_9_" class="st14" x1="364.3" y1="190.7" x2="371.3" y2="190.7"/>
		<line id="XMLID_7_" class="st14" x1="313.3" y1="190.7" x2="353.3" y2="190.7"/>
	</g>
	<g id="XMLID_228_">
		<circle id="XMLID_8_" class="st15" cx="342.3" cy="449.1" r="11"/>
		<circle id="XMLID_78_" class="st10" cx="342.3" cy="449.1" r="8.4"/>
	</g>
	<g id="XMLID_14_" class="st16">
		<g id="XMLID_32_">
			<g id="XMLID_58_">
				<path class="st17" d="M305.8,405.4h-16c-4.4,0-8-3.6-8-8v-16c0-4.4,3.6-8,8-8h16c4.4,0,8,3.6,8,8v16
					C313.8,401.8,310.2,405.4,305.8,405.4z"/>
			</g>
			<g id="XMLID_35_">
				<path class="st17" d="M394.4,405.4h-16c-4.4,0-8-3.6-8-8v-16c0-4.4,3.6-8,8-8h16c4.4,0,8,3.6,8,8v16
					C402.4,401.8,398.7,405.4,394.4,405.4z"/>
			</g>
			<g id="XMLID_34_">
				<path class="st17" d="M350.3,405.4h-16c-4.4,0-8-3.6-8-8v-16c0-4.4,3.6-8,8-8h16c4.4,0,8,3.6,8,8v16
					C358.3,401.8,354.7,405.4,350.3,405.4z"/>
			</g>
		</g>
		<g id="XMLID_27_">
			<g id="XMLID_31_">
				<path class="st17" d="M305.8,357.4h-16c-4.4,0-8-3.6-8-8v-16c0-4.4,3.6-8,8-8h16c4.4,0,8,3.6,8,8v16
					C313.8,353.8,310.2,357.4,305.8,357.4z"/>
			</g>
			<g id="XMLID_30_">
				<path class="st17" d="M394.4,357.4h-16c-4.4,0-8-3.6-8-8v-16c0-4.4,3.6-8,8-8h16c4.4,0,8,3.6,8,8v16
					C402.4,353.8,398.7,357.4,394.4,357.4z"/>
			</g>
			<g id="XMLID_29_">
				<path class="st17" d="M350.3,357.4h-16c-4.4,0-8-3.6-8-8v-16c0-4.4,3.6-8,8-8h16c4.4,0,8,3.6,8,8v16
					C358.3,353.8,354.7,357.4,350.3,357.4z"/>
			</g>
		</g>
		<g id="XMLID_22_">
			<g id="XMLID_26_">
				<path class="st17" d="M305.8,309.4h-16c-4.4,0-8-3.6-8-8v-16c0-4.4,3.6-8,8-8h16c4.4,0,8,3.6,8,8v16
					C313.8,305.8,310.2,309.4,305.8,309.4z"/>
			</g>
			<g id="XMLID_25_">
				<path class="st17" d="M394.4,309.4h-16c-4.4,0-8-3.6-8-8v-16c0-4.4,3.6-8,8-8h16c4.4,0,8,3.6,8,8v16
					C402.4,305.8,398.7,309.4,394.4,309.4z"/>
			</g>
			<g id="XMLID_24_">
				<path class="st17" d="M350.3,309.4h-16c-4.4,0-8-3.6-8-8v-16c0-4.4,3.6-8,8-8h16c4.4,0,8,3.6,8,8v16
					C358.3,305.8,354.7,309.4,350.3,309.4z"/>
			</g>
		</g>
		<g id="XMLID_17_">
			<g id="XMLID_21_">
				<path class="st17" d="M305.8,261.4h-16c-4.4,0-8-3.6-8-8v-16c0-4.4,3.6-8,8-8h16c4.4,0,8,3.6,8,8v16
					C313.8,257.8,310.2,261.4,305.8,261.4z"/>
			</g>
			<g id="XMLID_20_">
				<path class="st17" d="M394.4,261.4h-16c-4.4,0-8-3.6-8-8v-16c0-4.4,3.6-8,8-8h16c4.4,0,8,3.6,8,8v16
					C402.4,257.8,398.7,261.4,394.4,261.4z"/>
			</g>
			<g id="XMLID_19_">
				<path class="st17" d="M350.3,261.4h-16c-4.4,0-8-3.6-8-8v-16c0-4.4,3.6-8,8-8h16c4.4,0,8,3.6,8,8v16
					C358.3,257.8,354.7,261.4,350.3,261.4z"/>
			</g>
		</g>
	</g>
	<path id="XMLID_73_" class="st8" d="M305.8,405.4h-16c-4.4,0-8-3.6-8-8v-16c0-4.4,3.6-8,8-8h16c4.4,0,8,3.6,8,8v16
		C313.8,401.8,310.2,405.4,305.8,405.4z"/>
	<path id="XMLID_80_" class="st18" d="M305.8,373.4h-16c-3.2,0-6,1.9-7.2,4.6l31.2,5.6v-2.2C313.8,377,310.2,373.4,305.8,373.4z"/>
	<path id="XMLID_76_" class="st3" d="M305.8,405.4h-16c-4.4,0-8-3.6-8-8v-16c0-4.4,3.6-8,8-8h16c4.4,0,8,3.6,8,8v16
		C313.8,401.8,310.2,405.4,305.8,405.4z"/>
	<path id="XMLID_72_" class="st1" d="M350.3,405.4h-16c-4.4,0-8-3.6-8-8v-16c0-4.4,3.6-8,8-8h16c4.4,0,8,3.6,8,8v16
		C358.3,401.8,354.7,405.4,350.3,405.4z"/>
	<path id="XMLID_79_" class="st19" d="M350.3,373.4h-16c-3.2,0-6,1.9-7.2,4.6l31.2,5.6v-2.2C358.3,377,354.7,373.4,350.3,373.4z"/>
	<path id="XMLID_74_" class="st3" d="M350.3,405.4h-16c-4.4,0-8-3.6-8-8v-16c0-4.4,3.6-8,8-8h16c4.4,0,8,3.6,8,8v16
		C358.3,401.8,354.7,405.4,350.3,405.4z"/>
	<g id="XMLID_33_">
		<path id="XMLID_70_" class="st20" d="M394.4,357.4h-16c-4.4,0-8-3.6-8-8v-16c0-4.4,3.6-8,8-8h16c4.4,0,8,3.6,8,8v16
			C402.4,353.8,398.7,357.4,394.4,357.4z"/>
	</g>
	<path id="XMLID_119_" class="st21" d="M394.4,325.4h-16c-3.2,0-6,1.9-7.2,4.6l31.2,5.6v-2.2C402.4,329,398.7,325.4,394.4,325.4z"/>
	<g id="XMLID_69_">
		<path id="XMLID_71_" class="st3" d="M394.4,357.4h-16c-4.4,0-8-3.6-8-8v-16c0-4.4,3.6-8,8-8h16c4.4,0,8,3.6,8,8v16
			C402.4,353.8,398.7,357.4,394.4,357.4z"/>
	</g>
	<g id="XMLID_13_">
		<g>
			<path id="XMLID_90_" class="st22" d="M350.3,309.4h-16c-4.4,0-8-3.6-8-8v-16c0-4.4,3.6-8,8-8h16c4.4,0,8,3.6,8,8v16
				C358.3,305.8,354.7,309.4,350.3,309.4z"/>
		</g>
	</g>
	<path id="XMLID_124_" class="st23" d="M350.3,277.4h-16c-3.2,0-6,1.9-7.2,4.6l31.2,5.6v-2.2C358.3,281,354.7,277.4,350.3,277.4z"/>
	<g id="XMLID_18_">
		<path id="XMLID_23_" class="st3" d="M350.3,309.4h-16c-4.4,0-8-3.6-8-8v-16c0-4.4,3.6-8,8-8h16c4.4,0,8,3.6,8,8v16
			C358.3,305.8,354.7,309.4,350.3,309.4z"/>
	</g>
	<path id="XMLID_10_" class="st7" d="M383.7,334.4l9.2,5.3c1.3,0.8,1.3,2.7,0,3.4l-9.2,5.3c-1.3,0.8-3-0.2-3-1.7v-10.6
		C380.7,334.6,382.4,333.6,383.7,334.4z"/>
	<path id="XMLID_15_" class="st7" d="M346.5,383.2h-8.4c-1.8,0-3.2,1.5-3.2,3.2v6.2c0,1.8,1.5,3.2,3.2,3.2h0.3l-0.7,2.8
		c-0.1,0.2,0.2,0.4,0.4,0.2l4.3-3h4.3c1.8,0,3.2-1.5,3.2-3.2v-6.2C349.8,384.6,348.3,383.2,346.5,383.2z"/>
	<path id="XMLID_11_" class="st24" d="M291.6,389.4l3.7,3.7c0.5,0.5,1.3,0.5,1.8,0l8.3-8.3"/>
	<circle id="XMLID_12_" class="st24" cx="342.3" cy="293.4" r="7.5"/>
	<g id="XMLID_131_">
		<path id="XMLID_115_" class="st7" d="M281.9,254.4l-0.2-15l-10,0.1c-0.6-1.9-1.3-3.6-2.3-5.3l7-7.2l-10.7-10.5l-7,7.2
			c-1.7-0.9-3.5-1.6-5.4-2.1l-0.1-10l-15,0.2l0.1,10c-1.9,0.6-3.6,1.3-5.3,2.3l-7.2-7l-10.5,10.7l7.2,7c-0.9,1.7-1.6,3.5-2.1,5.4
			l-10,0.1l0.2,15l10-0.1c0.6,1.9,1.3,3.6,2.3,5.3l-7,7.2l10.7,10.5l7-7.2c1.7,0.9,3.5,1.6,5.4,2.1l0.1,10l15-0.2l-0.1-10
			c1.9-0.6,3.6-1.3,5.3-2.3l7.2,7l10.5-10.7l-7.2-7c0.9-1.7,1.6-3.5,2.1-5.4L281.9,254.4z M246.4,259c-6.5,0.1-11.7-5.1-11.8-11.6
			c-0.1-6.5,5.1-11.7,11.6-11.8c6.5-0.1,11.7,5.1,11.8,11.6C258,253.7,252.8,258.9,246.4,259z"/>
		<path id="XMLID_191_" class="st1" d="M281.9,254.4l-0.2-15l-10,0.1c-0.6-1.9-1.3-3.6-2.3-5.3l7-7.2l-10.7-10.5l-7,7.2
			c-1.7-0.9-3.5-1.6-5.4-2.1l-0.1-10l-15,0.2l0.1,10c-1.9,0.6-3.6,1.3-5.3,2.3l-7.2-7l-10.5,10.7l7.2,7c-0.9,1.7-1.6,3.5-2.1,5.4
			l-10,0.1l0.2,15l10-0.1c0.6,1.9,1.3,3.6,2.3,5.3l-7,7.2l10.7,10.5l7-7.2c1.7,0.9,3.5,1.6,5.4,2.1l0.1,10l15-0.2l-0.1-10
			c1.9-0.6,3.6-1.3,5.3-2.3l7.2,7l10.5-10.7l-7.2-7c0.9-1.7,1.6-3.5,2.1-5.4L281.9,254.4z M246.4,259c-6.5,0.1-11.7-5.1-11.8-11.6
			c-0.1-6.5,5.1-11.7,11.6-11.8c6.5-0.1,11.7,5.1,11.8,11.6C258,253.7,252.8,258.9,246.4,259z"/>
		<path id="XMLID_234_" class="st1" d="M281.9,254.4l-0.2-15l-10,0.1c-0.6-1.9-1.3-3.6-2.3-5.3l7-7.2l-10.7-10.5l-7,7.2
			c-1.7-0.9-3.5-1.6-5.4-2.1l-0.1-10l-15,0.2l0.1,10c-1.9,0.6-3.6,1.3-5.3,2.3l-7.2-7l-10.5,10.7l7.2,7c-0.9,1.7-1.6,3.5-2.1,5.4
			l-10,0.1l0.2,15l10-0.1c0.6,1.9,1.3,3.6,2.3,5.3l-7,7.2l10.7,10.5l7-7.2c1.7,0.9,3.5,1.6,5.4,2.1l0.1,10l15-0.2l-0.1-10
			c1.9-0.6,3.6-1.3,5.3-2.3l7.2,7l10.5-10.7l-7.2-7c0.9-1.7,1.6-3.5,2.1-5.4L281.9,254.4z M246.4,259c-6.5,0.1-11.7-5.1-11.8-11.6
			c-0.1-6.5,5.1-11.7,11.6-11.8c6.5-0.1,11.7,5.1,11.8,11.6C258,253.7,252.8,258.9,246.4,259z"/>
		<g id="XMLID_246_" class="st25">
			<path id="XMLID_250_" class="st1" d="M278.1,239.5C278.1,239.5,278.1,239.6,278.1,239.5h3.7v-0.1L278.1,239.5z"/>
			<path id="XMLID_252_" class="st1" d="M265.1,223.8l3.9-4l-3.2-3.2l-5.2,5.3C262.2,222.4,263.7,223,265.1,223.8z"/>
			<path id="XMLID_255_" class="st1" d="M252.4,235.6c-1.1,0-2.1,0.2-3,0.4c4.9,1.4,8.5,5.8,8.5,11.1c0.1,5.4-3.6,10-8.5,11.4
				c1,0.3,2.2,0.5,3.3,0.4c6.5-0.1,11.6-5.4,11.6-11.8S258.9,235.6,252.4,235.6z"/>
			<path id="XMLID_259_" class="st1" d="M237.5,222.1l2,1.9c1.7-0.9,3.4-1.7,5.3-2.3l-0.1-10l8.6-0.1v-0.1l-15,0.2l0.1,10
				C238.2,221.9,237.8,222,237.5,222.1z"/>
			<path id="XMLID_263_" class="st1" d="M245.3,273c-1.9-0.5-3.7-1.2-5.4-2.1l-1.8,1.9c0.3,0.1,0.6,0.2,0.9,0.3l0.1,10l6.3-0.1
				L245.3,273z"/>
			<path id="XMLID_267_" class="st1" d="M216.9,240.2l10-0.1c0.5-1.9,1.2-3.7,2.1-5.4l-7.2-7l7.4-7.5L226,217l-10.5,10.7l7.2,7
				c-0.9,1.7-1.6,3.5-2.1,5.4l-10,0.1l0.2,15l6.3-0.1L216.9,240.2z"/>
			<path id="XMLID_270_" class="st1" d="M265.6,270.6c-1.4,0.8-2.8,1.4-4.3,1.9l5.2,5.1l3.1-3.2L265.6,270.6z"/>
			<path id="XMLID_271_" class="st1" d="M222.3,267.5l7-7.2c-0.9-1.7-1.7-3.4-2.3-5.3l-6.3,0.1c0.6,1.8,1.3,3.6,2.2,5.2l-7,7.2
				l10.7,10.5l3.1-3.2L222.3,267.5z"/>
		</g>
		<path id="XMLID_130_" class="st3" d="M281.9,254.4l-0.2-15l-10,0.1c-0.6-1.9-1.3-3.6-2.3-5.3l7-7.2l-10.7-10.5l-7,7.2
			c-1.7-0.9-3.5-1.6-5.4-2.1l-0.1-10l-15,0.2l0.1,10c-1.9,0.6-3.6,1.3-5.3,2.3l-7.2-7l-10.5,10.7l7.2,7c-0.9,1.7-1.6,3.5-2.1,5.4
			l-10,0.1l0.2,15l10-0.1c0.6,1.9,1.3,3.6,2.3,5.3l-7,7.2l10.7,10.5l7-7.2c1.7,0.9,3.5,1.6,5.4,2.1l0.1,10l15-0.2l-0.1-10
			c1.9-0.6,3.6-1.3,5.3-2.3l7.2,7l10.5-10.7l-7.2-7c0.9-1.7,1.6-3.5,2.1-5.4L281.9,254.4z M246.4,259c-6.5,0.1-11.7-5.1-11.8-11.6
			c-0.1-6.5,5.1-11.7,11.6-11.8c6.5-0.1,11.7,5.1,11.8,11.6C258,253.7,252.8,258.9,246.4,259z"/>
	</g>
	<g id="XMLID_190_">
		<path id="XMLID_183_" class="st10" d="M219.4,470.7H95.7c-4.1,0-7.4-3.3-7.4-7.4v-84.6c0-4.1,3.3-7.4,7.4-7.4h123.8
			c4.1,0,7.4,3.3,7.4,7.4v84.6C226.8,467.4,223.5,470.7,219.4,470.7z"/>
		<path id="XMLID_134_" class="st26" d="M226.8,387.4H88.3v-8.7c0-4.1,3.3-7.4,7.4-7.4h123.8c4.1,0,7.4,3.3,7.4,7.4L226.8,387.4
			L226.8,387.4z"/>
		<path id="XMLID_132_" class="st3" d="M219.4,470.7H95.7c-4.1,0-7.4-3.3-7.4-7.4v-84.6c0-4.1,3.3-7.4,7.4-7.4h123.8
			c4.1,0,7.4,3.3,7.4,7.4v84.6C226.8,467.4,223.5,470.7,219.4,470.7z"/>
		<path id="XMLID_182_" class="st3" d="M219.4,470.7H95.7c-4.1,0-7.4-3.3-7.4-7.4v-84.6c0-4.1,3.3-7.4,7.4-7.4h123.8
			c4.1,0,7.4,3.3,7.4,7.4v84.6C226.8,467.4,223.5,470.7,219.4,470.7z"/>
		<path id="XMLID_133_" class="st3" d="M226.8,387.4H88.3v-8.7c0-4.1,3.3-7.4,7.4-7.4h123.8c4.1,0,7.4,3.3,7.4,7.4L226.8,387.4
			L226.8,387.4z"/>
		<g id="XMLID_135_">
			<g id="XMLID_169_">
				<line id="XMLID_172_" class="st24" x1="107.4" y1="458" x2="123" y2="458"/>
				<line id="XMLID_171_" class="st24" x1="96.4" y1="458" x2="97.5" y2="458"/>
			</g>
			<g id="XMLID_165_">
				<line id="XMLID_168_" class="st24" x1="107.4" y1="449.4" x2="146.9" y2="449.4"/>
				<line id="XMLID_167_" class="st24" x1="96.4" y1="449.4" x2="97.5" y2="449.4"/>
			</g>
			<g id="XMLID_160_">
				<line id="XMLID_163_" class="st27" x1="165.7" y1="440.7" x2="176.5" y2="440.7"/>
				<line id="XMLID_185_" class="st24" x1="136.3" y1="440.7" x2="156.3" y2="440.7"/>
				<line id="XMLID_164_" class="st28" x1="107.4" y1="440.7" x2="127.2" y2="440.7"/>
				<line id="XMLID_162_" class="st24" x1="96.4" y1="440.7" x2="97.5" y2="440.7"/>
			</g>
			<g id="XMLID_156_">
				<line id="XMLID_173_" class="st24" x1="140.7" y1="432.1" x2="188.9" y2="432.1"/>
				<line id="XMLID_159_" class="st27" x1="107.4" y1="432.1" x2="132.6" y2="432.1"/>
				<line id="XMLID_158_" class="st24" x1="96.4" y1="432.1" x2="97.5" y2="432.1"/>
			</g>
			<g id="XMLID_152_">
				<line id="XMLID_170_" class="st28" x1="140.7" y1="423.5" x2="158.7" y2="423.5"/>
				<line id="XMLID_155_" class="st29" x1="107.4" y1="423.5" x2="132.6" y2="423.5"/>
				<line id="XMLID_154_" class="st24" x1="96.4" y1="423.5" x2="97.5" y2="423.5"/>
			</g>
			<g id="XMLID_148_">
				<line id="XMLID_157_" class="st27" x1="144.2" y1="414.9" x2="149.1" y2="414.9"/>
				<line id="XMLID_161_" class="st28" x1="125.2" y1="414.9" x2="136.3" y2="414.9"/>
				<line id="XMLID_151_" class="st30" x1="107.4" y1="414.9" x2="116.6" y2="414.9"/>
				<line id="XMLID_150_" class="st24" x1="96.4" y1="414.9" x2="97.5" y2="414.9"/>
			</g>
			<g id="XMLID_144_">
				<line id="XMLID_137_" class="st27" x1="180.2" y1="406.2" x2="188.9" y2="406.2"/>
				<line id="XMLID_149_" class="st28" x1="135.1" y1="406.2" x2="169.2" y2="406.2"/>
				<line id="XMLID_147_" class="st29" x1="107.4" y1="406.2" x2="127.7" y2="406.2"/>
				<line id="XMLID_146_" class="st24" x1="96.4" y1="406.2" x2="97.5" y2="406.2"/>
			</g>
			<g id="XMLID_139_">
				<line id="XMLID_145_" class="st29" x1="158.7" y1="397.6" x2="176.5" y2="397.6"/>
				<line id="XMLID_138_" class="st31" x1="136.3" y1="397.6" x2="150.1" y2="397.6"/>
				<line id="XMLID_140_" class="st29" x1="121.3" y1="397.6" x2="129.1" y2="397.6"/>
				<line id="XMLID_143_" class="st31" x1="107.4" y1="397.6" x2="113.8" y2="397.6"/>
				<line id="XMLID_142_" class="st24" x1="96.4" y1="397.6" x2="97.5" y2="397.6"/>
			</g>
		</g>
		<g id="XMLID_153_">
			<circle id="XMLID_136_" class="st22" cx="102" cy="379.4" r="2.5"/>
			<circle id="XMLID_166_" class="st10" cx="111" cy="379.4" r="2.5"/>
			<circle id="XMLID_174_" class="st10" cx="120.1" cy="379.4" r="2.5"/>
		</g>
	</g>
	<path id="XMLID_176_" class="st7" d="M268.7,396.2h-89.6c-4.4,0-8-3.6-8-8v-80.9c0-4.4,3.6-8,8-8h89.6c4.4,0,8,3.6,8,8v80.9
		C276.7,392.6,273.1,396.2,268.7,396.2z"/>
	<path id="XMLID_184_" class="st7" d="M268.7,396.2h-89.6c-4.4,0-8-3.6-8-8v-80.9c0-4.4,3.6-8,8-8h89.6c4.4,0,8,3.6,8,8v80.9
		C276.7,392.6,273.1,396.2,268.7,396.2z"/>
	<path id="XMLID_175_" class="st3" d="M268.7,396.2h-89.6c-4.4,0-8-3.6-8-8v-80.9c0-4.4,3.6-8,8-8h89.6c4.4,0,8,3.6,8,8v80.9
		C276.7,392.6,273.1,396.2,268.7,396.2z"/>
	<rect id="XMLID_186_" x="180.2" y="307.5" class="st32" width="86.8" height="57.7"/>
	<rect id="XMLID_177_" x="180.2" y="307.5" class="st3" width="86.8" height="57.7"/>
	<line id="XMLID_179_" class="st3" x1="180.2" y1="374.4" x2="235" y2="374.4"/>
	<line id="XMLID_180_" class="st3" x1="180.2" y1="383.6" x2="212.6" y2="383.6"/>
	<polyline id="XMLID_178_" class="st3" points="188.9,354.9 207.6,336.4 225,353.8 	"/>
	<polyline id="XMLID_181_" class="st3" points="257.6,354.9 235,325.4 216.9,345.6 	"/>
	<circle id="XMLID_187_" class="st3" cx="257.4" cy="378.6" r="4.9"/>
	<circle id="XMLID_189_" class="st1" cx="213.1" cy="325.4" r="6.2"/>
	<circle id="XMLID_188_" class="st3" cx="213.1" cy="325.4" r="6.2"/>
	<g id="XMLID_194_">
		<line id="XMLID_198_" class="st3" x1="169.4" y1="270.8" x2="196.2" y2="270.8"/>
		<line id="XMLID_195_" class="st3" x1="155.1" y1="270.8" x2="162.2" y2="270.8"/>
		<line id="XMLID_199_" class="st3" x1="182.8" y1="258.4" x2="196.2" y2="258.4"/>
		<line id="XMLID_196_" class="st3" x1="172" y1="258.4" x2="176" y2="258.4"/>
	</g>
	<g id="XMLID_200_">
		<line id="XMLID_205_" class="st3" x1="140.4" y1="349.2" x2="161.3" y2="349.2"/>
		<line id="XMLID_204_" class="st3" x1="129.3" y1="349.2" x2="134.8" y2="349.2"/>
		<line id="XMLID_202_" class="st3" x1="152.8" y1="336.8" x2="161.3" y2="336.8"/>
		<line id="XMLID_201_" class="st3" x1="142.4" y1="336.8" x2="145.6" y2="336.8"/>
	</g>
	<g id="XMLID_229_">
		<line id="XMLID_233_" class="st3" x1="473.7" y1="204.1" x2="493.5" y2="204.1"/>
		<line id="XMLID_232_" class="st3" x1="461.5" y1="204.1" x2="467.1" y2="204.1"/>
		<line id="XMLID_231_" class="st3" x1="485" y1="191.7" x2="493.5" y2="191.7"/>
		<line id="XMLID_230_" class="st3" x1="474.7" y1="191.7" x2="477.9" y2="191.7"/>
	</g>
	<path id="XMLID_211_" class="st20" d="M489.1,274h-78.2c-4.8,0-8.6-3.9-8.6-8.6v-37.9c0-4.8,3.9-8.6,8.6-8.6h78.2
		c4.8,0,8.6,3.9,8.6,8.6v37.8C497.7,270.1,493.9,274,489.1,274z"/>
	<path id="XMLID_197_" class="st4" d="M489.1,274h-78.2c-4.8,0-8.6-3.9-8.6-8.6v-37.9c0-4.8,3.9-8.6,8.6-8.6h78.2
		c4.8,0,8.6,3.9,8.6,8.6v37.8C497.7,270.1,493.9,274,489.1,274z"/>
	<line id="XMLID_214_" class="st33" x1="450" y1="233.7" x2="483.9" y2="233.7"/>
	<line id="XMLID_216_" class="st33" x1="450" y1="244.6" x2="472.4" y2="244.6"/>
	<g id="XMLID_224_" class="st34">
		<path id="XMLID_217_" class="st7" d="M467,260.9h-13.6c-1.8,0-3.3-1.5-3.3-3.3l0,0c0-1.8,1.5-3.3,3.3-3.3H467
			c1.8,0,3.3,1.5,3.3,3.3l0,0C470.4,259.4,468.9,260.9,467,260.9z"/>
		<path id="XMLID_213_" class="st35" d="M467,260.9h-13.6c-1.8,0-3.3-1.5-3.3-3.3l0,0c0-1.8,1.5-3.3,3.3-3.3H467
			c1.8,0,3.3,1.5,3.3,3.3l0,0C470.4,259.4,468.9,260.9,467,260.9z"/>
	</g>
	<g id="XMLID_226_">
		<path id="XMLID_206_" class="st35" d="M435.9,261.4H418c-2.6,0-4.6-2.1-4.6-4.6v-20.9c0-2.6,2.1-4.6,4.6-4.6h17.9
			c2.6,0,4.6,2.1,4.6,4.6v20.9C440.5,259.3,438.5,261.4,435.9,261.4z"/>
		<circle id="XMLID_225_" class="st35" cx="427" cy="242.9" r="4.8"/>
		<path id="XMLID_227_" class="st35" d="M417.9,260.9c0-5,4.1-9.1,9.1-9.1s9.1,4.1,9.1,9.1"/>
	</g>
</g>
</svg>
