<?xml version="1.0" encoding="utf-8"?>
<!-- Generator: Adobe Illustrator 22.1.0, SVG Export Plug-In . SVG Version: 6.00 Build 0)  -->
<svg version="1.1" id="Layer_1" xmlns="http://www.w3.org/2000/svg" xmlns:xlink="http://www.w3.org/1999/xlink" x="0px" y="0px"
	 viewBox="0 0 599 599" style="enable-background:new 0 0 599 599;" xml:space="preserve">
<style type="text/css">
	.st0{fill:#FFFFFF;}
	.st1{fill:#282323;stroke:#000000;stroke-width:4;stroke-linecap:round;stroke-linejoin:round;stroke-miterlimit:10;}
	.st2{fill:#442C2A;}
	.st3{opacity:0.37;fill:#442C2A;enable-background:new    ;}
	.st4{fill:none;stroke:#000000;stroke-width:4;stroke-linecap:round;stroke-linejoin:round;stroke-miterlimit:10;}
	.st5{fill:#151E28;}
	.st6{fill:#2A3749;}
	.st7{opacity:0.67;fill:#151E28;enable-background:new    ;}
	.st8{fill:#9B2121;}
	.st9{fill:#F1534D;}
	.st10{opacity:0.24;}
	.st11{fill:#F46262;}
	.st12{fill:#FFC897;}
	.st13{fill:#E5A973;}
	.st14{fill:#607691;}
	.st15{fill:#B5B5B5;}
	.st16{opacity:0.21;fill:#7E7E7E;enable-background:new    ;}
	.st17{opacity:0.66;fill:#B5B5B5;enable-background:new    ;}
	.st18{fill:none;stroke:#000000;stroke-width:6;stroke-linecap:round;stroke-linejoin:round;stroke-miterlimit:10;}
	.st19{fill:#7E7E7E;}
	.st20{fill:#231A17;}
	.st21{opacity:0.34;}
	.st22{fill:none;stroke:#000000;stroke-width:3;stroke-linecap:round;stroke-linejoin:round;stroke-miterlimit:10;}
	.st23{fill:none;stroke:#000000;stroke-width:2;stroke-linecap:round;stroke-linejoin:round;stroke-miterlimit:10;}
</style>
<rect class="st0" width="599" height="599"/>
<g id="XMLID_1207_">
	<g id="XMLID_43_">
		<path id="XMLID_1211_" class="st1" d="M189.1,525.9c3.3-10.7,13.4-16.4,29.8-21.2c10.4-3,23.6-4.4,44.3-8.6c10.1-2,17.2-6,17.2-6
			v11.5c0,0-68.5,13.5-79.2,31.2c-5.2,8.7-3.6,30,20.9,32.2c-7.5,1.1-19.8-0.8-26.4-7.5C187.5,549.2,185.3,538.1,189.1,525.9z"/>
		<path id="XMLID_1210_" class="st2" d="M280.4,501.6c0,0-41,7.6-62.9,17c-19.2,8.3-18.6,16.9-19.1,25.7
			c-0.3,5.1,3.3,17.7,17.9,19.9c17.4,2.6,37.9-0.2,64.1-16.9C280.4,506.4,280.4,501.6,280.4,501.6z"/>
		<path id="XMLID_53_" class="st3" d="M198.4,544.3c0.4-7.1,0.1-14.1,10.1-20.9c-0.4,2.5-0.5,4.9-0.6,7.4c-0.3,5.1,12-1.5,26.6,0.6
			c15.2,2.3,24.2,19.7,45.9,8c0,2.5,0,5.1,0,7.8c-26.2,16.7-46.7,19.4-64.1,16.9C201.7,562,198.1,549.3,198.4,544.3z"/>
		<path id="XMLID_47_" class="st4" d="M280.4,501.6c0,0-41,7.6-62.9,17c-19.2,8.3-18.6,16.9-19.1,25.7c-0.3,5.1,3.3,17.7,17.9,19.9
			c17.4,2.6,37.9-0.2,64.1-16.9C280.4,506.4,280.4,501.6,280.4,501.6z"/>
		<path id="XMLID_46_" class="st4" d="M242.4,525.1c-3.3,1.8-2.5,19.3,5.5,21.7"/>
		<path id="XMLID_45_" class="st4" d="M254.9,523.8c-3.4,4.8-1,16.1,5.1,18.9"/>
		<path id="XMLID_44_" class="st4" d="M266.4,519.8c-3.4,4.8-1,16.1,5.1,18.9"/>
	</g>
	<path id="XMLID_77_" class="st5" d="M384.4,468c-21.6,15-52.3,23.6-84.4,23.6c-32,0-62.8-8.6-84.4-23.6
		c-9.9-6.9-26.5-21.3-26.5-40.5s16.6-33.6,26.5-40.5c21.6-15,52.3-23.6,84.4-23.6c32,0,62.8,8.6,84.4,23.6
		c9.9,6.9,26.5,21.3,26.5,40.5S394.3,461.1,384.4,468z"/>
	<path id="XMLID_76_" class="st6" d="M483.3,443.5c-0.4,2-0.8,3.9-1.4,5.9c-15.6,56.9-90.8,100.1-181.3,100.1
		c-90.7,0-166.1-43.4-181.4-100.5c-0.4-1.6-0.8-3.2-1.1-4.8c-0.4-3-0.3-6,0.3-9c3.7-16.8,24.1-26.5,45.6-21.7
		c14.1,3.1,25.1,11.8,30,22.1c0.5,2.2,1.3,4.4,2.2,6.5c5.2,12,15.6,21,22.6,26c20.9,15,50.8,23.6,81.8,23.6
		c31.1,0,60.9-8.6,81.8-23.6c7.1-5.1,17.6-14.2,22.7-26.2c0.8-1.9,1.5-4,2-6c4.8-10.4,15.9-19.1,30.1-22.3
		c21.5-4.8,41.9,5,45.6,21.7C483.5,437.9,483.6,440.7,483.3,443.5z"/>
	<path id="XMLID_1209_" class="st7" d="M482.8,435.1c-0.1-0.5-0.2-0.9-0.4-1.4c-0.3,1.6-0.7,3.3-1.2,4.9
		c-15.4,56.9-90.7,100.1-181.1,100.1c-90.7,0-166.1-43.4-181.4-100.5c-0.2-0.6-0.3-1.2-0.5-1.9c-0.4,2.6-0.5,5.2-0.1,7.7
		c0.3,1.6,0.7,3.2,1.1,4.8c15.3,57.1,90.7,100.5,181.4,100.5c90.5,0,165.7-43.2,181.3-100.1c0.5-1.9,1-3.9,1.4-5.9
		C483.6,440.7,483.5,437.9,482.8,435.1z"/>
	<path id="XMLID_56_" class="st4" d="M483.3,443.5c-0.4,2-0.8,3.9-1.4,5.9c-15.6,56.9-90.8,100.1-181.3,100.1
		c-90.7,0-166.1-43.4-181.4-100.5c-0.4-1.6-0.8-3.2-1.1-4.8c-0.4-3-0.3-6,0.3-9c3.7-16.8,24.1-26.5,45.6-21.7
		c14.1,3.1,25.1,11.8,30,22.1c0.5,2.2,1.3,4.4,2.2,6.5c5.2,12,15.6,21,22.6,26c20.9,15,50.8,23.6,81.8,23.6
		c31.1,0,60.9-8.6,81.8-23.6c7.1-5.1,17.6-14.2,22.7-26.2c0.8-1.9,1.5-4,2-6c4.8-10.4,15.9-19.1,30.1-22.3
		c21.5-4.8,41.9,5,45.6,21.7C483.5,437.9,483.6,440.7,483.3,443.5z"/>
	<ellipse id="XMLID_75_" class="st8" cx="301.8" cy="430.5" rx="90.1" ry="30.6"/>
	<ellipse id="XMLID_31_" class="st4" cx="301.8" cy="430.5" rx="90.1" ry="30.6"/>
	<g id="XMLID_89_">
		<path id="XMLID_69_" class="st9" d="M404.4,363.7H196.8c-15.9,0-28.2-13.9-26.2-29.7l9.2-73.5c2.6-21,20.4-36.7,41.6-36.7H380
			c21.1,0,38.9,15.7,41.6,36.7l9.2,73.5C432.6,349.8,420.3,363.7,404.4,363.7z"/>
		<path id="XMLID_24_" class="st4" d="M404.4,363.7H196.8c-15.9,0-28.2-13.9-26.2-29.7l9.2-73.5c2.6-21,20.4-36.7,41.6-36.7H380
			c21.1,0,38.9,15.7,41.6,36.7l9.2,73.5C432.6,349.8,420.3,363.7,404.4,363.7z"/>
		<path id="XMLID_90_" class="st4" d="M224.6,285.9"/>
		<g id="XMLID_1191_">
			<line id="XMLID_1189_" class="st4" x1="219.3" y1="285.9" x2="217.3" y2="311"/>
			<line id="XMLID_1192_" class="st4" x1="383.4" y1="285.9" x2="385.4" y2="311"/>
		</g>
	</g>
	<g id="XMLID_1194_">
		<path id="XMLID_1202_" class="st9" d="M404.4,363.7H196.8c-15.9,0-28.2-13.9-26.2-29.7l9.2-73.5c2.6-21,20.4-36.7,41.6-36.7H380
			c21.1,0,38.9,15.7,41.6,36.7l9.2,73.5C432.6,349.8,420.3,363.7,404.4,363.7z"/>
		<g id="XMLID_4_" class="st10">
			<path id="XMLID_1208_" class="st8" d="M179.7,268.3c2.6-21,20.4-36.7,41.6-36.7h158.6c21.1,0,38.9,15.7,41.6,36.7l9.1,72.9
				c0.3-2.3,0.4-4.7,0.1-7.2l-9.2-73.5c-2.6-21-20.4-36.7-41.6-36.7H221.3c-21.1,0-38.9,15.7-41.6,36.7l-9.2,73.5
				c-0.3,2.4-0.3,4.8,0.1,7.2L179.7,268.3z"/>
			<path id="XMLID_8_" class="st8" d="M230.5,231.6c0,0,12.3,2.2,13.3,9c0.8,5.5,0.7,9.1,2.8,11.3s7,6.7,16.9,6.7
				c-5.5-5.5-5.6-24.8-7.1-24.8c-1.4,0-5-9.6-5-9.6l-4.8-2.2C246.7,222,229,224.2,230.5,231.6z"/>
			<path id="XMLID_10_" class="st8" d="M361.9,231.6c0,0-12.3,2.2-13.3,9c-0.8,5.5-0.7,9.1-2.8,11.3c-2.1,2.1-7,6.7-16.9,6.7
				c5.5-5.5,5.6-24.8,7.1-24.8c1.4,0,5-9.6,5-9.6l4.8-2.2C345.7,222,363.4,224.2,361.9,231.6z"/>
		</g>
		<path id="XMLID_1201_" class="st4" d="M404.4,363.7H196.8c-15.9,0-28.2-13.9-26.2-29.7l9.2-73.5c2.6-21,20.4-36.7,41.6-36.7H380
			c21.1,0,38.9,15.7,41.6,36.7l9.2,73.5C432.6,349.8,420.3,363.7,404.4,363.7z"/>
		<path id="XMLID_1200_" class="st4" d="M224.6,285.9"/>
		<g id="XMLID_1195_">
			<line id="XMLID_1199_" class="st4" x1="219.3" y1="285.9" x2="217.3" y2="311"/>
			<line id="XMLID_1196_" class="st4" x1="383.4" y1="285.9" x2="385.4" y2="311"/>
		</g>
	</g>
	<g id="XMLID_78_">
		<path id="XMLID_80_" class="st8" d="M273.9,182l-32.9-1.7l-15.4,1.7c0,0-10.3,7.7-10.3,9.8s1,19.2,1,19.2s24.3,3.3,26.9,5.8
			s18,16.9,18,16.9l14.9-5.8l7.8-20.8L273.9,182z"/>
		<path id="XMLID_72_" class="st9" d="M268.1,169.3h-38c-15.3,0-27.8,12.4-27.8,27.8l0,0c0,15.3,12.4,27.8,27.8,27.8h5
			c8.1,0,14.6,6.5,14.6,14.6v1.5c0,9.7,7.9,17.6,17.6,17.6l0,0v-18c0.2,0,0.4,0.2,0.4,0.4v-1.5c0-18-14.6-32.6-32.6-32.6h-5
			c-5.4,0-9.8-4.4-9.8-9.8s4.4-9.8,9.8-9.8h38V169.3z"/>
		<path id="XMLID_81_" class="st4" d="M265.8,228.2c-4.6-12.4-16.6-21.4-30.6-21.4h-5c-5.4,0-9.8-4.4-9.8-9.8s4.4-9.8,9.8-9.8h38
			v-18h-38c-15.3,0-27.8,12.4-27.8,27.8l0,0c0,15.3,12.4,27.8,27.8,27.8h5c8.1,0,14.6,6.5,14.6,14.6v1.5c0,9.7,7.9,17.6,17.6,17.6"
			/>
	</g>
	<g id="XMLID_28_">
		<path id="XMLID_82_" class="st8" d="M317.4,182l32.9-1.7l15.4,1.7c0,0,10.3,7.7,10.3,9.8s-1,19.2-1,19.2s-24.3,3.3-26.9,5.8
			c-2.6,2.6-18,16.9-18,16.9l-14.9-5.8l-7.8-20.8L317.4,182z"/>
		<path id="XMLID_79_" class="st9" d="M323.2,169.3h38c15.3,0,27.8,12.4,27.8,27.8l0,0c0,15.3-12.4,27.8-27.8,27.8h-5
			c-8.1,0-14.6,6.5-14.6,14.6v1.5c0,9.7-7.9,17.6-17.6,17.6l0,0v-18c-0.2,0-0.4,0.2-0.4,0.4v-1.5c0-18,14.6-32.6,32.6-32.6h5
			c5.4,0,9.8-4.4,9.8-9.8s-4.4-9.8-9.8-9.8h-38V169.3z"/>
		<path id="XMLID_71_" class="st4" d="M325.6,228.2c4.6-12.4,16.6-21.4,30.6-21.4h5c5.4,0,9.8-4.4,9.8-9.8s-4.4-9.8-9.8-9.8h-38v-18
			h38c15.3,0,27.8,12.4,27.8,27.8l0,0c0,15.3-12.4,27.8-27.8,27.8h-5c-8.1,0-14.6,6.5-14.6,14.6v1.5c0,9.7-7.9,17.6-17.6,17.6"/>
	</g>
	<ellipse id="XMLID_74_" class="st11" cx="297.5" cy="205.4" rx="39" ry="39"/>
	<path id="XMLID_2426_" class="st9" d="M260.2,193.9c10.8,6.9,23.6,11,37.3,11c13.7,0,26.5-4,37.3-11c-4.9-16-19.7-27.6-37.3-27.6
		C280,166.4,265.1,178,260.2,193.9z"/>
	<ellipse id="XMLID_23_" class="st4" cx="297.5" cy="205.4" rx="39" ry="39"/>
	<path id="XMLID_70_" class="st12" d="M297.5,228L297.5,228c-12.7,0-23-10.3-23-23v-17.2c0-3.2,2.6-5.8,5.8-5.8h34.5
		c3.2,0,5.8,2.6,5.8,5.8V205C320.5,217.7,310.2,228,297.5,228z"/>
	<path id="XMLID_2425_" class="st13" d="M314.8,182h-34.5c-3.2,0-5.8,2.8-5.8,6.2v14.1c7.2,2.7,14.9,4.2,23,4.2s15.8-1.5,23-4.2
		v-14.1C320.5,184.8,317.9,182,314.8,182z"/>
	<path id="XMLID_15_" class="st4" d="M297.5,228L297.5,228c-12.7,0-23-10.3-23-23v-17.2c0-3.2,2.6-5.8,5.8-5.8h34.5
		c3.2,0,5.8,2.6,5.8,5.8V205C320.5,217.7,310.2,228,297.5,228z"/>
	<path id="XMLID_25_" class="st4" d="M275.3,216.9"/>
	<rect id="XMLID_30_" x="301" y="487.1" class="st14" width="21.4" height="68.3"/>
	<rect id="XMLID_33_" x="301" y="487.1" class="st4" width="21.4" height="68.3"/>
	<path id="XMLID_54_" class="st4" d="M196.1,441.9c-0.9-2.1-1.6-4.2-2.2-6.5C195,437.6,195.7,439.7,196.1,441.9z"/>
	<path id="XMLID_51_" class="st4" d="M405.2,441.7c0.4-2.1,1.1-4.1,2-6C406.7,437.8,406,439.8,405.2,441.7z"/>
	<g id="XMLID_88_">
		<path id="XMLID_73_" class="st15" d="M404.9,436.9H196.4c-7.4,0-13.7-5.5-14.7-12.9l-13-101.8c-1.1-8.8,5.8-16.7,14.7-16.7h234.5
			c8.9,0,15.8,7.8,14.7,16.7l-13,101.8C418.6,431.3,412.3,436.9,404.9,436.9z"/>
		<path id="XMLID_1188_" class="st16" d="M419.5,417.6c-0.9,7.4-7.2,12.9-14.7,12.9H196.4c-7.4,0-13.7-5.5-14.7-12.9l-12.8-100.3
			c-0.3,1.6-0.4,3.2-0.2,4.9l13,101.8c0.9,7.4,7.2,12.9,14.7,12.9h208.5c7.4,0,13.7-5.5,14.7-12.9l13-101.8c0.2-1.7,0.1-3.3-0.2-4.9
			L419.5,417.6z"/>
		<path id="XMLID_91_" class="st16" d="M168.8,323.1c1.2-6.8,7.2-12.2,14.5-12.2h234.5c7.4,0,13.3,5.3,14.5,12.2l0.1-1
			c1.1-8.8-5.8-16.7-14.7-16.7H183.4c-8.9,0-15.8,7.8-14.7,16.7L168.8,323.1z"/>
		<path id="XMLID_29_" class="st4" d="M404.9,436.9H196.4c-7.4,0-13.7-5.5-14.7-12.9l-13-101.8c-1.1-8.8,5.8-16.7,14.7-16.7h234.5
			c8.9,0,15.8,7.8,14.7,16.7l-13,101.8C418.6,431.3,412.3,436.9,404.9,436.9z"/>
		<path id="XMLID_1190_" class="st17" d="M310.5,365c-4.5,0-8.1-3.6-8.1-8.1c0-0.3,0-0.6,0.1-0.9c-0.8-0.1-1.6-0.2-2.4-0.2
			c-7.3,0-13.3,6-13.3,13.3s6,13.3,13.3,13.3s13.3-6,13.3-13.3c0-1.5-0.3-3-0.7-4.4C312,364.8,311.3,365,310.5,365z"/>
	</g>
	<g id="XMLID_39_">
		<path id="XMLID_36_" class="st1" d="M413.7,525.9c-3.3-10.7-13.4-16.4-29.8-21.2c-10.4-3-23.6-4.4-44.3-8.6c-10.1-2-17.2-6-17.2-6
			v11.5c0,0,68.5,13.5,79.2,31.2c5.2,8.7,3.6,30-20.9,32.2c7.5,1.1,19.8-0.8,26.4-7.5C415.3,549.2,417.5,538.1,413.7,525.9z"/>
		<path id="XMLID_52_" class="st2" d="M322.4,501.6c0,0,41,7.6,62.9,17c19.2,8.3,18.6,16.9,19.1,25.7c0.3,5.1-3.3,17.7-17.9,19.9
			c-17.4,2.6-37.9-0.2-64.1-16.9C322.4,506.4,322.4,501.6,322.4,501.6z"/>
		<path id="XMLID_1212_" class="st3" d="M404.4,544.3c-0.4-7.1-0.1-14.1-10.1-20.9c0.4,2.5,0.5,4.9,0.6,7.4
			c0.3,5.1-3.3,17.7-17.9,19.9c-15.2,2.3-32.9,0.4-54.6-11.3c0,2.5,0,5.1,0,7.8c26.2,16.7,46.7,19.4,64.1,16.9
			C401.2,562,404.7,549.3,404.4,544.3z"/>
		<path id="XMLID_34_" class="st4" d="M322.4,501.6c0,0,41,7.6,62.9,17c19.2,8.3,18.6,16.9,19.1,25.7c0.3,5.1-3.3,17.7-17.9,19.9
			c-17.4,2.6-37.9-0.2-64.1-16.9C322.4,506.4,322.4,501.6,322.4,501.6z"/>
		<path id="XMLID_37_" class="st4" d="M360.4,525.1c3.3,1.8,2.5,19.3-5.5,21.7"/>
		<path id="XMLID_38_" class="st4" d="M347.9,523.8c3.4,4.8,1,16.1-5.1,18.9"/>
		<path id="XMLID_40_" class="st4" d="M336.4,519.8c3.4,4.8,1,16.1-5.1,18.9"/>
	</g>
	<line id="XMLID_83_" class="st18" x1="262.4" y1="248.4" x2="262.4" y2="301.6"/>
	<line id="XMLID_84_" class="st18" x1="329.9" y1="248.4" x2="329.9" y2="285.9"/>
	<circle id="XMLID_27_" cx="329.9" cy="288.9" r="8.3"/>
	<circle id="XMLID_86_" class="st19" cx="329.9" cy="287.9" r="3.4"/>
	<g id="XMLID_41_">
		<path id="XMLID_5_" class="st12" d="M297.5,198.9L297.5,198.9c-34.8,0-63.1-28.2-63.1-63.1V62.6h126.2v73.2
			C360.6,170.6,332.4,198.9,297.5,198.9z"/>
		<path id="XMLID_1198_" class="st13" d="M297.5,190.2L297.5,190.2c-34.8,0-63.1-28.2-63.1-63.1v8.7c0,34.8,28.2,63.1,63.1,63.1l0,0
			c34.8,0,63.1-28.2,63.1-63.1v-8.7C360.6,161.9,332.4,190.2,297.5,190.2z"/>
		<path id="XMLID_2424_" class="st4" d="M297.5,198.9L297.5,198.9c-34.8,0-63.1-28.2-63.1-63.1V62.6h126.2v73.2
			C360.6,170.6,332.4,198.9,297.5,198.9z"/>
		<path id="XMLID_1197_" class="st13" d="M361.1,69.9c-0.2-3.4-0.4-6.9-0.5-10.3c-42,2-84.2,1.7-126.1-2c-0.3,3.9-0.5,7.8-0.8,11.7
			c1.9,1.7,3.9,3.5,5.8,5.2c1.6,0.8,3.7,1.9,5.6,2.9c8.4,4.4,20.1,10,31.3,12.2c4.1,0.8,8.4,1.2,12.8,1.1
			c18.9-0.2,34.8-7.7,41.5-10.8c1-0.5,1.8-0.9,2.3-1c0.4-0.2,0.8-0.3,1.4-0.3c1.2,0,2.6,0.3,4.3,0.6c2.2,0.5,4.8,1,7.7,0.8
			c3.3-0.2,6.3-1.2,9.2-3.1C357.3,74.5,359.2,72.2,361.1,69.9z"/>
		<path id="XMLID_68_" class="st20" d="M330.7,31.9c0,0-50.5-33.3-92.3,3.9c-7.8,6.9-10.9,16.8-10.9,25.9v48.2h7v-35
			c0-2.6,1.8-4.6,4-4.6l0,0c3.6,0,23.1,10.4,39.6,13.3c24.9,4.3,47.6-7.2,52.5-8.9c8.4-3,15.2,7.4,25.8-4.3h0.4c2.2,0,4,2.1,4,4.6
			v35h7V62C367.6,50.2,354,20.6,330.7,31.9z"/>
		<g id="XMLID_2783_" class="st21">
			<rect id="XMLID_2784_" x="227.4" y="103.3" class="st20" width="7" height="6.6"/>
			<rect id="XMLID_2785_" x="360.6" y="103.3" class="st20" width="7" height="6.6"/>
		</g>
		<path id="XMLID_3_" class="st4" d="M330.7,31.9c0,0-50.5-33.3-92.3,3.9c-7.8,6.9-10.9,16.8-10.9,25.9v48.2h7v-35
			c0-2.6,1.8-4.6,4-4.6l0,0c3.6,0,23.1,10.4,39.6,13.3c24.9,4.3,47.6-7.2,52.5-8.9c8.4-3,15.2,7.4,25.8-4.3h0.4c2.2,0,4,2.1,4,4.6
			v35h7V62C367.6,50.2,354,20.6,330.7,31.9z"/>
		<path id="XMLID_6_" class="st4" d="M288,64.4c0,0-54.2,3.5-65.7-25.3"/>
		<path id="XMLID_9_" class="st4" d="M295.7,57.5c0,0-52.2-3.3-65.8-32.1"/>
		<path id="XMLID_85_" class="st12" d="M360.6,102.1v32.8c7,0,12.6-7.3,12.6-16.4l0,0C373.2,109.4,367.6,102.1,360.6,102.1z"/>
		<path id="XMLID_1205_" class="st13" d="M360.6,103.9V133c4.1-2.7,6.9-8.2,6.9-14.6l0,0C367.5,112.1,364.7,106.6,360.6,103.9z"/>
		<path id="XMLID_12_" class="st4" d="M360.6,102.1v32.8c7,0,12.6-7.3,12.6-16.4l0,0C373.2,109.4,367.6,102.1,360.6,102.1z"/>
		<path id="XMLID_87_" class="st12" d="M234.5,102.1v32.8c-7,0-12.6-7.3-12.6-16.4l0,0C221.8,109.4,227.5,102.1,234.5,102.1z"/>
		<path id="XMLID_1203_" class="st13" d="M234.5,104.5c-3.6,2.9-6.1,8.1-6.1,14l0,0c0,5.9,2.4,11.1,6.1,14V104.5z"/>
		<path id="XMLID_11_" class="st4" d="M234.5,102.1v32.8c-7,0-12.6-7.3-12.6-16.4l0,0C221.8,109.4,227.5,102.1,234.5,102.1z"/>
		<path id="XMLID_7_" class="st4" d="M294.9,128.8l-4.2,13.7c0,1.5,4.9,0.3,9.9,1.5"/>
		<path id="XMLID_16_" class="st22" d="M318.5,154.4c1.5,10.4-11.9,19.6-22.4,17.7"/>
		<g id="XMLID_19_">
			<ellipse id="XMLID_14_" class="st23" cx="274.8" cy="112.7" rx="4.2" ry="4.5"/>
			<ellipse id="XMLID_20_" cx="274.8" cy="112.7" rx="4.2" ry="4.5"/>
			<path id="XMLID_17_" class="st22" d="M260.3,103.2c2.1-2.5,7-4.2,12.8-4.2c4.6,0,8.6,1.1,11.1,2.8"/>
		</g>
		<g id="XMLID_13_">
			<ellipse id="XMLID_22_" class="st23" cx="320.8" cy="112.7" rx="4.2" ry="4.5"/>
			<ellipse id="XMLID_21_" cx="320.8" cy="112.7" rx="4.2" ry="4.5"/>
			<path id="XMLID_18_" class="st22" d="M335.3,103.2c-2.1-2.5-7-4.2-12.8-4.2c-4.6,0-8.6,1.1-11.1,2.8"/>
		</g>
	</g>
</g>
</svg>
