<svg xmlns="http://www.w3.org/2000/svg" xmlns:xlink="http://www.w3.org/1999/xlink" viewBox="0 0 1209.24 808.1">
  <defs>
    <style>
      .cls-1 {
        isolation: isolate;
      }

      .cls-2 {
        fill: #f0f4ff;
      }

      .cls-3 {
        fill: #d0e7ff;
      }

      .cls-4 {
        fill: #e6edff;
      }

      .cls-5 {
        fill: #d8e3ff;
      }

      .cls-6, .cls-7 {
        fill: #fff;
      }

      .cls-6 {
        opacity: 0.21;
      }

      .cls-8 {
        fill: #cddcfd;
      }

      .cls-9 {
        opacity: 0.84;
        mix-blend-mode: overlay;
        fill: url(#linear-gradient);
      }

      .cls-10 {
        fill: #242833;
      }

      .cls-11 {
        fill: #acc3ea;
      }

      .cls-12 {
        fill: #939cc1;
        opacity: 0.46;
        mix-blend-mode: multiply;
      }

      .cls-13 {
        fill: #fba09f;
      }

      .cls-14 {
        fill: #4b4f68;
      }

      .cls-15 {
        fill: #fd8b8a;
      }

      .cls-16 {
        fill: #4f94f9;
      }

      .cls-17 {
        fill: #2d429b;
      }

      .cls-18 {
        fill: #1766cf;
        opacity: 0.65;
      }

      .cls-19 {
        fill: #6eaef9;
      }

      .cls-20 {
        fill: #70bb92;
      }

      .cls-21 {
        fill: #4d996d;
      }

      .cls-22 {
        fill: #367450;
      }

      .cls-23 {
        fill: #5f668e;
      }

      .cls-24 {
        fill: #c14444;
      }

      .cls-25 {
        fill: #55a374;
      }

      .cls-26 {
        fill: #999;
      }

      .cls-27 {
        fill: #f4b822;
      }

      .cls-28 {
        fill: #ffce45;
      }

      .cls-29 {
        fill: #bddbff;
      }

      .cls-30 {
        fill: #d4eaff;
        opacity: 0.42;
      }

      .cls-31 {
        fill: #f2f2f2;
      }
    </style>
    <linearGradient id="linear-gradient" x1="477.17" y1="569" x2="363.11" y2="657.4" gradientUnits="userSpaceOnUse">
      <stop offset="0" stop-color="#fff" stop-opacity="0"/>
      <stop offset="1" stop-color="#e6edff" stop-opacity="0.4"/>
    </linearGradient>
  </defs>
  <title>Payment</title>
  <g class="cls-1">
    <g id="Слой_2" data-name="Слой 2">
      <g id="Payment">
        <g id="Background">
          <path class="cls-2" d="M1111.08,788.35c-2.06,9.56-3.44,14.76-3.44,14.76L58.71,802.35a115,115,0,0,1-22.35-14c-21.86-17.23-49.22-50.79-29.66-103,30.3-80.93,188.85-82.83,221.76-182.1s-9.72-254.5,62.82-352.94c4.63-6.29,10.12-13.34,16.46-20.87,4.63-5.48,9.7-11.21,15.25-17.08,8.36-8.84,17.77-18,28.28-27.11C413.93,30.93,515.32-21.25,661.58,8.81c64.78,13.31,138.36,42.75,221.28,95.29C1197.18,303.27,1128.79,706.34,1111.08,788.35Z"/>
          <path class="cls-3" d="M337.83,161.5,336.5,160c.09-.07,8.22-7.37,8.22-12.79a20.1,20.1,0,0,0-.91-5.07c-1.13-4.26-2.42-9.1,2.88-14.3l1.4,1.43c-4.47,4.39-3.44,8.26-2.34,12.36a22,22,0,0,1,1,5.58C346.72,153.52,338.2,161.18,337.83,161.5Z"/>
          <path class="cls-3" d="M345.25,159.07l-1.43-1.39c.07-.07,7.21-7.53,5.92-13.1-1.32-5.72-11.57-12.39-11.68-12.45l1.09-1.68c.45.29,11,7.18,12.54,13.68S345.58,158.74,345.25,159.07Z"/>
          <rect class="cls-3" x="335.61" y="129.41" width="6" height="38.47"/>
          <path class="cls-4" d="M1111.08,788.35H661.58V8.81c56.57,11.62,119.84,35.54,190.19,76.41q15.32,8.9,31.09,18.88,19.2,12.16,36.52,25.31,11.18,8.46,21.61,17.3,10.88,9.19,21,18.76C1184.73,376.46,1127.12,714.08,1111.08,788.35Z"/>
          <path class="cls-4" d="M323,112.33v676L45.16,794.69C15.32,777-12.86,737.56,6.7,685.32c30.3-80.93,188.85-82.83,221.76-182.1,26.08-78.67,4.71-192.52,30.85-285.37q2.13-7.57,4.7-15a197.83,197.83,0,0,1,27.27-52.61l.75-1c4.48-6,9.71-12.73,15.71-19.85C312.37,123.93,317.44,118.2,323,112.33Z"/>
          <rect class="cls-5" x="714.56" y="263.37" width="120.34" height="205.21"/>
          <polygon class="cls-6" points="799.13 263.37 709.77 387.47 709.77 422.5 828.39 263.37 799.13 263.37"/>
          <rect class="cls-5" x="915.36" y="267.29" width="124.32" height="205.21"/>
          <ellipse class="cls-5" cx="612.28" cy="797.89" rx="596.96" ry="10.21"/>
          <rect class="cls-2" x="830.99" y="573.33" width="320.79" height="224.55"/>
          <rect class="cls-5" x="850.27" y="593.86" width="154.46" height="182.85"/>
          <ellipse class="cls-7" cx="926.16" cy="685.28" rx="18.89" ry="21.74"/>
          <g>
            <rect class="cls-5" x="912.87" y="667.88" width="9.89" height="1" transform="translate(75.82 1430.07) rotate(-78.2)"/>
            <rect class="cls-5" x="914.69" y="667.88" width="14.93" height="1" transform="translate(52.9 1404.25) rotate(-76.18)"/>
            <rect class="cls-5" x="919.63" y="669.17" width="16.06" height="1" transform="translate(-96.1 1180.49) rotate(-62.34)"/>
            <rect class="cls-5" x="924.04" y="672.28" width="17.44" height="1" transform="translate(-212.85 774.08) rotate(-40.86)"/>
            <rect class="cls-5" x="927.35" y="679.58" width="17.85" height="1" transform="translate(-107 179.39) rotate(-10.36)"/>
            <rect class="cls-5" x="936.84" y="678.83" width="1" height="17.57" transform="translate(217.22 1600.22) rotate(-87.99)"/>
            <rect class="cls-5" x="934.35" y="687.34" width="1" height="17.56" transform="translate(-74.43 1279.12) rotate(-66.69)"/>
            <polygon class="cls-5" points="924.18 696.14 935.18 705.94 935.85 705.2 924.85 695.39 924.18 696.14"/>
            <rect class="cls-5" x="923.8" y="696.77" width="1" height="11.95" transform="translate(-208.31 447.07) rotate(-24.52)"/>
            <rect class="cls-5" x="918.33" y="697.31" width="1" height="10.07"/>
            <rect class="cls-5" x="911.66" y="700.42" width="7.41" height="1" transform="translate(23.67 1431.71) rotate(-76.78)"/>
            <rect class="cls-5" x="910" y="698.02" width="5.03" height="1" transform="translate(-28.24 1358.52) rotate(-72.49)"/>
          </g>
          <ellipse class="cls-8" cx="918.83" cy="685.28" rx="11.56" ry="13.3"/>
          <rect class="cls-8" x="850.27" y="593.86" width="8.41" height="182.85"/>
          <path class="cls-7" d="M919.38,129.41H653.77l-10.2-44.19h208.2q15.32,8.9,31.09,18.88Q902.06,116.26,919.38,129.41Z"/>
          <path class="cls-7" d="M369.47,85.22l-10.2,44.19H307.74c4.63-5.48,9.7-11.21,15.25-17.08,8.36-8.84,17.77-18,28.28-27.11Z"/>
          <rect class="cls-2" x="706.61" y="165.48" width="42.93" height="14.96"/>
          <path class="cls-2" d="M289,202.89v15H259.31q2.13-7.57,4.7-15Z"/>
          <rect class="cls-2" x="267.56" y="241.76" width="42.93" height="14.96"/>
          <rect class="cls-2" x="755.62" y="198.67" width="48.11" height="14.96"/>
          <rect class="cls-2" x="802.53" y="165.48" width="51.72" height="14.96"/>
          <polygon class="cls-6" points="1004.73 267.29 915.36 391.39 915.36 461.02 1039.68 306.17 1039.68 267.29 1004.73 267.29"/>
          <path class="cls-5" d="M941,146.71,661.81,135.47l-.23-6.06h257.8Q930.56,137.87,941,146.71Z"/>
          <path class="cls-5" d="M323,129.41v25.16l-31-5.31c4.48-6,9.71-12.73,15.71-19.85Z"/>
          <path class="cls-5" d="M428.89,206.63l11.53,4.6S461.63,187,439,179.77l-27.17-.83Z"/>
          <path class="cls-5" d="M413.94,175.21l-16.87,54.65L345.54,206.5h0c-6.81-2.44-12-8.54-14.43-16.3a33,33,0,0,1-1.38-11.6c0-.91.13-1.83.25-2.75,2.09-15.76,14.25-27.15,27.16-25.44a19.82,19.82,0,0,1,4,1h0l.09,0a20.59,20.59,0,0,1,2.83,1.28Z"/>
          <path class="cls-8" d="M391.58,200.44l-4.27,21.43-56.19-31.68a33,33,0,0,1-1.38-11.6Z"/>
          <ellipse class="cls-7" cx="405.66" cy="202.59" rx="28.79" ry="23.58" transform="translate(151.45 578.07) rotate(-82.44)"/>
          <ellipse class="cls-5" cx="407.88" cy="202.59" rx="16.14" ry="13.22" transform="translate(153.39 580.28) rotate(-82.44)"/>
          <path class="cls-8" d="M421,204.33c-1.17,8.84-8,15.23-15.23,14.27-5.73-.76-10-5.88-10.95-12.37a11.82,11.82,0,0,0,7.93,4.86c7.24,1,14.06-5.42,15.23-14.26a19.36,19.36,0,0,0,0-5.38A17.71,17.71,0,0,1,421,204.33Z"/>
          <path class="cls-4" d="M439,179.77c-35.9,0-52.11,32.16-52.11,32.16L380,208.56,324.7,181.49c5.55-38.33,35.5-30.43,35.5-30.43l70.46,25.66h0Z"/>
          <path class="cls-7" d="M620.06,57.74a11.47,11.47,0,0,0-10.72,8v0h0c1.77-8.49,2.15-13.87-3.56-16-4.08-1.53-12.27,5.11-15.48,11.41,1.38-10.19-.12-17.36-7.69-19.41-8.33-2.25-21.31,12.67-24.83,26.46h65.84C625.06,64.4,624.18,57.74,620.06,57.74Z"/>
          <path class="cls-7" d="M553.48,119.42c-8.78,0-20.94,5.11-25.93,19.25v0c4.27-20.53,5.19-33.53-8.62-38.71-9.86-3.7-29.64,12.33-37.4,27.56,3.32-24.61-.3-41.94-18.61-46.9-20.13-5.45-51.5,30.62-60,64H562.07C565.55,135.52,563.44,119.42,553.48,119.42Z"/>
          <ellipse class="cls-5" cx="409.14" cy="203.55" rx="4.54" ry="5.08"/>
          <rect class="cls-5" x="1025.61" y="573.33" width="126.18" height="224.55"/>
        </g>
        <g id="Card">
          <path class="cls-8" d="M687.57,463.8V779.85a17.91,17.91,0,0,1-17.91,17.91H145.44a17.91,17.91,0,0,1-17.91-17.91v-316a17.89,17.89,0,0,1,17.91-17.91H669.66A17.91,17.91,0,0,1,687.57,463.8Z"/>
          <path class="cls-9" d="M687.57,732.21v47.64a17.91,17.91,0,0,1-17.91,17.91H493.24L141.75,446.27a17.9,17.9,0,0,1,3.69-.38H401.25Z"/>
          <rect class="cls-10" x="127.53" y="656.08" width="560.04" height="78.71"/>
          <rect class="cls-11" x="174.26" y="502.57" width="153.98" height="18.92"/>
          <rect class="cls-11" x="174.26" y="546.06" width="229.54" height="18.92"/>
        </g>
        <path id="Shadow" class="cls-12" d="M569.71,445.89l61.87,11.34,7.36,30.38,3.42,12.32L627.05,646.2a33.77,33.77,0,0,0,12.51,29.9l48.36,38.64L683.84,444Z"/>
        <g id="Persona">
          <path class="cls-7" d="M812.75,792.42l4.85,3.47S852,753,857,728.93l-4.38-2.6Z"/>
          <polygon class="cls-13" points="807.02 695.43 840.46 719.73 816.66 738.38 784 720.99 807.02 695.43"/>
          <path class="cls-14" d="M806.24,732.84l5.53-2.77,11.15,3.4,10.68-18.73,19.06,11.59s-14,35.71-39.91,66.09c0,0-5.85-3-7.42-6.84S811.67,749.26,806.24,732.84Z"/>
          <polygon class="cls-15" points="801.89 730.52 825.11 708.58 808.49 696.5 791 724.72 801.89 730.52"/>
          <path class="cls-7" d="M778.31,792.16l-.23,8.13a218.68,218.68,0,0,1-25.42,1.86c-11.91,0-28.55-1.86-28.55-1.86v-6.88Z"/>
          <rect class="cls-13" x="734.83" y="753.12" width="35.59" height="21.59"/>
          <path class="cls-16" d="M645.29,620.6l10.83-125-1.25-8.77,52.76-36.39,8.89,17-2.66,47.79-7.4,100.43,105.74,77.1L791,735.55,663.49,656.82A38.65,38.65,0,0,1,645.29,620.6Z"/>
          <path class="cls-17" d="M800.69,701.94a.46.46,0,0,1-.29-.1L694.73,626.62l3.31-4.29h-8.22l7.26-4.87-4.63-1.24.06-.44L706,511.54a.5.5,0,0,1,.56-.44.51.51,0,0,1,.44.56L693.55,615.48l5.91,1.58-6.36,4.27h7l-3.91,5.08L801,701a.5.5,0,0,1,.12.7A.52.52,0,0,1,800.69,701.94Z"/>
          <polygon class="cls-18" points="791 677.23 787.04 733.1 772.94 724.4 772.94 664.06 791 677.23"/>
          <polygon class="cls-18" points="715.01 621.83 707.86 684.22 732.38 699.36 728.86 631.93 715.01 621.83"/>
          <path class="cls-16" d="M758.06,429.31l2,2.69c13.43,23.16,20.57,57.58,20,84.35L775,757.43H729.76l-18.6-288.92-12.11-13.26L733.9,440Z"/>
          <path class="cls-19" d="M775.24,760l-45.41-.22a4.25,4.25,0,0,1-4.18-3.61L724.1,746a176.71,176.71,0,0,1,25.17.26c11.78,1,30.35,5,30.35,5v4.36A4.36,4.36,0,0,1,775.24,760Z"/>
          <path class="cls-19" d="M816.46,693.64l-22,39.72a4.26,4.26,0,0,1-5.18,1.93l-9.65-3.53a178,178,0,0,1,12.32-22c6.56-9.83,19-24.2,19-24.2l3.82,2.09A4.36,4.36,0,0,1,816.46,693.64Z"/>
          <path class="cls-14" d="M772.94,783.65l-2.53-8.94s-9.84-4.94-17.79-4.94-17.79,4.94-17.79,4.94l-2.45,8.94s-8.28,6.68-8.28,9.76c0,2.07,54,3.75,54,0C778.08,788.54,772.94,783.65,772.94,783.65Z"/>
          <path class="cls-13" d="M798.06,360.23a42.54,42.54,0,0,1-.37,5,54.3,54.3,0,0,1-2.87,11.35c-1.63,4.46-12.19,3.22-15.56,6.95l-4.72,4.56-20.41-18.9-29.85-27.62,29.08-39.91,33.81,33.88,1.54,1.55a36.28,36.28,0,0,1,3.57,4.13A30.19,30.19,0,0,1,798.06,360.23Z"/>
          <path class="cls-13" d="M614.78,374.93l-38.54,71h-6.53A28.26,28.26,0,0,1,553.63,441a28.63,28.63,0,0,1-10.79-33.47,26.26,26.26,0,0,1,1.14-2.7l7.74-15.95,23.89-44Z"/>
          <path class="cls-15" d="M577.22,375.66s4.88,15.17,4.11,25.9l18,1.75,2.52-4.63L595,389.49Z"/>
          <path class="cls-15" d="M739.6,317.46c.66,25.22,16,45.77,16,45.77l-1.2,6.24-30.13-27.38Z"/>
          <path class="cls-20" d="M731.17,347.75l35.73,86.76L653.42,488.75l-6-54.24-15.83-32.4-15.45-20.83s-7.65,10.32-13.07,18.16c0,0-32.71-20.73-40.43-40.34,0,0,17-32.6,24.26-38.43l25-17.08,23.4-11.46L653,284.81s13.43-4.73,20.82-6.68c8-2.11,27.5-6,33.92-3.54a126.91,126.91,0,0,1,53,31.58Z"/>
          <polygon class="cls-21" points="711.34 341.02 732.47 381.28 732.47 450.96 769.08 434.51 750.46 394.58 730.01 344.31 711.34 341.02"/>
          <path class="cls-22" d="M659.69,321.28l-7.12-3.47.85-5.59a1,1,0,0,0-.84-1.14,1,1,0,0,0-1.13.84l-.76,5-4.35-2.12a1,1,0,0,0-.87,1.8l4.91,2.39-1.28,8.44a1,1,0,0,0,.84,1.13l.15,0a1,1,0,0,0,1-.85l1.18-7.82,6.55,3.2a1.21,1.21,0,0,0,.44.1,1,1,0,0,0,.44-1.9Z"/>
          <path class="cls-22" d="M665.93,280.32s8.52,25.94-21.54,36.82c-24,8.86-32.49-13.55-32.49-13.55l4.05-2.07,45-19.63Z"/>
          <path class="cls-13" d="M622,231.58c-3.71-6.35-21.66-36.66-21.66-36.66l-18.93,11.9-21.62,13.6L566.47,231l9.68,33.35a2.9,2.9,0,0,0,2.66,1.81,30.64,30.64,0,0,0,7.7-1L595,284.68a8.63,8.63,0,0,0,2,2.89c2.12,1.92,6.38,4.27,12.45.53a11.25,11.25,0,0,0,1.62-1.22,39,39,0,0,0,4.54-4.84l7.91,14.61h0L616,301.52a21.49,21.49,0,0,0,3.5,4.8c.26.28.52.56.82.84,4.17,4,11.52,8.11,22.64,4.4,13.73-4.75,17.8-13.37,18.69-20.11.06-.4.09-.8.13-1.18a24.29,24.29,0,0,0-.72-8.37l-7.24-1h0l-24.61-36.65h0c-.17-.37-.37-.75-.56-1.13Z"/>
          <path class="cls-15" d="M644.05,301.77a.54.54,0,0,0,.6-.47,3.15,3.15,0,0,1,1.49-2.54l15.44-7.08q0-.62,0-1.2l-15.9,7.3a4.18,4.18,0,0,0-2.11,3.4A.54.54,0,0,0,644.05,301.77Z"/>
          <path class="cls-15" d="M618.51,305.26l16.23-4.2a4.21,4.21,0,0,1,3.78,1.31.56.56,0,0,1,0,.77l-.13.09a.53.53,0,0,1-.63-.09,3.18,3.18,0,0,0-2.76-1l-15.7,4.06Z"/>
          <path class="cls-10" d="M542.14,214.06s7.29,18.7,23.59,15.75c17.37-3.15-3.85-16.2-3.85-16.2Z"/>
          <path class="cls-15" d="M593.75,210.37S580.6,223.72,566.47,231L564.61,228l-4.19-6.61Z"/>
          <path class="cls-15" d="M625.28,243.24a6.31,6.31,0,0,0,5,2.67l-1.1-1.64-.54-1.13Z"/>
          <path class="cls-14" d="M541.54,213.29c2.94,4.07,9,7.77,21,9.42,15.42,2.12,31.24-12.34,31.24-12.34l10.87,4.52,7.61,19.48,9.74.33a98.91,98.91,0,0,0,6.81-13.64h0c4.3-10.57,7.9-25,1.12-34.36a20.16,20.16,0,0,0-6.93-6.25c-10.89-5.71-23,3.32-23,3.32s-4.23-10.49-13.14-4.07-9.73,8.92-12.83,9.25c-1.25.13-4.65-1-9.17-1.83-6.68-1.17-11.86-2.22-20,3.59a14.79,14.79,0,0,0-6.18,12.22A18.61,18.61,0,0,0,541.54,213.29Z"/>
          <path class="cls-10" d="M628.78,221.06h0c4.3-10.57,7.9-25,1.12-34.36a20.16,20.16,0,0,0-6.93-6.25s6.72,6.56,6.22,10.48-3.77,9.45-4.1,13.88c-.71,9.78,3.28,12.47-.69,16.91C620.61,226,628.78,221.06,628.78,221.06Z"/>
          <path class="cls-10" d="M580.91,230.57c-.71-.83,2.4-5.48,5.27-5.35s3.45,1.64,3.45,1.64,7.12-.63,8.57,2.5c0,0,.51.35-1.58.92S582,231.85,580.91,230.57Z"/>
          <path class="cls-10" d="M592.77,244.12a7.9,7.9,0,0,0-2.24-.23,4.35,4.35,0,0,0-.25-2.71c-.61-1.6-1.78-2.65-2.61-2.33s-1,1.88-.39,3.48a5,5,0,0,0,1.24,1.9,6.88,6.88,0,0,0-1.94,1,.5.5,0,0,0-.08.7.49.49,0,0,0,.39.19.45.45,0,0,0,.31-.11,6.53,6.53,0,0,1,5.33-.88.49.49,0,0,0,.6-.36A.51.51,0,0,0,592.77,244.12Z"/>
          <path class="cls-15" d="M628.59,262.63s5.82,14.6-8.61,27.35l-4.3-7.94Z"/>
          <path class="cls-10" d="M592.19,177.62s4.55,4.93-1.07,11.43a.38.38,0,0,0,.45.59,42.45,42.45,0,0,0,8.43-5.88S597.4,177.4,592.19,177.62Z"/>
          <path class="cls-23" d="M543.25,192.05c1.93,2.49,5.58,2.78,12,.91a21.48,21.48,0,0,0,9.66-5.85C557.74,185.86,551.76,184.79,543.25,192.05Z"/>
          <path class="cls-13" d="M628.61,243.14a18.54,18.54,0,0,0,7.23-3.7c6.55-5.09,2.52-14.65-2.44-17.25s-11.26-.45-11.26-.45L622,235.28Z"/>
          <path class="cls-24" d="M629.58,228.16a6,6,0,0,0-6.32,1.37l-.09.09a8.77,8.77,0,0,0-1.46,1.71.5.5,0,0,0,.17.69.48.48,0,0,0,.26.07.51.51,0,0,0,.43-.25,8.07,8.07,0,0,1,.83-1.05l1.86,4.19a.49.49,0,0,0,.45.3.54.54,0,0,0,.21-.05.5.5,0,0,0,.25-.66l-2-4.5a5,5,0,0,1,5.06-1,.5.5,0,0,0,.35-.94Z"/>
          <polygon class="cls-22" points="727.06 337.24 620.03 386.47 631.58 402.11 644.79 428.56 747.65 387.77 727.06 337.24"/>
          <path class="cls-18" d="M714.42,504.83s-9.76-2.71-16-14.56c0,0-.7,22.62,16.19,24.61Z"/>
          <path class="cls-13" d="M789.69,338.23c-.8-.84-1.65-1.67-2.55-2.52-.09-.07-.17-.16-.26-.24l-32.52,32.62-.23,1.12-15.75,77.1h0l-.64,2.14-16.91,12.9a2.13,2.13,0,0,0-.63,2.63,3.58,3.58,0,0,0,4.59,1.76L736.13,461C750.22,475,770,472.18,770,472.18l4.33-15.91h0l20.16-76.35,1.75-6.79a39.19,39.19,0,0,0,1.59-7.77,41.08,41.08,0,0,0,.25-5.13C798,353.44,796.25,345.11,789.69,338.23Z"/>
          <path class="cls-24" d="M753.88,370.4l-.12,0a.5.5,0,0,1-.36-.61l2-7.84a.5.5,0,0,1,1,.25l-2,7.84A.5.5,0,0,1,753.88,370.4Z"/>
          <polygon class="cls-25" points="732.47 345.92 728.59 351.63 711.34 341.02 722.18 327.22 732.47 345.92"/>
          <path class="cls-22" d="M724.28,350a1,1,0,0,1-.85-1.53l30.14-48a1,1,0,1,1,1.69,1.06l-30.13,48A1,1,0,0,1,724.28,350Z"/>
          <path class="cls-22" d="M606.24,395.9a1,1,0,0,1-.59-.19c-23.78-17.28-41.08-40.59-41.25-40.83A1,1,0,0,1,566,353.7c.17.23,17.3,23.3,40.82,40.39a1,1,0,0,1,.22,1.4A1,1,0,0,1,606.24,395.9Z"/>
          <path class="cls-21" d="M616.13,381.28s-10.64-16.8-14.75-25l7.37,35.13Z"/>
          <path class="cls-24" d="M604.51,258.11l-3.31-.18a.5.5,0,0,0-.06,1l1.42.08c-.13,4.47-4.81,7.36-4.85,7.39a.49.49,0,0,0-.17.69.51.51,0,0,0,.43.24.59.59,0,0,0,.25-.07c.22-.13,5.18-3.2,5.34-8.2l.9,0h0a.49.49,0,0,0,.5-.47A.48.48,0,0,0,604.51,258.11Z"/>
          <path class="cls-15" d="M553.63,441a28.63,28.63,0,0,1-10.79-33.47c3.8,3.6,7.33,9.94,9.36,17.6A43.55,43.55,0,0,1,553.63,441Z"/>
          <path class="cls-17" d="M767.38,473.13c-7.29,0-21.7-1.44-31.62-11.76a.5.5,0,0,1,.73-.69c13.34,13.89,35.13,11.27,35.35,11.24a.5.5,0,0,1,.56.43.49.49,0,0,1-.43.56A40.37,40.37,0,0,1,767.38,473.13Z"/>
          <path class="cls-15" d="M644,421.29l2.48-7.29c5.16.18,20.88,4.22,24.62,3.33s10.29-3.09,11.32-2.48c5.29,3.16-2.26,8.43-2.26,8.43l-34.58,3.14Z"/>
          <path class="cls-13" d="M687.62,428c-.53-1.25-10.14-6.77-15.13-7.66s-26-6.37-26-6.37C608.75,404.48,581,400.47,581,400.47l-4.72,45.42h60.35c13.87,6.08,22.59,6,26.25,5.49a4.13,4.13,0,0,0,2.92-1.84l5.67-8.7h2.68a3,3,0,0,0,2.84-2l2.31-6.37,5.77,1.21a2,2,0,0,0,2.31-1.53C687.64,430.67,687.93,428.75,687.62,428Z"/>
          <path class="cls-24" d="M599.21,404.1h-.1a102.37,102.37,0,0,0-18.87-2,.5.5,0,0,1,0-1,103.42,103.42,0,0,1,19.08,2.05.49.49,0,0,1,.38.59A.5.5,0,0,1,599.21,404.1Z"/>
          <path class="cls-24" d="M684.34,434h-.06c-.08,0-7.74-1.38-12.2-2.59a.38.38,0,0,1,.19-.73c4.43,1.2,12.06,2.57,12.14,2.58a.37.37,0,0,1,.3.43A.37.37,0,0,1,684.34,434Z"/>
          <path class="cls-24" d="M657,451.87a.45.45,0,0,1-.16,0,.39.39,0,0,1-.19-.5l7.62-17.12a1.09,1.09,0,0,0,0-1l-.77-1.42a1.9,1.9,0,0,1,.08-2,27,27,0,0,1,5.36-5.78.38.38,0,0,1,.48.58,26.06,26.06,0,0,0-5.21,5.61,1.15,1.15,0,0,0-.05,1.22l.77,1.42a1.86,1.86,0,0,1,.07,1.61l-7.62,17.12A.38.38,0,0,1,657,451.87Z"/>
          <path class="cls-24" d="M672.79,441.21h0l-8.26-.79a.37.37,0,0,1-.34-.41.38.38,0,0,1,.41-.34l8.26.79a.38.38,0,0,1,.34.41A.37.37,0,0,1,672.79,441.21Z"/>
          <path class="cls-24" d="M667.34,447.48H664a.38.38,0,1,1,0-.75h3.38a.38.38,0,1,1,0,.75Z"/>
          <path class="cls-26" d="M636.59,445.89,633.32,444s-23.71,2.31-33.16,1.86Z"/>
          <path class="cls-15" d="M798.06,360.23a41.08,41.08,0,0,1-.25,5.13.43.43,0,0,1-.12-.11c-3.13-2.74-6.2-7.33-8.34-12.92-2.42-6.27-3.11-12.37-2.21-16.62a.37.37,0,0,1,0-.15l1.54,1.55a36.28,36.28,0,0,1,3.57,4.13A30.19,30.19,0,0,1,798.06,360.23Z"/>
          <path class="cls-10" d="M619.47,445.19s-8-26.55,8.85-35.55l-11.77-2.71s-17.08,6.22-8.67,39Z"/>
          <ellipse class="cls-27" cx="612.27" cy="421.28" rx="9.6" ry="8.35" transform="translate(-130.2 454.3) rotate(-37.08)"/>
          <ellipse class="cls-28" cx="611.54" cy="420.31" rx="9.6" ry="7.14" transform="matrix(0.8, -0.6, 0.6, 0.8, -129.76, 453.67)"/>
          <ellipse class="cls-29" cx="611.54" cy="420.31" rx="7.63" ry="5.67" transform="translate(-129.76 453.67) rotate(-37.08)"/>
          <path class="cls-30" d="M617.62,415.71c1,1.4-3.46,1.09-6.82,3.63s-5.32,5.6-5.52,5.31c-1.54-2.1-1.65-6.78,2.63-9.7S615.76,413.2,617.62,415.71Z"/>
          <path class="cls-31" d="M607.14,419.75c-.16.57-.14,1.7-.91,1.77-1,.1-1.3-1.3-1-2.32s1.65-1.76,2.1-1.22S607.3,419.2,607.14,419.75Z"/>
          <path class="cls-13" d="M609.52,288.1a11.25,11.25,0,0,0,1.62-1.22"/>
          <line class="cls-13" x1="653.78" y1="280.92" x2="629.17" y2="244.27"/>
        </g>
      </g>
    </g>
  </g>
</svg>
