<svg xmlns="http://www.w3.org/2000/svg" xmlns:xlink="http://www.w3.org/1999/xlink" viewBox="0 0 1380.14 786.95">
  <defs>
    <style>
      .cls-1 {
        isolation: isolate;
      }

      .cls-2 {
        fill: none;
        stroke: #b3b3b3;
        stroke-miterlimit: 10;
        stroke-width: 9px;
      }

      .cls-3, .cls-73 {
        fill: #f0f4ff;
      }

      .cls-4 {
        fill: #d8e3ff;
      }

      .cls-5 {
        fill: #cddcfd;
      }

      .cls-6 {
        fill: #e6edff;
      }

      .cls-10, .cls-11, .cls-12, .cls-13, .cls-14, .cls-15, .cls-16, .cls-17, .cls-18, .cls-19, .cls-20, .cls-67, .cls-7, .cls-8, .cls-9 {
        opacity: 0.4;
      }

      .cls-7 {
        fill: url(#linear-gradient);
      }

      .cls-10, .cls-11, .cls-12, .cls-13, .cls-14, .cls-18, .cls-19, .cls-67, .cls-8, .cls-9 {
        fill-opacity: 0.18;
      }

      .cls-8 {
        fill: url(#linear-gradient-2);
      }

      .cls-9 {
        fill: url(#linear-gradient-3);
      }

      .cls-10 {
        fill: url(#linear-gradient-4);
      }

      .cls-11 {
        fill: url(#linear-gradient-5);
      }

      .cls-12 {
        fill: url(#linear-gradient-6);
      }

      .cls-13 {
        fill: url(#linear-gradient-7);
      }

      .cls-14 {
        fill: url(#linear-gradient-8);
      }

      .cls-15, .cls-16, .cls-17 {
        fill-opacity: 0.11;
      }

      .cls-15 {
        fill: url(#linear-gradient-9);
      }

      .cls-16 {
        fill: url(#linear-gradient-10);
      }

      .cls-17 {
        fill: url(#linear-gradient-11);
      }

      .cls-18 {
        fill: url(#linear-gradient-12);
      }

      .cls-19 {
        fill: url(#linear-gradient-13);
      }

      .cls-20 {
        fill: url(#linear-gradient-14);
      }

      .cls-21, .cls-22, .cls-23, .cls-24 {
        opacity: 0.15;
      }

      .cls-21 {
        fill: url(#linear-gradient-15);
      }

      .cls-22 {
        fill: url(#linear-gradient-16);
      }

      .cls-23 {
        fill: url(#linear-gradient-17);
      }

      .cls-24 {
        fill: url(#linear-gradient-18);
      }

      .cls-25, .cls-26, .cls-27, .cls-31, .cls-32, .cls-33, .cls-34, .cls-35, .cls-36, .cls-38, .cls-39, .cls-40 {
        opacity: 0.12;
      }

      .cls-25 {
        fill: url(#linear-gradient-19);
      }

      .cls-26 {
        fill: url(#linear-gradient-20);
      }

      .cls-27 {
        fill: url(#linear-gradient-21);
      }

      .cls-28, .cls-29 {
        opacity: 0.08;
      }

      .cls-28 {
        fill: url(#linear-gradient-22);
      }

      .cls-29 {
        fill: url(#linear-gradient-23);
      }

      .cls-30 {
        opacity: 0.22;
        fill: url(#linear-gradient-24);
      }

      .cls-31 {
        fill: url(#linear-gradient-25);
      }

      .cls-32 {
        fill: url(#linear-gradient-26);
      }

      .cls-33 {
        fill: url(#linear-gradient-27);
      }

      .cls-34 {
        fill: url(#linear-gradient-28);
      }

      .cls-35 {
        fill: url(#linear-gradient-29);
      }

      .cls-36 {
        fill: url(#linear-gradient-30);
      }

      .cls-37 {
        opacity: 0.11;
        fill: url(#linear-gradient-31);
      }

      .cls-38 {
        fill: url(#linear-gradient-32);
      }

      .cls-39 {
        fill: url(#linear-gradient-33);
      }

      .cls-40 {
        fill: url(#linear-gradient-34);
      }

      .cls-41 {
        opacity: 0.57;
      }

      .cls-41, .cls-42, .cls-44, .cls-45, .cls-46 {
        mix-blend-mode: overlay;
      }

      .cls-42 {
        fill: url(#linear-gradient-35);
      }

      .cls-43 {
        opacity: 0.14;
        fill: url(#linear-gradient-36);
      }

      .cls-44 {
        opacity: 0.42;
      }

      .cls-45 {
        fill: url(#linear-gradient-37);
      }

      .cls-46 {
        opacity: 0.32;
        fill: url(#linear-gradient-38);
      }

      .cls-47, .cls-72 {
        fill: #fff;
      }

      .cls-48 {
        fill: #c3d3f4;
      }

      .cls-49 {
        fill: #e1e7f7;
      }

      .cls-50 {
        fill: #8cbfe5;
      }

      .cls-51 {
        fill: #fd8b8a;
      }

      .cls-52 {
        fill: #abd2f4;
      }

      .cls-53 {
        fill: #fba09f;
      }

      .cls-54 {
        fill: #4f94f9;
      }

      .cls-55 {
        fill: #1766cf;
        mix-blend-mode: multiply;
      }

      .cls-55, .cls-74 {
        opacity: 0.29;
      }

      .cls-56 {
        fill: #2d429b;
      }

      .cls-57 {
        fill: #4b4f68;
      }

      .cls-58 {
        fill: #70bb92;
      }

      .cls-59 {
        fill: #367450;
      }

      .cls-60, .cls-65 {
        fill: #4d996d;
      }

      .cls-61 {
        fill: #242833;
      }

      .cls-62 {
        fill: #6eaef9;
      }

      .cls-63 {
        fill: #5f668e;
      }

      .cls-64 {
        fill: #c14444;
      }

      .cls-65 {
        opacity: 0.65;
      }

      .cls-66 {
        fill: #f2f2f2;
      }

      .cls-67 {
        fill: url(#linear-gradient-39);
      }

      .cls-68 {
        fill: #ffc333;
      }

      .cls-69 {
        fill: #ffd773;
      }

      .cls-70 {
        fill: #2d2a2c;
      }

      .cls-71 {
        fill: #ff9e0d;
      }

      .cls-72, .cls-73 {
        opacity: 0.7;
      }

      .cls-74 {
        fill: gray;
      }
    </style>
    <linearGradient id="linear-gradient" x1="805.91" y1="54.23" x2="905.57" y2="54.23" gradientUnits="userSpaceOnUse">
      <stop offset="0" stop-color="#7ab3ed"/>
      <stop offset="1" stop-color="#dcedff"/>
    </linearGradient>
    <linearGradient id="linear-gradient-2" x1="905.57" y1="54.23" x2="941.22" y2="54.23" gradientUnits="userSpaceOnUse">
      <stop offset="0" stop-color="#7ab3ed"/>
      <stop offset="1" stop-color="#3d92d8" stop-opacity="0.5"/>
    </linearGradient>
    <linearGradient id="linear-gradient-3" x1="905.57" y1="87.83" x2="941.22" y2="87.83" xlink:href="#linear-gradient-2"/>
    <linearGradient id="linear-gradient-4" x1="905.57" y1="121.43" x2="941.22" y2="121.43" xlink:href="#linear-gradient-2"/>
    <linearGradient id="linear-gradient-5" x1="905.57" y1="155.03" x2="941.22" y2="155.03" xlink:href="#linear-gradient-2"/>
    <linearGradient id="linear-gradient-6" x1="905.57" y1="188.63" x2="941.22" y2="188.63" xlink:href="#linear-gradient-2"/>
    <linearGradient id="linear-gradient-7" x1="905.57" y1="222.22" x2="941.22" y2="222.22" xlink:href="#linear-gradient-2"/>
    <linearGradient id="linear-gradient-8" x1="905.57" y1="255.82" x2="941.22" y2="255.82" xlink:href="#linear-gradient-2"/>
    <linearGradient id="linear-gradient-9" x1="905.57" y1="289.42" x2="941.22" y2="289.42" xlink:href="#linear-gradient-2"/>
    <linearGradient id="linear-gradient-10" x1="905.57" y1="323.02" x2="941.22" y2="323.02" xlink:href="#linear-gradient-2"/>
    <linearGradient id="linear-gradient-11" x1="905.57" y1="356.62" x2="941.22" y2="356.62" xlink:href="#linear-gradient-2"/>
    <linearGradient id="linear-gradient-12" x1="905.57" y1="390.22" x2="941.22" y2="390.22" xlink:href="#linear-gradient-2"/>
    <linearGradient id="linear-gradient-13" x1="905.57" y1="423.81" x2="941.22" y2="423.81" xlink:href="#linear-gradient-2"/>
    <linearGradient id="linear-gradient-14" x1="805.91" y1="87.83" x2="905.57" y2="87.83" xlink:href="#linear-gradient"/>
    <linearGradient id="linear-gradient-15" x1="805.91" y1="121.43" x2="905.57" y2="121.43" xlink:href="#linear-gradient"/>
    <linearGradient id="linear-gradient-16" x1="805.91" y1="155.03" x2="905.57" y2="155.03" xlink:href="#linear-gradient"/>
    <linearGradient id="linear-gradient-17" x1="805.91" y1="188.63" x2="905.57" y2="188.63" xlink:href="#linear-gradient"/>
    <linearGradient id="linear-gradient-18" x1="805.91" y1="222.22" x2="905.57" y2="222.22" xlink:href="#linear-gradient"/>
    <linearGradient id="linear-gradient-19" x1="805.91" y1="255.82" x2="905.57" y2="255.82" xlink:href="#linear-gradient"/>
    <linearGradient id="linear-gradient-20" x1="805.91" y1="289.42" x2="905.57" y2="289.42" xlink:href="#linear-gradient"/>
    <linearGradient id="linear-gradient-21" x1="805.91" y1="323.02" x2="905.57" y2="323.02" xlink:href="#linear-gradient"/>
    <linearGradient id="linear-gradient-22" x1="805.91" y1="356.62" x2="905.57" y2="356.62" xlink:href="#linear-gradient"/>
    <linearGradient id="linear-gradient-23" x1="805.91" y1="390.22" x2="905.57" y2="390.22" xlink:href="#linear-gradient"/>
    <linearGradient id="linear-gradient-24" x1="805.91" y1="423.81" x2="905.57" y2="423.81" xlink:href="#linear-gradient"/>
    <linearGradient id="linear-gradient-25" x1="957.34" y1="223.61" x2="1063.58" y2="223.61" xlink:href="#linear-gradient"/>
    <linearGradient id="linear-gradient-26" x1="957.34" y1="255.82" x2="1063.58" y2="255.82" xlink:href="#linear-gradient"/>
    <linearGradient id="linear-gradient-27" x1="957.34" y1="289.34" x2="1063.58" y2="289.34" xlink:href="#linear-gradient"/>
    <linearGradient id="linear-gradient-28" x1="957.34" y1="323.02" x2="1063.58" y2="323.02" xlink:href="#linear-gradient"/>
    <linearGradient id="linear-gradient-29" x1="957.34" y1="356.7" x2="1063.58" y2="356.7" xlink:href="#linear-gradient"/>
    <linearGradient id="linear-gradient-30" x1="957.34" y1="390.38" x2="1063.58" y2="390.38" xlink:href="#linear-gradient"/>
    <linearGradient id="linear-gradient-31" x1="957.34" y1="406.85" x2="991.9" y2="406.85" gradientUnits="userSpaceOnUse">
      <stop offset="0" stop-color="#535d91"/>
      <stop offset="1" stop-color="#535d91" stop-opacity="0"/>
    </linearGradient>
    <linearGradient id="linear-gradient-32" x1="957.34" y1="424.07" x2="1063.58" y2="424.07" xlink:href="#linear-gradient"/>
    <linearGradient id="linear-gradient-33" x1="957.34" y1="457.75" x2="1063.58" y2="457.75" xlink:href="#linear-gradient"/>
    <linearGradient id="linear-gradient-34" x1="957.34" y1="491.43" x2="1063.58" y2="491.43" xlink:href="#linear-gradient"/>
    <linearGradient id="linear-gradient-35" x1="805.91" y1="97.42" x2="907.54" y2="97.42" gradientUnits="userSpaceOnUse">
      <stop offset="0" stop-color="#fff"/>
      <stop offset="1" stop-color="#fff" stop-opacity="0"/>
    </linearGradient>
    <linearGradient id="linear-gradient-36" x1="855.55" y1="22.85" x2="855.55" y2="182.43" gradientUnits="userSpaceOnUse">
      <stop offset="0" stop-color="#838bc5"/>
      <stop offset="1" stop-color="#fff"/>
    </linearGradient>
    <linearGradient id="linear-gradient-37" x1="805.84" y1="188.08" x2="905.57" y2="188.08" xlink:href="#linear-gradient-35"/>
    <linearGradient id="linear-gradient-38" x1="956.46" y1="311.65" x2="1062.7" y2="311.65" xlink:href="#linear-gradient-35"/>
    <linearGradient id="linear-gradient-39" x1="905.57" y1="457.41" x2="941.22" y2="457.41" xlink:href="#linear-gradient-2"/>
  </defs>
  <title>Chat</title>
  <g class="cls-1">
    <g id="Слой_2" data-name="Слой 2">
      <g id="Chat">
        <g id="Background">
          <line class="cls-2" x1="615.39" y1="466.1" x2="580.95" y2="617.41"/>
          <path class="cls-3" d="M177.71,751.19S92.27,640.86,125.83,526.3,359,479.69,384.16,425.72s20.56-154.94,72.07-266.2c42.48-91.77,184.66-173,323.06-114.06,154.79,65.89,123.88,138.35,187.87,209.41s355.26-30.72,407.71,187.94c29.66,123.67-75.57,223.77-75.57,223.77Z"/>
          <path class="cls-4" d="M195.86,767.21c-3.06-30,1144.07-61.61,1144.07-105.34C1339.93,626.61,503,577,503,577l1.39,24.34s660.64,11.56,660.64,54.13c0,39.49-1039.15,27.69-1162.49,99.83-5.57,3.26-1.3,12.51,5.1,13.38C48.88,774.31,198.5,793,195.86,767.21Z"/>
          <rect class="cls-5" x="283.95" y="262.18" width="12.32" height="483.9"/>
          <rect class="cls-5" x="981.83" y="214.84" width="105.4" height="348.36"/>
          <path class="cls-4" d="M2.23,766c0,26,491.74,20.51,955.11,20.51,375.68,0,374.55-19.25,374.55-19.25S2.23,722.29,2.23,766Z"/>
          <rect class="cls-5" x="841.93" y="19.9" width="99.29" height="540.2"/>
          <rect class="cls-6" x="805.9" y="19.89" width="99.3" height="540.21"/>
          <rect class="cls-7" x="805.91" y="45.46" width="99.67" height="17.54"/>
          <rect class="cls-8" x="905.57" y="45.46" width="35.65" height="17.54"/>
          <rect class="cls-9" x="905.57" y="79.06" width="35.65" height="17.54"/>
          <rect class="cls-10" x="905.57" y="112.66" width="35.65" height="17.54"/>
          <rect class="cls-11" x="905.57" y="146.26" width="35.65" height="17.54"/>
          <rect class="cls-12" x="905.57" y="179.85" width="35.65" height="17.54"/>
          <rect class="cls-13" x="905.57" y="213.45" width="35.65" height="17.54"/>
          <rect class="cls-14" x="905.57" y="247.05" width="35.65" height="17.54"/>
          <rect class="cls-15" x="905.57" y="280.65" width="35.65" height="17.54"/>
          <rect class="cls-16" x="905.57" y="314.25" width="35.65" height="17.54"/>
          <rect class="cls-17" x="905.57" y="347.85" width="35.65" height="17.54"/>
          <rect class="cls-18" x="905.57" y="381.45" width="35.65" height="17.54"/>
          <rect class="cls-19" x="905.57" y="415.04" width="35.65" height="17.54"/>
          <rect class="cls-20" x="805.91" y="79.06" width="99.67" height="17.54"/>
          <rect class="cls-21" x="805.91" y="112.66" width="99.67" height="17.54"/>
          <rect class="cls-22" x="805.91" y="146.26" width="99.67" height="17.54"/>
          <rect class="cls-23" x="805.91" y="179.85" width="99.67" height="17.54"/>
          <rect class="cls-24" x="805.91" y="213.45" width="99.67" height="17.54"/>
          <rect class="cls-25" x="805.91" y="247.05" width="99.67" height="17.54"/>
          <rect class="cls-26" x="805.91" y="280.65" width="99.67" height="17.54"/>
          <rect class="cls-27" x="805.91" y="314.25" width="99.67" height="17.54"/>
          <rect class="cls-28" x="805.91" y="347.85" width="99.67" height="17.54"/>
          <rect class="cls-29" x="805.91" y="381.45" width="99.67" height="17.54"/>
          <rect class="cls-30" x="805.91" y="415.04" width="99.67" height="17.54"/>
          <rect class="cls-6" x="957.34" y="214.84" width="105.4" height="348.36"/>
          <rect class="cls-31" x="957.34" y="214.84" width="106.24" height="17.54"/>
          <rect class="cls-32" x="957.34" y="247.05" width="106.24" height="17.54"/>
          <rect class="cls-33" x="957.34" y="280.57" width="106.24" height="17.54"/>
          <rect class="cls-34" x="957.34" y="314.25" width="106.24" height="17.54"/>
          <rect class="cls-35" x="957.34" y="347.93" width="106.24" height="17.54"/>
          <rect class="cls-36" x="957.34" y="381.61" width="106.24" height="17.54"/>
          <rect class="cls-37" x="957.34" y="214.84" width="34.56" height="384.03"/>
          <rect class="cls-38" x="957.34" y="415.3" width="106.24" height="17.54"/>
          <rect class="cls-39" x="957.34" y="448.98" width="106.24" height="17.54"/>
          <rect class="cls-40" x="957.34" y="482.66" width="106.24" height="17.54"/>
          <path class="cls-4" d="M289.13,747.19S268.9,735.83,273.75,726s21-1.87,21-1.87-45.91-31.47-33.49-53.44c11.61-20.54,65.85,4.87,65.85,4.87s-17.34-32.86-1.33-46.74c12.43-10.77,47.74,12.92,47.74,12.92S362.25,582.34,388.13,583c25.06.62,35.25,41,35.25,41S449,578.07,475.2,591.35s4.85,56.86,4.85,56.86,31.35-13.05,46.22,19.07a73.1,73.1,0,0,1,5.7,42s15.21-2.24,18.58,5.81-11.73,13-11.73,13,30.25,5.28,30.25,22.12Z"/>
          <circle class="cls-3" cx="290.11" cy="208.57" r="43.07"/>
          <path class="cls-6" d="M333.18,208.57a43.1,43.1,0,0,1-56.75,40.84,43.07,43.07,0,0,0,13.24-83.9h.44A43.07,43.07,0,0,1,333.18,208.57Z"/>
          <g class="cls-41">
            <polygon class="cls-42" points="841.93 19.9 905.57 83.21 907.54 174.95 805.91 70.37 805.91 19.9 841.93 19.9"/>
          </g>
          <polygon class="cls-43" points="905.2 21.84 905.2 188.96 805.9 89.66 805.9 19.89 903.25 19.89 905.2 21.84"/>
          <g class="cls-44">
            <polygon class="cls-45" points="805.84 109.48 905.17 211.1 905.57 266.69 806.26 172.08 805.84 109.48"/>
          </g>
          <polygon class="cls-46" points="956.46 214.84 1062.7 214.84 1062.7 408.47 956.46 342.54 956.46 214.84"/>
          <path class="cls-5" d="M298.13,262.18h-15.7a6.18,6.18,0,0,1-5.89-4.32l-3.27-10.3H307l-2.87,10.12A6.19,6.19,0,0,1,298.13,262.18Z"/>
          <path class="cls-47" d="M835.14,84.69c-7,0-16.61,4-20.56,15.26v0h0c3.38-16.28,4.12-26.6-6.84-30.7-7.82-2.94-23.51,9.78-29.66,21.86,2.63-19.53-.24-33.27-14.76-37.2-16-4.33-40.85,24.28-47.58,50.72H842C844.72,97.45,843,84.69,835.14,84.69Z"/>
        </g>
        <g id="Messages">
          <polygon class="cls-48" points="661.37 359.71 414.64 359.71 396.23 268.79 642.95 268.79 661.37 359.71"/>
          <polygon class="cls-4" points="654.64 359.71 407.92 359.71 389.5 268.79 636.23 268.79 654.64 359.71"/>
          <ellipse class="cls-5" cx="465.37" cy="315.6" rx="5.91" ry="7.4" transform="translate(-39.09 67.22) rotate(-7.93)"/>
          <ellipse class="cls-5" cx="485.31" cy="315.7" rx="5.91" ry="7.4" transform="matrix(0.99, -0.14, 0.14, 0.99, -38.91, 69.98)"/>
          <ellipse class="cls-5" cx="504.41" cy="315.7" rx="5.91" ry="7.4" transform="translate(-38.73 72.61) rotate(-7.93)"/>
          <polygon class="cls-49" points="635.93 359.71 631.81 376.43 614.56 359.71 635.93 359.71"/>
          <polygon class="cls-48" points="635.93 227.16 389.2 227.16 370.79 136.24 617.52 136.24 635.93 227.16"/>
          <polygon class="cls-4" points="629.21 227.16 382.48 227.16 364.06 136.24 610.79 136.24 629.21 227.16"/>
          <polygon class="cls-49" points="424.8 227.16 420.68 243.88 403.43 227.16 424.8 227.16"/>
          <polygon class="cls-48" points="607.91 90.92 361.19 90.92 342.77 0 589.5 0 607.91 90.92"/>
          <polygon class="cls-4" points="601.19 90.92 354.46 90.92 336.05 0 582.77 0 601.19 90.92"/>
          <polygon class="cls-49" points="585.56 90.92 581.45 107.64 564.19 90.92 585.56 90.92"/>
          <polygon class="cls-5" points="456.23 159.51 458.15 169.02 520.42 169.02 518.09 159.51 456.23 159.51"/>
          <polygon class="cls-5" points="459.32 176.95 461.25 186.45 555.33 186.45 553 176.95 459.32 176.95"/>
          <polygon class="cls-5" points="462.72 193.94 464.64 203.45 599.3 203.45 596.96 193.94 462.72 193.94"/>
          <polygon class="cls-5" points="400.69 58.25 402.61 67.75 514.54 67.75 512.21 58.25 400.69 58.25"/>
          <polygon class="cls-5" points="374.45 40.71 376.38 50.21 511.04 50.21 508.7 40.71 374.45 40.71"/>
          <polygon class="cls-5" points="371.27 23.17 373.2 32.67 507.85 32.67 505.52 23.17 371.27 23.17"/>
          <polygon class="cls-47" points="434.43 155.94 384.16 155.94 394.84 208.57 444.83 208.57 434.43 155.94"/>
          <polygon class="cls-47" points="616.09 289.34 565.83 289.34 576.5 341.97 626.49 341.97 616.09 289.34"/>
          <polygon class="cls-47" points="570.69 19.15 520.42 19.15 531.1 71.78 581.09 71.78 570.69 19.15"/>
        </g>
        <g id="Persona">
          <rect class="cls-50" x="1006.25" y="527.71" width="177.49" height="9" transform="translate(332.97 1481.73) rotate(-77.17)"/>
          <path class="cls-50" d="M1160.65,635.34H1007.83l-12.58-33.19h152.39a13,13,0,0,1,13,13Z"/>
          <path class="cls-51" d="M900.77,420.58s11.29-.34,14.8,3.88h-12.3Z"/>
          <rect class="cls-50" x="332.32" y="686.7" width="148.62" height="9" transform="translate(-357.6 934.24) rotate(-77.17)"/>
          <line class="cls-50" x1="571.33" y1="615.82" x2="539.16" y2="757.17"/>
          <rect class="cls-50" x="906.76" y="686.51" width="145.47" height="9" transform="translate(182.16 1586.09) rotate(-83.51)"/>
          <path class="cls-52" d="M1011.84,617.31l-4,18H400.18V616.76a14.62,14.62,0,0,1,14.62-14.61H999.68A12.46,12.46,0,0,1,1011.84,617.31Z"/>
          <polygon class="cls-52" points="1160.03 543.79 1152.25 576.99 488.98 576.99 497.5 543.79 1160.03 543.79"/>
          <path class="cls-50" d="M719.41,602.15h26.93s-20,29.54-25.42,33.19c-5.29,1.24-162.3,1.24-162.3,1.24l12.71-34.43Z"/>
          <polygon class="cls-50" points="788.75 543.79 783.82 576.99 656.03 576.99 656.43 573.9 679.77 543.79 788.75 543.79"/>
          <polygon class="cls-52" points="1174.1 483.78 1166.32 516.97 503.04 516.97 511.05 483.78 1174.1 483.78"/>
          <polygon class="cls-50" points="804.48 483.78 795.28 516.97 699.66 516.97 725.4 483.78 804.48 483.78"/>
          <polygon class="cls-52" points="1188.01 424.45 1180.23 457.64 516.17 457.64 523.16 424.45 1188.01 424.45"/>
          <polygon class="cls-50" points="897.82 424.55 840.98 435.32 838.16 439.09 824.98 442.81 818.55 457.64 748.82 457.64 770.65 424.45 897.82 424.55"/>
          <polygon class="cls-53" points="524.35 704.2 512.11 738.34 473.06 738.34 491.13 704.2 524.35 704.2"/>
          <polygon class="cls-53" points="618.46 704.2 604.33 738.07 566.71 740.14 581.46 705.48 618.46 704.2"/>
          <polyline class="cls-53" points="659.89 446.85 644.68 504.06 680.92 513.09 704.46 444.66 659.89 446.85"/>
          <path class="cls-54" d="M671.82,530.32H576.3a38.63,38.63,0,0,0-35.48,23.35L479.29,706.26l47.07,7.27L584,602.15H616.3Z"/>
          <path class="cls-47" d="M516.17,704a.46.46,0,0,1-.23-.05.5.5,0,0,1-.22-.67l58.12-115.81a27,27,0,0,1,21.87-14.85l68.87-6.06a.5.5,0,0,1,.09,1L595.8,573.6a25.93,25.93,0,0,0-21.06,14.3L516.61,703.71A.49.49,0,0,1,516.17,704Z"/>
          <polygon class="cls-55" points="587.77 530.35 666.97 530.4 650.38 602.4 600.48 602.4 587.77 530.35"/>
          <path class="cls-54" d="M698.05,530.32H669.58a44,44,0,0,0-40.27,26.19l-55.7,151.67,47.73,7.6,59.57-112H730a41.39,41.39,0,0,0,41.11-36.6l.89-7.67h0l2.78-23.81.62-5.35Z"/>
          <path class="cls-56" d="M680.92,604.76a1,1,0,0,1-.89-1.47l7.81-14.77a1,1,0,0,1,1.77.94l-7.81,14.76A1,1,0,0,1,680.92,604.76Z"/>
          <path class="cls-56" d="M583.39,604.08a1,1,0,0,1-.47-.11,1,1,0,0,1-.41-1.36l7.8-14.76a1,1,0,0,1,1.77.93l-7.81,14.77A1,1,0,0,1,583.39,604.08Z"/>
          <path class="cls-57" d="M604.33,738.07s.29,13-.12,18.47H529.73s-1.72-9.82,6.83-11,23.29-6.47,23.29-6.47l13.86-14.51,6.72,2.3c2.7.93,5.48,1.89,5.32,5.06v4.8Z"/>
          <path class="cls-57" d="M511.39,737.7s.29,13-.11,18.47H436.79s-1.72-9.82,6.83-11,23.29-6.48,23.29-6.48l13.87-14.51,6.71,2.31c2.71.93,5.48,1.88,5.32,5.06v4.8Z"/>
          <path class="cls-53" d="M968.78,424.45l6.21,7,12.1,4.58a4.54,4.54,0,0,0,5.13-1.36l0-.06a2.78,2.78,0,0,0-.48-4l-8-6H999.5l16,10.71a2.44,2.44,0,0,0,2.67-4.08l-7.05-4.78h1.71l5.72,3a1.74,1.74,0,0,0,1.57,0h0a1.76,1.76,0,0,0,.39-2.94c-2.16-1.82-5.61-4.71-8.51-7.11-13.84-16.48-42.34-15.52-42.34-15.52h0s-51.35-14.07-80.26-14.5l-85.35-2.5-3.18,45.28L903,424.55l0-.1"/>
          <path class="cls-53" d="M759.06,329.07c-1.51-6.63-9-38.33-9-38.33l-20,5.28-22.84,6,1.22,11.36,5.39,35.36,4.21,18.52a7.84,7.84,0,0,0,1,3.12c1.34,2.28,3.45,8.68,13.35,5.09.12-.05.27-.09.4-.13l-.73,14.58.13.05-.18,0-7.3,1.36,1.43,16.81,31.07-1.25,17.11-19.06h-11l.11-.07-1.37-42.42c0-.08,0-.16,0-.24l-.05-1.65,0,0c-.07-.78-.18-1.59-.32-2.43Z"/>
          <path class="cls-58" d="M705.17,394.73s-8.23,3.24-14,5.92c-21.76,10-36.91,53.15-36.91,53.15l30.31,7Z"/>
          <path class="cls-59" d="M688.32,455.85h-.12L656.68,448a.5.5,0,0,1-.37-.61.51.51,0,0,1,.61-.36l31.52,7.82a.5.5,0,0,1,.37.6A.5.5,0,0,1,688.32,455.85Z"/>
          <path class="cls-58" d="M837.67,384.48l-10,50.92-25.07,5.09s-18.47,64.78-26.34,95.25L658.8,530.32l46.38-135.59,8.53-1.76,7.27-1.46,4.66-.31c3.1,23.83,33.12,19.64,44.36-3.33l3.11-.64,1.39-.29s30.88-2.35,61-2.45Z"/>
          <path class="cls-60" d="M836.08,386.15c0,5-14.15,9.08-31.6,9.08-16.18,0-29.52-3.49-31.37-8l1.39-.29s30.88-2.35,61-2.45A3,3,0,0,1,836.08,386.15Z"/>
          <path class="cls-59" d="M745.68,420.53l-4-5.86L744,412a1,1,0,0,0-1.49-1.33l-2,2.27-1.57-2.3a1,1,0,0,0-1.39-.26,1,1,0,0,0-.26,1.39l1.85,2.7-4.72,5.31a1,1,0,0,0,1.49,1.33l4.4-4.94,3.74,5.46a1,1,0,0,0,.83.43,1,1,0,0,0,.56-.17A1,1,0,0,0,745.68,420.53Z"/>
          <polygon class="cls-47" points="604.21 756.54 604.21 763.66 529.52 763.66 529.73 756.54 604.21 756.54"/>
          <polygon class="cls-47" points="511.27 756.17 511.27 763.28 436.58 763.28 436.79 756.17 511.27 756.17"/>
          <path class="cls-59" d="M686,450.81a.51.51,0,0,1-.17,0,.5.5,0,0,1-.3-.64l5.41-15a.5.5,0,0,1,.94.34l-5.41,15A.5.5,0,0,1,686,450.81Z"/>
          <path class="cls-61" d="M716.8,533l-47.54-2.21-4.65-11.92L724,521.27l-.17,4.35C723.62,529.79,721,533.2,716.8,533Z"/>
          <polygon class="cls-60" points="802.55 440.49 793.28 441.65 756.38 534.83 776.21 535.74 802.55 440.49"/>
          <polygon class="cls-59" points="800.75 446.85 686.08 448.96 671.05 493.24 786.54 497.34 800.75 446.85"/>
          <path class="cls-59" d="M823.32,436.29h-.07a.49.49,0,0,1-.43-.56c3.3-23.42,9-51.06,9-51.34a.51.51,0,0,1,.59-.39.5.5,0,0,1,.39.59c-.06.28-5.74,27.9-9,51.28A.5.5,0,0,1,823.32,436.29Z"/>
          <path class="cls-62" d="M621.07,716.58l-47.14-7.74a6.54,6.54,0,0,1-5.32-8L571,690.6,627.69,712l-.37,1A5.69,5.69,0,0,1,621.07,716.58Z"/>
          <path class="cls-62" d="M525.7,714.17,482,707.67a6.56,6.56,0,0,1-5.32-8l2.41-10.29,53.19,20.16-.37,1A5.68,5.68,0,0,1,525.7,714.17Z"/>
          <path class="cls-47" d="M610.76,706.1a.49.49,0,0,1-.23-.06.5.5,0,0,1-.22-.67L672.22,582a27.28,27.28,0,0,1,27-14.82l70.21,7.24a.5.5,0,0,1,.44.55.49.49,0,0,1-.54.45l-70.21-7.25a26.27,26.27,0,0,0-26,14.28L611.21,705.82A.5.5,0,0,1,610.76,706.1Z"/>
          <path class="cls-59" d="M774.5,386.94c-8.22,19.38-19.8,24.48-33.61,24.48-17.22,0-19.9-19.36-19.91-19.91l4.66-.31c3.87,22.09,32.53,20,44.36-3.33Z"/>
          <path class="cls-51" d="M756.61,358.28s-2,28.1-24.41,29.52l.67-13.18Z"/>
          <path class="cls-61" d="M693.42,291.55s1.28,18.52,16.47,20.41c16.19,2,1.07-15.35,1.07-15.35Z"/>
          <path class="cls-51" d="M758.72,340.26a4.65,4.65,0,0,0,3.17,3.73l0-1.75-.17-1.14Z"/>
          <path class="cls-51" d="M740,302.55s-17,8.35-31.5,10.85l-.35-3.2-.61-7.1Z"/>
          <path class="cls-57" d="M693.11,290.7c1.47,4.41,5.81,9.35,15.9,14.11,13,6.12,31-2.26,31-2.26l8.34,7,1.34,19.29,8.5,3a90.69,90.69,0,0,0,9.78-10.15h0c6.71-8.14,13.86-19.83,10.48-30a18.71,18.71,0,0,0-4.39-7.44c-8-8-21.19-3.41-21.19-3.41s-.83-10.43-10.48-7.22-11,5.18-13.87,4.61c-1.14-.22-3.81-2.19-7.58-4.14-5.58-2.88-9.86-5.24-18.62-2.36a13.71,13.71,0,0,0-8.82,9.08A17.16,17.16,0,0,0,693.11,290.7Z"/>
          <path class="cls-61" d="M725.75,316.82c-.4-.93,3.63-4.17,6.13-3.26s2.58,2.4,2.58,2.4,6.46,1.41,6.87,4.57c0,0,.36.45-1.64.38S726.36,318.26,725.75,316.82Z"/>
          <path class="cls-61" d="M733.73,332.13a7.25,7.25,0,0,0-1.92-.82,3.89,3.89,0,0,0,.59-2.53c-.1-1.59-.84-2.84-1.66-2.78s-1.4,1.38-1.3,3a4.32,4.32,0,0,0,.63,2.11,6,6,0,0,0-2,.3.38.38,0,0,0-.22.49.38.38,0,0,0,.49.21,6.09,6.09,0,0,1,5,.7.36.36,0,0,0,.2.06.4.4,0,0,0,.32-.18A.38.38,0,0,0,733.73,332.13Z"/>
          <path class="cls-61" d="M778.27,290.8a19.12,19.12,0,0,0-5-7.31s2.92,7.4,2.21,11c-.87,4.43-6.19,7.54-7.6,11.4-3.1,8.52-1.33,11.6-6,14.55l-.51,1.55c1.72.41,6.57-.33,6.57-.33l.67-.57C775.11,312.76,781.93,300.87,778.27,290.8Z"/>
          <path class="cls-53" d="M761.69,341.09a17,17,0,0,0,7.4-1.27c7.19-2.68,6.27-12.22,2.61-15.89s-9.81-3.5-9.81-3.5l-3.73,11.38Z"/>
          <path class="cls-61" d="M747.65,273.22s2.65,5.61-4.1,9.79a.35.35,0,0,0,.24.65,39.19,39.19,0,0,0,9.06-2.86S752.31,274.47,747.65,273.22Z"/>
          <path class="cls-63" d="M700.48,272.43c1,2.73,4.16,4,10.29,4.11a19.92,19.92,0,0,0,10.15-2.49C715,271,710,268.38,700.48,272.43Z"/>
          <path class="cls-64" d="M718.35,344.29a2.55,2.55,0,0,1-1.87-.64c-.72-.7-1.05-2-1.05-4l.51-27.51a.55.55,0,0,1,.51-.49.49.49,0,0,1,.49.51l-.51,27.5c0,1.72.24,2.8.74,3.29a1.81,1.81,0,0,0,1.4.36l6.81-1.36a.5.5,0,0,1,.59.39.49.49,0,0,1-.39.59l-6.89,1.37Z"/>
          <path class="cls-61" d="M715.37,331.53a.38.38,0,0,0-.48-.24l-.57.2a3.33,3.33,0,0,0,.38-1.89c-.08-1.27-.68-2.27-1.33-2.23s-1.12,1.11-1,2.38a2.73,2.73,0,0,0,.91,2.1l-.72.25a.37.37,0,0,0-.24.47.38.38,0,0,0,.36.26l.12,0,2.37-.8A.38.38,0,0,0,715.37,331.53Z"/>
          <path class="cls-61" d="M711.75,315.24s.41,3.58,0,4.52a18.54,18.54,0,0,1-1.94,2.79l-1.1-2.11a2.73,2.73,0,0,1-.23-1.9A4.15,4.15,0,0,1,711.75,315.24Z"/>
          <path class="cls-53" d="M644.11,474.07s23-8.22,38.56-2.67c5.14,2.46,14.67,17.9,7.84,34.48a5.07,5.07,0,0,1-1,1.15,2.75,2.75,0,0,1-4.54-2.1c0-3.8-.11-11.72-.85-14.36,0,0,1.27,4.82-2.08,5.12-5.41.48-5.8-1-5.8-1s-1.31,1.75-4.69,1.87a29.46,29.46,0,0,1-4.54-.42s-11,3.81-13.27-1.8Z"/>
          <path class="cls-64" d="M651.72,472.38a.52.52,0,0,1-.48-.33.51.51,0,0,1,.31-.64A48.55,48.55,0,0,1,671.16,469a.5.5,0,1,1-.12,1,47.59,47.59,0,0,0-19.16,2.37Z"/>
          <path class="cls-53" d="M685.89,474.07s11.55,5.22,11.61,11.31c0,3.75-7.19,6.37-7.19,6.37L685,479.61Z"/>
          <path class="cls-64" d="M692.89,491.07h-.08a.5.5,0,0,1-.42-.57,9.89,9.89,0,0,0-1.56-6.35.5.5,0,0,1,.84-.54,10.75,10.75,0,0,1,1.71,7A.5.5,0,0,1,692.89,491.07Z"/>
          <path class="cls-61" d="M669.53,530.81l-105.36-.46L531.92,436.6a6.67,6.67,0,0,1,6.31-8.84h97.58a6.67,6.67,0,0,1,6.43,4.89Z"/>
          <path class="cls-57" d="M657.86,530.35H560.79a5.39,5.39,0,0,1-5.09-3.63l-31-90.12a6.67,6.67,0,0,1,6.31-8.84h97.58a6.68,6.68,0,0,1,6.43,4.89l26,93.55A3.27,3.27,0,0,1,657.86,530.35Z"/>
          <path class="cls-51" d="M832.6,410.13s19.68,12.19,67.72,10.53l2.51,3.92-74.17,5.55Z"/>
          <g>
            <line class="cls-64" x1="902.97" y1="424.45" x2="897.67" y2="415.14"/>
            <path class="cls-64" d="M903,425a.5.5,0,0,1-.43-.25l-5.31-9.31a.5.5,0,0,1,.19-.68.51.51,0,0,1,.68.19l5.31,9.3a.5.5,0,0,1-.19.68A.47.47,0,0,1,903,425Z"/>
          </g>
          <polygon class="cls-51" points="487.17 711.68 517.42 723.53 521.03 713.47 488.76 708.67 487.17 711.68"/>
          <polygon class="cls-51" points="578.17 713.22 609.59 725.46 613.79 715.38 579.63 709.78 578.17 713.22"/>
          <path class="cls-51" d="M970.15,424.46s-3.25-3.66-4.92-5.8v5.79Z"/>
          <polygon class="cls-50" points="1188.01 424.45 1196.15 424.45 1188.54 457.64 1180.23 457.64 1188.01 424.45"/>
          <polygon class="cls-50" points="1173.75 483.78 1181.89 483.78 1174.29 516.97 1165.97 516.97 1173.75 483.78"/>
          <polygon class="cls-50" points="1159.49 543.79 1167.63 543.79 1160.03 576.99 1151.71 576.99 1159.49 543.79"/>
          <path class="cls-64" d="M676.28,495.22a.51.51,0,0,1-.5-.49l-.1-3.72a.49.49,0,0,1,.48-.51h0a.5.5,0,0,1,.5.48l.1,3.72a.51.51,0,0,1-.49.52Z"/>
          <path class="cls-64" d="M684.45,494.11a.5.5,0,0,1-.5-.48l-.09-3.73a.5.5,0,0,1,.48-.51h0a.51.51,0,0,1,.5.49l.09,3.72a.5.5,0,0,1-.48.51Z"/>
          <path class="cls-64" d="M667.05,496.67a.5.5,0,0,1-.5-.5v-5.12a.5.5,0,1,1,1,0v5.12A.5.5,0,0,1,667.05,496.67Z"/>
          <path class="cls-64" d="M737.43,347.15,735,345.31a.5.5,0,1,0-.6.8l1,.76C733,350.19,728,350,727.91,350a.49.49,0,0,0-.52.47.51.51,0,0,0,.48.53h.3c1.2,0,5.64-.24,8-3.53l.63.48a.5.5,0,0,0,.7-.1A.5.5,0,0,0,737.43,347.15Z"/>
          <rect class="cls-50" x="1099.98" y="617.47" width="9" height="149.72" transform="translate(-169.49 416.27) rotate(-19.85)"/>
          <path class="cls-55" d="M774.75,535.67,772,559.48h0l-.89,7.67A41.39,41.39,0,0,1,730,603.76h-18c47.25-22.92,44.45-68.93,44.45-68.93Z"/>
          <path class="cls-64" d="M766.7,328.11c-3.07-2.35-6.26-.53-7.42.28l-.37,1.14a.49.49,0,0,0,.59,0s.16-.14.36-.29l.47,4.19a.49.49,0,0,0,.5.44h0a.5.5,0,0,0,.44-.55l-.51-4.67a4.71,4.71,0,0,1,5.28.3.51.51,0,0,0,.7-.1A.5.5,0,0,0,766.7,328.11Z"/>
        </g>
        <g id="Plant">
          <path class="cls-58" d="M1331.89,767.2,1104.48,767s-20.24-27.88-5.94-42.85a18.4,18.4,0,0,1,4-3.15c14.76-8.83,39.28,3.15,39.28,3.15s-13.92-52.6,5.23-67a13.33,13.33,0,0,1,1.36-.9c19.6-11.44,61.37,28.47,61.37,28.47s12.77-71.7,44.32-71.77a24.73,24.73,0,0,1,3.16.19c36.45,4.48,20.48,88.68,20.48,88.68s34.79-25.18,55.43-18.61a17.86,17.86,0,0,1,7.3,4.36c17.86,17.65-10.46,54.27-11.83,56l0,.06s15.21-2.38,19,7.6S1331.89,767.2,1331.89,767.2Z"/>
          <path class="cls-65" d="M1144.6,737.15c-18.9-18.47-41.29-16.29-42.09-16.2,14.76-8.83,39.28,3.15,39.28,3.15Z"/>
          <path class="cls-66" d="M1235.13,768.21H1235a1,1,0,0,1-.85-1.14L1247.69,677a1,1,0,1,1,2,.3l-13.55,90.05A1,1,0,0,1,1235.13,768.21Z"/>
          <path class="cls-66" d="M1200.2,768.06a1,1,0,0,1-.92-.6l-21.74-50.66a1,1,0,1,1,1.84-.79l21.74,50.66a1,1,0,0,1-.52,1.31A1,1,0,0,1,1200.2,768.06Z"/>
          <path class="cls-66" d="M1272.2,768.06a1,1,0,0,1-.6-.2,1,1,0,0,1-.19-1.4l33.86-44.88a1,1,0,1,1,1.59,1.2L1273,767.66A1,1,0,0,1,1272.2,768.06Z"/>
          <path class="cls-66" d="M1294.76,738.16a1,1,0,0,1-1-.85l-3.32-20.75a1,1,0,0,1,.83-1.15,1,1,0,0,1,1.15.83l3.31,20.76a1,1,0,0,1-.83,1.14Z"/>
          <path class="cls-66" d="M1245.13,701.72a1,1,0,0,1-.87-.51,1,1,0,0,1,.39-1.36l12.09-6.78a1,1,0,0,1,1,1.75l-12.1,6.77A1,1,0,0,1,1245.13,701.72Z"/>
          <path class="cls-66" d="M1186.11,735.94h-15.3a1,1,0,0,1,0-2h15.3a1,1,0,0,1,0,2Z"/>
          <path class="cls-66" d="M1188.35,740.45a.91.91,0,0,1-.39-.08,1,1,0,0,1-.53-1.31l11.85-28a1,1,0,0,1,1.31-.53,1,1,0,0,1,.53,1.31l-11.84,28A1,1,0,0,1,1188.35,740.45Z"/>
          <path class="cls-66" d="M1136.76,768.21a1,1,0,0,1-.87-.51l-14.44-25.48a1,1,0,0,1,.37-1.36,1,1,0,0,1,1.37.38l14.44,25.47a1,1,0,0,1-.38,1.37A1.05,1.05,0,0,1,1136.76,768.21Z"/>
          <path class="cls-66" d="M1126.92,750.84h-8.22a1,1,0,0,1,0-2h8.22a1,1,0,0,1,0,2Z"/>
          <path class="cls-65" d="M1277.71,701.76l-11,6.92c14.45-77.47-9.51-95.6-9.51-95.6C1293.68,617.56,1277.71,701.76,1277.71,701.76Z"/>
          <path class="cls-65" d="M1328.61,743.53l0,.06-10,4.21c25.66-39.29,14.58-64.65,14.58-64.65h0a17.86,17.86,0,0,1,7.3,4.36C1358.3,705.16,1330,741.78,1328.61,743.53Z"/>
          <path class="cls-65" d="M1208.29,697.33c-39.93-48.36-59.91-41.13-59.91-41.13h0c19.6-11.44,61.37,28.47,61.37,28.47Z"/>
        </g>
        <g id="Backpack">
          <rect class="cls-67" x="905.57" y="448.64" width="35.65" height="17.54"/>
          <path class="cls-61" d="M941.1,449.18c5.73,2,14.82,3.39,14.82,70.25,0,27.61-20.07-61.61-20.07-61.61S935.38,447.17,941.1,449.18Z"/>
          <path class="cls-61" d="M882.41,446.61c5.86,1.59,15.07,3.41,15.07,70.27,0,27.61-20.06-61.61-20.06-61.61S878,445.43,882.41,446.61Z"/>
          <path class="cls-68" d="M939.07,475.74l-26.58-17.61.46-1.42,2.52-7.78a4.08,4.08,0,0,1,3.6-2.83,48.74,48.74,0,0,1,5.63-.09,57,57,0,0,1,16.4,3.16S935.07,449.63,939.07,475.74Z"/>
          <path class="cls-69" d="M921.75,458.55l-8.8-1.84,2.52-7.78a4.08,4.08,0,0,1,3.6-2.83,48.74,48.74,0,0,1,5.63-.09C919.58,446.52,921.75,458.55,921.75,458.55Z"/>
          <path class="cls-57" d="M942.13,602.15H850v-94.4a53,53,0,0,1,52.5-52.94H903a53,53,0,0,1,52.95,52.95v80.61A13.78,13.78,0,0,1,942.13,602.15Z"/>
          <path class="cls-70" d="M905.2,454.83s-18-1.4-25.84,0l3.66,3Z"/>
          <path class="cls-68" d="M884.9,477.06l-29.37-8.64,1-7.47L858,449.61s3.7-3.24,11.39-4a0,0,0,0,1,0,0,39.54,39.54,0,0,1,13,1S878.35,452,884.9,477.06Z"/>
          <path class="cls-69" d="M869.42,445.6c-7.82,1.16-6.77,11.89-6.77,11.89l-5.51,3.75-.62-.29L858,449.61S861.73,446.37,869.42,445.6Z"/>
          <path class="cls-68" d="M932.31,507.75v78.41a16,16,0,0,1-16,16H842.4a16,16,0,0,1-16-16V507.75a52.94,52.94,0,0,1,52.25-52.94h.7a53,53,0,0,1,52.95,52.95Z"/>
          <path class="cls-71" d="M932.31,554.51v31.65a16,16,0,0,1-16,16h-64l-15.88-13.27,79.12-46Z"/>
          <path class="cls-61" d="M858.43,535.46h41.95a19.2,19.2,0,0,1,19.2,19.2v30.81a3.41,3.41,0,0,1-3.41,3.41H858.43a3.41,3.41,0,0,1-3.41-3.41v-46.6A3.41,3.41,0,0,1,858.43,535.46Z"/>
          <path class="cls-72" d="M945.72,524.55v-16.2c0-33.47-21.43-53.45-57.31-53.45a77.23,77.23,0,0,0-15.47,1.74c-10.88,2.38-18.51,6.93-22.06,13.15l.87.5c8.26-14.48,36.36-14.39,36.66-14.39,35.26,0,56.31,19.61,56.31,52.45v16.24a1.54,1.54,0,0,0-1,1.44v3.47a1.55,1.55,0,0,0,3.1,0V526A1.55,1.55,0,0,0,945.72,524.55Z"/>
          <rect class="cls-61" x="862.06" y="481.77" width="30.72" height="14.57" rx="1.17"/>
          <path class="cls-73" d="M915.3,573.91a.36.36,0,0,1-.37-.37V555.06a18.05,18.05,0,0,0-18.46-18.46l-22.3.52a.38.38,0,1,1,0-.75l22.3-.52a18.79,18.79,0,0,1,19.22,19.21v18.48A.37.37,0,0,1,915.3,573.91Z"/>
          <path class="cls-57" d="M911.52,554.79v30a4.06,4.06,0,0,1-4.06,4.06h-71a4.06,4.06,0,0,1-4.06-4.06v-30a19.33,19.33,0,0,1,19.33-19.33h40.47A19.33,19.33,0,0,1,911.52,554.79Z"/>
          <path class="cls-69" d="M878.66,454.81c-1.55.52-50,6.44-52.25,94V507.75A52.94,52.94,0,0,1,878.66,454.81Z"/>
          <path class="cls-74" d="M858.42,535.46s-26,8.36-26,36V554.79a19.33,19.33,0,0,1,19.33-19.33Z"/>
        </g>
      </g>
    </g>
  </g>
</svg>
