<svg xmlns="http://www.w3.org/2000/svg" viewBox="0 0 1221.04 858.5">
  <defs>
    <style>
      .cls-1 {
        fill: #f0f4ff;
      }

      .cls-2 {
        fill: #fff;
      }

      .cls-3 {
        fill: #e6edff;
      }

      .cls-4 {
        fill: #d8e3ff;
      }

      .cls-5 {
        fill: #d0e7ff;
      }

      .cls-6 {
        fill: #c5e1f9;
      }

      .cls-7 {
        fill: #4d996d;
      }

      .cls-8 {
        fill: #70bb92;
      }

      .cls-11, .cls-34, .cls-9 {
        fill: #f2f2f2;
      }

      .cls-10 {
        fill: #e6e6e6;
      }

      .cls-11 {
        opacity: 0.66;
      }

      .cls-12 {
        fill: #fba09f;
      }

      .cls-13 {
        fill: #65475f;
      }

      .cls-14 {
        fill: #838bc5;
      }

      .cls-15 {
        fill: #535d91;
      }

      .cls-16 {
        fill: #606eb2;
        opacity: 0.56;
      }

      .cls-17 {
        fill: #a2acdb;
      }

      .cls-18 {
        fill: #999aaf;
      }

      .cls-19 {
        fill: #242833;
      }

      .cls-20 {
        fill: #fd8b8a;
      }

      .cls-21 {
        fill: #c14444;
      }

      .cls-22 {
        fill: #5f668e;
      }

      .cls-23 {
        fill: #7c7f99;
      }

      .cls-24 {
        fill: #4f94f9;
      }

      .cls-25 {
        fill: #6eaef9;
      }

      .cls-26 {
        fill: #4b4f68;
      }

      .cls-27 {
        fill: #1766cf;
        opacity: 0.65;
      }

      .cls-28 {
        fill: #2d429b;
      }

      .cls-29 {
        fill: #367450;
      }

      .cls-30 {
        fill: #f4b822;
      }

      .cls-31 {
        fill: #ffce45;
      }

      .cls-32 {
        fill: #bddbff;
      }

      .cls-33 {
        fill: #d4eaff;
      }

      .cls-34 {
        opacity: 0.63;
      }

      .cls-35 {
        fill: #ffc333;
      }

      .cls-36 {
        fill: #ff9e0d;
      }
    </style>
  </defs>
  <title>Success</title>
  <g id="Слой_2" data-name="Слой 2">
    <g id="Success">
      <g id="Background">
        <path class="cls-1" d="M1141.59,847.57c-1.51,1.56-2.35,2.36-2.35,2.36L650,850.67l-516.84.78-1.72-1.4c-17.16-14.29-156-135.19-127.6-282.36a340,340,0,0,1,9.71-38.56c22.91-72.14,51-103.32,90.69-138.21,66.93-58.78,123.69-166.39,180.35-249.37C393.86-18.51,750.23-36.69,836.13,56.14,963,193.24,802.34,247.07,1126.92,464.05c67.24,44.95,83.43,112.49,91.37,162.68C1236.78,743.65,1156.54,832.24,1141.59,847.57Z"/>
        <circle class="cls-2" cx="652.53" cy="583.08" r="88.08"/>
        <path class="cls-3" d="M1169.75,813.09h0a283.65,283.65,0,0,1-28.14,34.48L355.19,838.8,914.47,471.92a46.41,46.41,0,0,1,49.63-.78l254.18,155.57h0C1231,707.1,1197.06,774.09,1169.75,813.09Z"/>
        <path class="cls-3" d="M874.67,849.89l-49.82.33-174,1.17-518.56-.63c-17.16-14.29-156-135.18-127.6-282.35a340.71,340.71,0,0,1,9.71-38.57l252.7-193.5A35.77,35.77,0,0,1,314,339.28Z"/>
        <path class="cls-4" d="M873.78,849.17,824,849.5l-309.24-8.92-46.37-76,14.86-34.21L369.12,589.46,325.52,552,387,475.86l-61.45-44.2L289.15,328.28a35.66,35.66,0,0,1,23.93,10.28Z"/>
        <ellipse class="cls-5" cx="644.67" cy="849.23" rx="562.59" ry="9.27"/>
        <line class="cls-6" x1="658.04" y1="711.18" x2="637.49" y2="651.8"/>
        <path class="cls-2" d="M271.84,385.14c-7.59,0-18.11,4.41-22.41,16.63a0,0,0,0,0,0,0h0c3.69-17.75,4.49-29-7.45-33.47-8.53-3.2-25.63,10.66-32.34,23.83,2.88-21.28-.25-36.26-16.08-40.55-17.41-4.72-44.53,26.46-51.87,55.28H279.26C282.27,399.05,280.45,385.14,271.84,385.14Z"/>
        <path class="cls-4" d="M1169.75,813.09h0l-81.15-123.57L1007,638.72l42.06-67.65-56.21-27.33-52.14-79.4a46.2,46.2,0,0,1,23.38,6.8l254.18,155.57h0C1231,707.1,1197.06,774.09,1169.75,813.09Z"/>
      </g>
      <g id="Plant">
        <path class="cls-7" d="M1141.33,844.87s1.31-9.57-5.67-10c0,0,4.29-15-3.7-18.61-9.86-4.45-18.67,3-18.67,3s11.75-32.53-1.85-41.26c-18-11.56-39.56,23.63-39.56,23.63s-4.33-45.19-23.22-42.37c-14.3,2.14-23.85,46.79-23.85,46.79s-20.2-33.13-40.56-25c-14.53,5.78-8.39,62.3-8.39,62.3h8.56Z"/>
        <path class="cls-8" d="M989.68,843.31l-103.62-.12s-9.22-12.7-2.7-19.52a8.49,8.49,0,0,1,1.81-1.44c6.72-4,17.89,1.44,17.89,1.44s-6.34-24,2.39-30.53a5.11,5.11,0,0,1,.62-.41c8.93-5.21,28,13,28,13S939.85,773,954.22,773a11.13,11.13,0,0,1,1.44.09c16.61,2,9.33,40.4,9.33,40.4S980.84,802,990.24,805a8.15,8.15,0,0,1,3.33,2c8.14,8-4.76,24.72-5.39,25.52l0,0s6.93-1.08,8.66,3.46S989.68,843.31,989.68,843.31Z"/>
      </g>
      <g id="Persona">
        <path class="cls-2" d="M894.14,299.4a12.4,12.4,0,0,1-9.54,5.5A18.43,18.43,0,0,1,873.06,302c-7.67-4.86-10.67-13.88-6.7-20.16s13.42-7.44,21.09-2.58a19.91,19.91,0,0,1,3.57,2.88C896,287.15,897.42,294.21,894.14,299.4Z"/>
        <path class="cls-9" d="M894.14,299.4a12.4,12.4,0,0,1-9.54,5.5l-2.12-7.47c9.42-4.56,8.54-15.31,8.54-15.31C896,287.15,897.42,294.21,894.14,299.4Z"/>
        <path class="cls-2" d="M894.51,458.72a29.9,29.9,0,0,1-3.68,14.76,28.83,28.83,0,0,1-21.39,14.38,30.29,30.29,0,0,1-8.71-.07l-17.15-2.63L838.7,476l-34.47-64.77s21.93-27.94,26.54-55.07,41-50.23,41-50.23l21.78,26.68s-6.27,33.68-7.1,55.62a136.43,136.43,0,0,0,1.66,23.51c.7,5,1.55,10.08,2.4,15v0C892.5,438.66,894.51,450,894.51,458.72Z"/>
        <polygon class="cls-10" points="871.73 381.48 878.07 344.35 860.63 347.15 850.01 392.21 870.91 388.22 871.73 381.48"/>
        <path class="cls-11" d="M884.89,415.64l-2.77,3.46s-11,35.56-12.62,49c-1.44,11.86-.34,18.36-.06,19.74a30.29,30.29,0,0,1-8.71-.07l-17.15-2.63L838.7,476l5.79-31.61,43.59-32.65.43-.32Z"/>
        <path class="cls-2" d="M889.51,304.61s9.81,18.88,1.94,33.07c-11.2,20.21-28.86,25.25-28.86,25.25l15-48.39-1.12-15.25Z"/>
        <polygon class="cls-11" points="871.73 381.48 878.07 344.35 860.63 347.15 850.01 392.21 870.91 388.22 871.73 381.48"/>
        <path class="cls-12" d="M1029.25,259.59c-.63-1.56-3.47-2.48-3.47-2.48s1.56-2.26.6-3.82-3.84-2.63-3.84-2.63,1.55-4,.32-5-4.57-.66-4.57-.66-.61-3.77-2.79-4-7.88,5.71-9.42,6.09-4.42-2.09-6.7,1.59c-2.15,3.47-5.54,17.28-5.54,17.28v0c-6.78,8.4-43.53,43-48.28,50.71-13.62,9.83-65.92,61.54-65.92,61.54l16.66,24.57c13.26-10.72,37-37,59.06-62.7,4.57-5.3,9.06-10.57,13.36-15.67,19.13-22.66,34.76-42,37.57-45.43a12,12,0,0,0,1.58-.72,121.94,121.94,0,0,0,20.37-14.54S1029.88,261.15,1029.25,259.59Z"/>
        <path class="cls-12" d="M804,275.92s-2-45.68-3.83-60.38h0c.06-.11,6.29-12.76,6.87-16.79.62-4.28-3.18-4.24-4.11-5.52s-1.44-9.52-3.29-10.72-4.74,1.29-4.74,1.29-2.34-2.41-3.92-2.43-3,4-3,4-2.89-1-4.63-.45-2,3.31-2,3.31-2.77-1.12-4.26-.33-1.9,3.83-1.9,3.83A121.7,121.7,0,0,0,781.48,216h0l1.8,51.21.85,24.12,2.25,64.07,26.81-9.44Z"/>
        <path class="cls-13" d="M697.69,815.36s-2.93,13.15-5.85,14.78C675.84,819,651,798.07,651,798.07l.7-.68a8,8,0,0,1,7.42-2A67.58,67.58,0,0,1,671.73,800a99.52,99.52,0,0,1,14.14,8.32Z"/>
        <path class="cls-12" d="M707.28,793.54l-13.62-9.26-4.11,26.25-3.68-2.19A99.52,99.52,0,0,0,671.73,800c-1,2,0,4.34,4.4,7.53,18.37,13.22,21.56,7.81,21.56,7.81l-.29-.31Z"/>
        <path class="cls-13" d="M857.6,845.62l-43.06-1.37V831.38h11.69A103.07,103.07,0,0,1,842.56,834c4.43,1.12,8.88,2.69,12.06,4.89a6.72,6.72,0,0,1,2.8,4.88Z"/>
        <path class="cls-12" d="M842.56,834a103.07,103.07,0,0,0-16.33-2.58h0L829,792.72l-16.75,4.43,2.34,34.22h0a34.81,34.81,0,0,0,17.86,4.72C842.92,836,842.56,834,842.56,834Z"/>
        <path class="cls-14" d="M804.27,520.34a3.67,3.67,0,0,0-.72-.58l-28.09-17S723.32,681,686.74,789.6l21.9,11.23,1-2.05C717.25,783,766.94,679.13,791.93,611q2.6-7.07,4.81-13.57c3.64,64.47,9.15,210.27,9.15,210.27l26.28,1.1,5.46-114s2.93-25,5.89-68.21,4.69-94.87,4.69-94.87Z"/>
        <path class="cls-15" d="M807.89,526.85a.49.49,0,0,0-.63.32L802,543.23a5,5,0,0,1-6.13,3.23l-.07,0,5.51-21.39a.5.5,0,1,0-1-.25l-7,27.07a.5.5,0,0,0,.36.61l.12,0a.5.5,0,0,0,.49-.38l1.21-4.72h0a6,6,0,0,0,7.37-3.87l5.25-16.06A.49.49,0,0,0,807.89,526.85Z"/>
        <path class="cls-16" d="M796.91,573.54v22.57l-5,14.88c-25,68.14-74.68,172-82.3,187.79-.26-.31-.13-1.48.46-3.65h-6.53c.65-2.39,80.11-190.79,80.75-193.11,6.43-23.54,11.75-42.69,11.75-42.69l.7,11.73Z"/>
        <polygon class="cls-17" points="803.87 805.87 803.87 810.48 834.11 811.65 835 804.83 803.87 805.87"/>
        <path class="cls-18" d="M900.78,388.22l-10.41-21.94S870.26,381.64,863,385.56c0,0-20,.11-39.95-2.07l-8.79-41.21-29.37,12.51c.56,4.34,3.17,37.18,4.51,54.18-.09.15-.17.31-.25.46,0,0-5.83,13.43,1.11,38.35l-1.83,5.45L767.8,502.77C795.53,527.32,852.13,537,852.13,537L853.6,467c.38-1.86,7.68-27,25.19-43.79l27.07-24.32Z"/>
        <path class="cls-12" d="M865.57,353.37c7.38-10.44,13.22-33.7,13.22-33.7l-20.18-21.53-28,9.55s-3,12.28-4.81,19.73c-.74,3-1.52,6.22-2.24,9.41a38.76,38.76,0,0,0-.5,15.83,19.35,19.35,0,0,0,3.26,8.58,9.2,9.2,0,0,0,6.57,3.3c1.72.12,3.27.2,4.7.24l-6.82,19.33-3-.14s-10.78,12.54,1.67,15.92,24-.62,31.22-14.33l-4.06-.2Z"/>
        <path class="cls-19" d="M842,313.78l-.3.81a1.6,1.6,0,0,1-1.85,1.16,17.8,17.8,0,0,0-9.07-.87l-.4-.66S834,311.44,842,313.78Z"/>
        <path class="cls-2" d="M862,312.51s-22.83,4.17-35.46-2.32a15.12,15.12,0,0,1-4.88-5.39l41-7.38Z"/>
        <path class="cls-2" d="M821.66,304.8s8.82-14.56,18.93-18.5c12.1-4.71,19.41-4,30.33,6s-8.92,20.2-8.92,20.2Z"/>
        <path class="cls-2" d="M862.25,310.77s-2.81,11.29,8.54,19.33l.67,7.58,4.5.92,8.93-16.42-14-30.88Z"/>
        <path class="cls-19" d="M854.26,334.45a.49.49,0,0,1-.44-.26c-1.82-3.35-4.66-3.24-4.7-3.24a.5.5,0,0,1-.52-.48.49.49,0,0,1,.47-.52c.14,0,3.51-.15,5.63,3.76a.5.5,0,0,1-.2.68A.53.53,0,0,1,854.26,334.45Z"/>
        <path class="cls-19" d="M835.34,327a.49.49,0,0,1-.38-.18,7.45,7.45,0,0,0-4.38-2.33.5.5,0,1,1,.11-1,8.28,8.28,0,0,1,5,2.68.5.5,0,0,1-.06.7A.52.52,0,0,1,835.34,327Z"/>
        <path class="cls-19" d="M853.39,318.21,853,319a1.73,1.73,0,0,0,.73,2.29,27.27,27.27,0,0,1,8.91,7l.89-.09S862.51,323.35,853.39,318.21Z"/>
        <circle class="cls-20" cx="855.04" cy="343.62" r="5.02"/>
        <path class="cls-20" d="M828,333.7a5,5,0,0,1-4.46,3.13c.72-3.19,1.5-6.43,2.24-9.41A5,5,0,0,1,828,333.7Z"/>
        <path class="cls-21" d="M831.24,345.74c-1.42,3.09.2,9.44,7.23,10.4,4,.34,6.93-4.56,6.54-6.82a7.89,7.89,0,0,0-.47-1.71,4.18,4.18,0,0,0-1.77-2.4c-2.61-1.2-4.49.51-7,.33a13.43,13.43,0,0,1-1.93-.36C832.65,344.91,831.69,344.75,831.24,345.74Z"/>
        <path class="cls-9" d="M833.79,345.18c0,.2-.09,2.94,1.92,3.86,2.34,1.08,6.79.26,8.83-1.43a4.18,4.18,0,0,0-1.77-2.4c-2.61-1.2-4.49.51-7,.33A13.43,13.43,0,0,1,833.79,345.18Z"/>
        <path class="cls-12" d="M871.35,337s8.72.77,6.38,9.11-12.39,3.18-12.39,3.18Z"/>
        <path class="cls-21" d="M804.23,278.13h-3.89a.51.51,0,0,1-.5-.5.5.5,0,0,1,.5-.5h3.89a.5.5,0,0,1,.5.5A.51.51,0,0,1,804.23,278.13Z"/>
        <path class="cls-21" d="M947.53,319.41a.47.47,0,0,1-.37-.16l-2.34-2.59a.5.5,0,0,1,.74-.67l2.34,2.59a.49.49,0,0,1,0,.7A.46.46,0,0,1,947.53,319.41Z"/>
        <path class="cls-21" d="M802.93,200.12h-.08c-2.35-.38-10-1.8-10.14-4.1s7.07-3.07,10.18-3.29a.5.5,0,1,1,.07,1c-4.89.34-9.31,1.4-9.26,2.23.07,1,4.87,2.45,9.31,3.17a.5.5,0,0,1-.08,1Z"/>
        <path class="cls-21" d="M797.33,204.93a.51.51,0,0,1-.5-.49,51.41,51.41,0,0,1,.74-5.42.5.5,0,0,1,.58-.41.51.51,0,0,1,.41.58,52.32,52.32,0,0,0-.73,5.22.5.5,0,0,1-.49.52Z"/>
        <path class="cls-21" d="M799.43,193.78a1.68,1.68,0,0,1-.88-.25c-2.39-1.39-4-8.79-4.14-9.63a.51.51,0,0,1,.39-.59.5.5,0,0,1,.59.39c.45,2.16,2,8,3.66,9a.64.64,0,0,0,.56.08c1.86-.59.88-5.9.4-7.71a.48.48,0,0,1,.35-.61.5.5,0,0,1,.61.35c.22.81,2,7.93-1.06,8.93A1.59,1.59,0,0,1,799.43,193.78Z"/>
        <path class="cls-21" d="M793.55,194.92c-3.28,0-5.73-8.41-6-9.41a.5.5,0,0,1,1-.27c1,3.55,3.26,9,5.22,8.67a1.26,1.26,0,0,0,.81-.57c1.15-1.69.59-6.25.28-7.87a.48.48,0,0,1,.39-.58.5.5,0,0,1,.59.39c.05.26,1.18,6.25-.43,8.62a2.23,2.23,0,0,1-1.46,1A2.19,2.19,0,0,1,793.55,194.92Z"/>
        <path class="cls-21" d="M787,196.65a2.37,2.37,0,0,1-1-.21c-2.8-1.22-5-7.76-5.11-8a.52.52,0,0,1,.32-.64.51.51,0,0,1,.63.32c.6,1.78,2.57,6.58,4.56,7.44a1.21,1.21,0,0,0,1.05,0c2.3-1,1.17-6.19.54-8.09a.5.5,0,0,1,1-.31c.1.31,2.51,7.69-1.08,9.31A2.09,2.09,0,0,1,787,196.65Z"/>
        <path class="cls-21" d="M781.28,198.56c-2.52,0-5.46-4.92-5.81-5.53a.51.51,0,0,1,.18-.69.5.5,0,0,1,.68.18c1.11,1.91,3.85,5.62,5.31,5a2.12,2.12,0,0,0,1.29-1.28c.72-2-.95-5.16-1-5.2a.49.49,0,0,1,.2-.67.51.51,0,0,1,.68.2c.08.15,1.89,3.6,1,6A3.11,3.11,0,0,1,782,198.4,1.85,1.85,0,0,1,781.28,198.56Z"/>
        <path class="cls-21" d="M1008.18,255.88c-2.4,0-6-1.55-6.93-1.95a.49.49,0,0,1-.25-.66.5.5,0,0,1,.66-.25c3.14,1.4,7,2.4,7.6,1.59.52-.65-2.48-4.06-6.29-7.15a.49.49,0,0,1-.07-.7.49.49,0,0,1,.7-.08c2.42,2,7.9,6.74,6.44,8.55A2.28,2.28,0,0,1,1008.18,255.88Z"/>
        <path class="cls-21" d="M1003.79,261.05a.39.39,0,0,1-.18,0,.49.49,0,0,1-.29-.64c1.37-3.69.91-5.5.9-5.52a.5.5,0,0,1,.35-.61.49.49,0,0,1,.61.34c0,.08.58,2.09-.93,6.14A.49.49,0,0,1,1003.79,261.05Z"/>
        <path class="cls-21" d="M1008.93,251.41h-.18a1.61,1.61,0,0,1-1.22-.64c-2-2.6,3.62-7.38,4.27-7.91a.49.49,0,0,1,.7.06.51.51,0,0,1-.06.71c-1.44,1.2-5.29,5-4.11,6.54a.66.66,0,0,0,.5.25c1.91.14,6.55-3.72,8.15-5.23a.5.5,0,0,1,.71,0,.49.49,0,0,1,0,.7C1017.06,246.48,1011.74,251.41,1008.93,251.41Z"/>
        <path class="cls-21" d="M1013.44,255.81a2.29,2.29,0,0,1-1.69-.63,2.23,2.23,0,0,1-.62-1.65c0-2.86,4.42-7.11,4.61-7.29a.5.5,0,1,1,.69.72c-1.18,1.14-4.26,4.55-4.3,6.59a1.27,1.27,0,0,0,.34.93c1.37,1.41,6.41-1.75,9.26-4.08a.49.49,0,0,1,.7.07.5.5,0,0,1-.07.7C1021.68,251.73,1016.58,255.81,1013.44,255.81Z"/>
        <path class="cls-21" d="M1018,261a3.45,3.45,0,0,1-.66-.06,2.22,2.22,0,0,1-1.54-1.07c-2-3.39,4.22-8,4.48-8.24a.51.51,0,0,1,.7.11.5.5,0,0,1-.1.7c-1.61,1.19-5.49,4.75-4.21,6.93a1.23,1.23,0,0,0,.87.59c2.12.44,6.49-2.35,8-3.47a.5.5,0,0,1,.6.81C1025.9,257.5,1021.06,261,1018,261Z"/>
        <path class="cls-21" d="M1021.85,265.92a2.59,2.59,0,0,1-2.41-1.06,3.07,3.07,0,0,1-.42-2.56c.67-2.46,4.14-4.25,4.29-4.32a.5.5,0,0,1,.67.22.49.49,0,0,1-.22.67s-3.22,1.66-3.77,3.7a2.1,2.1,0,0,0,.3,1.77c.82,1.4,5.21-.06,7.21-1a.5.5,0,0,1,.42.9A17.66,17.66,0,0,1,1021.85,265.92Z"/>
        <path class="cls-20" d="M968.73,324.44c-4.3,5.1-8.79,10.37-13.36,15.66-2.16-2.34-.69-7.46,3.35-11.5C962,325.28,966.09,323.7,968.73,324.44Z"/>
        <path class="cls-20" d="M788.3,279.51c0,5.3-1.73,9.85-4.18,11.79l-.85-24.12C786.17,268.65,788.3,273.61,788.3,279.51Z"/>
        <path class="cls-22" d="M790.29,408.09A.5.5,0,0,1,790,408a.51.51,0,0,1,0-.71,84.91,84.91,0,0,1,17.74-15.19.5.5,0,1,1,.5.86,83.92,83.92,0,0,0-17.49,15A.51.51,0,0,1,790.29,408.09Z"/>
        <path class="cls-15" d="M849.9,541.12a.5.5,0,0,0-.5-.5h0c-12.52,0-42.67-9.11-43-9.2a.5.5,0,0,0-.62.33.51.51,0,0,0,.33.63c.73.22,11.16,3.37,22.21,5.93a.41.41,0,0,0,0,.22l.68,4.52a5,5,0,0,0,4.22,4.21L849,549.52h.07a.5.5,0,0,0,.07-1l-15.85-2.26a4,4,0,0,1-3.39-3.36l-.65-4.38c7.46,1.7,15.07,3.09,20.08,3.09A.52.52,0,0,0,849.9,541.12Z"/>
        <path class="cls-15" d="M799.63,529.93c-.18-.08-17.86-8.22-27.71-14.65a.5.5,0,1,0-.54.83c3.12,2,7,4.25,10.9,6.32l-1.16,1.42a4.81,4.81,0,0,1-5.69,1.34l-5.74-2.61a.5.5,0,0,0-.66.25.49.49,0,0,0,.25.66L775,526.1a5.9,5.9,0,0,0,2.39.51,5.82,5.82,0,0,0,4.49-2.12l1.29-1.58c8.13,4.29,15.91,7.87,16,7.93a.52.52,0,0,0,.21,0,.5.5,0,0,0,.21-1Z"/>
        <path class="cls-15" d="M796.91,573.55c-3.63,9.72-8.91,22.47-14.53,35.55h0c-12.51,29.11-26.64,59.82-27.75,62.23l.86,4.53h-4.07l4.67,4.67H750.5c-8.46,23.72-46.7,116.63-47.08,117.57l-.93-.38c.39-.94,39-94.71,47.19-117.86l.12-.33h3.88L749,674.87h5.27l-.69-3.65.06-.15c.23-.5,17.15-37.19,30.66-69,4.93-11.63,9.41-22.62,12.45-31Z"/>
        <polygon class="cls-17" points="686.3 784.73 684.32 788.89 711.1 802.98 714.84 797.21 686.3 784.73"/>
        <path class="cls-21" d="M839.17,340.42a.52.52,0,0,1-.27-.07l-2.79-1.78a2.82,2.82,0,0,1-.79-4l6.8-9.56a.5.5,0,1,1,.81.57l-6.79,9.57a1.81,1.81,0,0,0-.31,1.41,1.83,1.83,0,0,0,.81,1.18l2.8,1.78a.5.5,0,0,1,.15.69A.49.49,0,0,1,839.17,340.42Z"/>
        <path class="cls-21" d="M871.73,346.26a.49.49,0,0,1-.48-.36l-1-3.46h5.53a.5.5,0,0,1,.5.5.5.5,0,0,1-.5.5h-4.2l.63,2.19a.5.5,0,0,1-.34.62Z"/>
        <path class="cls-22" d="M801.25,450.45h0a33.56,33.56,0,0,1-11.15-2.21.51.51,0,0,1-.25-.66.5.5,0,0,1,.66-.26,32.76,32.76,0,0,0,10.78,2.13.5.5,0,0,1,0,1Z"/>
        <polygon class="cls-23" points="823.08 383.5 814.66 388.22 817.62 357.89 823.08 383.5"/>
        <path class="cls-20" d="M800.17,215.55a37.58,37.58,0,0,1-4.44,3.15c-1.76.94,5.18,4.31,5.18,4.31Z"/>
        <path class="cls-20" d="M1006.28,279a16.74,16.74,0,0,1-3.92-1.34v6.18Z"/>
        <polygon class="cls-20" points="813.52 816.46 826.98 820.61 827.63 811.4 813.14 810.84 813.52 816.46"/>
        <polygon class="cls-20" points="692.28 793.08 691.53 797.88 700.91 807.41 704.53 799.52 692.28 793.08"/>
        <path class="cls-22" d="M861.27,387.4a.51.51,0,0,1-.42-.22.5.5,0,0,1,.14-.69l8.23-5.43a.5.5,0,1,1,.55.83l-8.23,5.43A.45.45,0,0,1,861.27,387.4Z"/>
        <path class="cls-2" d="M889.51,304.61S882.5,292.3,864,287s6.14,10.46,6.14,10.46Z"/>
        <path class="cls-20" d="M837.61,364.78l-3.3,9.34s11,4.55,19.75-12.73C848.58,364,844.7,365,837.61,364.78Z"/>
      </g>
      <g id="Persona-2" data-name="Persona">
        <path class="cls-12" d="M404.77,443.67l-45.44,59.24-9.06-7.69a34.92,34.92,0,0,1-7.88-43.7,32.67,32.67,0,0,1,2.78-4.22l28.16-36.71Z"/>
        <path class="cls-20" d="M386.3,424.24A89.12,89.12,0,0,1,383,467l2.46,2,19.36-25.23Z"/>
        <path class="cls-20" d="M341.89,484.73a35,35,0,0,1,.5-33.21c3.81,3,6.39,9.33,6.31,16.64S345.83,481.89,341.89,484.73Z"/>
        <path class="cls-2" d="M425.3,843.1l.21,7.51a202.1,202.1,0,0,0,23.5,1.72c11,0,26.4-1.72,26.4-1.72v-6.35Z"/>
        <rect class="cls-12" x="432.6" y="807.01" width="32.9" height="19.96"/>
        <polygon class="cls-12" points="540.01 804.08 543.89 829.67 576.51 821.86 570.31 796.09 540.01 804.08"/>
        <polygon class="cls-24" points="527.94 494.08 527.9 502.94 577.58 803.75 527.69 809.39 476.94 547.69 472.42 504.58 527.94 494.08"/>
        <polygon class="cls-24" points="417.04 525.86 418.23 541.96 430.12 808.34 471.94 808.34 480.86 567.24 482.48 553.18 474.47 517.02 417.04 525.86"/>
        <path class="cls-25" d="M429.9,810.7l42-.2a3.93,3.93,0,0,0,3.87-3.35l1.43-9.39a163.87,163.87,0,0,0-23.27.24c-10.89,1-28,4.64-28,4.64v4A4,4,0,0,0,429.9,810.7Z"/>
        <path class="cls-25" d="M576.41,804.12,530,810.85a8.48,8.48,0,0,1-9.33-5.92l-1.62-5.34a229.86,229.86,0,0,1,24.42-4.29,288,288,0,0,1,34.81-1.89l2,5.42A4.67,4.67,0,0,1,576.41,804.12Z"/>
        <path class="cls-26" d="M432.56,823.38s9.1-4.57,16.45-4.57,16.45,4.57,16.45,4.57l2.3,11.85h-37.5Z"/>
        <path class="cls-26" d="M430.26,835.23s10.93-2.38,16.64-2.38,20.86,2.38,20.86,2.38,7.65,6.17,7.65,9c0,1.91-49.9,3.46-49.9,0C425.51,839.75,430.26,835.23,430.26,835.23Z"/>
        <path class="cls-26" d="M617.13,844.24H542.64c-.4-5.47-.12-18.47-.12-18.47l18.59-1.37v-4.8c-.17-3.17,2.61-4.13,5.31-5.06l6.72-2.3L587,826.74s14.73,5.28,23.29,6.48A12.26,12.26,0,0,1,617.13,844.24Z"/>
        <polyline class="cls-2" points="617.13 844.24 542.64 844.24 542.64 851.36 617.33 851.36"/>
        <path class="cls-27" d="M480.86,567.93s5.69-.55,10.42-8.21c0,0,2,13-8.3,17.2Z"/>
        <path class="cls-28" d="M537.88,796.59a.5.5,0,0,1-.48-.39l-50.28-225a.49.49,0,0,1,.38-.59.5.5,0,0,1,.6.37l50.27,225a.51.51,0,0,1-.38.6Z"/>
        <polygon class="cls-27" points="417.58 533.18 532.52 532.06 531.1 523.43 417.04 528.98 417.58 533.18"/>
        <path class="cls-12" d="M640.73,375.41a5.51,5.51,0,0,0-2-3.09,10.85,10.85,0,0,0-.22-5.11c-.8-2.74-3.92-3.82-3.92-3.82A6.13,6.13,0,0,0,633,358c-2.3-2.44-4.46-2.06-4.46-2.06s3.27-1.58.84-5.71a5.23,5.23,0,0,0-5.67-1.58l-7.82,6-1.76-2.83c-.25-2.35-1-5.91-1.49-8.26a8.8,8.8,0,0,0-3.42-5.37c-4-2.83-6.83.05-6.83.05a30.94,30.94,0,0,1-.11,10.38,66.18,66.18,0,0,1-3,13.05,5.41,5.41,0,0,0-.28.72,106.71,106.71,0,0,1-3.73,11.17l-28.27,41-26.54-37.75-43.46,14.37s26.81,34.54,34,43.86l17.12,18.78a28.79,28.79,0,0,0,5.9,4.75,30.73,30.73,0,0,0,4.1,2.15,27.57,27.57,0,0,0,16.36,1.81,35.09,35.09,0,0,0,17.11-9.09,50.68,50.68,0,0,0,4-4.17,52.13,52.13,0,0,0,7.35-11.3h0s17.14-36.41,21.95-47.14c0,0,12.77-9.85,13.84-10.93C638.73,379.83,641.24,377.49,640.73,375.41Z"/>
        <path class="cls-8" d="M535.5,526.78l-122,3.22-2.82-90.26L403.54,447c-5.42-2.65-38.27-36.09-38.27-36.09,6-9.28,29.7-36.81,40.74-40.62s40-7.55,40-7.55l49.63.37c14.2.08,27.38,1.06,36.17,4.17s32.8,31.28,32.8,31.28c-.38.86-17.88,18.6-37.93,30l-2,1.31Z"/>
        <path class="cls-29" d="M479.79,396.38l-5.48-5.59,2.36-4.4a1,1,0,1,0-1.76-.95l-2.07,3.85L469.66,386a1,1,0,0,0-1.43,1.4l3.62,3.7-3.43,6.4a1,1,0,0,0,1.76.95l3.14-5.85,5,5.14a1,1,0,1,0,1.43-1.4Z"/>
        <path class="cls-29" d="M441.24,363.07s1.81,25.18,31.34,23.95c23.68-.86,23.06-24,23.06-24l-4,0L446,362.69Z"/>
        <path class="cls-12" d="M477.34,266.73,457,263.25s-1.1,7.53-2.43,16.9c-1.77,12.3-3.95,27.77-4.59,33.44a27,27,0,0,0-.17,3.28l0,0,.09,1.65a1.93,1.93,0,0,1,0,.24l2.36,41.71-.35,0L446,362.69a22.26,22.26,0,0,0,2.31,7.42c.17.32.34.64.53,1,3.13,5.45,9.63,11.4,23,10.64,10.81-.73,15.66-6.81,17.82-11.71.16-.34.29-.67.41-1a21.6,21.6,0,0,0,1.31-6l-7.91-3.73L481.65,346l.42.09c10.18,2.7,11.71-3.86,12.84-6.26a7.74,7.74,0,0,0,.72-3.18l2.55-18.83,2.23-35.7.21-11.42Z"/>
        <path class="cls-20" d="M467.49,373.75a.52.52,0,0,1-.69-.19,2.88,2.88,0,0,0-2.16-1.65L449,371.26c-.16-.34-.29-.68-.43-1l16.17.66a3.89,3.89,0,0,1,3,2.17A.51.51,0,0,1,467.49,373.75Z"/>
        <path class="cls-20" d="M490.56,367.78l-15.36,2.1a3.86,3.86,0,0,0-2.78,2.44.53.53,0,0,0,.26.66l.15,0a.49.49,0,0,0,.51-.29,2.9,2.9,0,0,1,2-1.85l14.85-2Z"/>
        <polygon class="cls-29" points="410.99 442.59 525.26 437.59 531.13 487.81 412.29 491.87 410.99 442.59"/>
        <path class="cls-20" d="M591.53,453.47a34,34,0,0,1-17.24,9,27.51,27.51,0,0,1-16.36-1.92c2.67-4.57,8.57-8.33,15.92-9.75C580.69,449.47,587.29,450.68,591.53,453.47Z"/>
        <path class="cls-21" d="M561.05,425.71l-.15,0a.5.5,0,0,1-.33-.62A36.32,36.32,0,0,1,566.52,414a.5.5,0,0,1,.77.63,36,36,0,0,0-5.76,10.76A.51.51,0,0,1,561.05,425.71Z"/>
        <path class="cls-20" d="M456.45,331.1s5.5,22.38,26.37,23.2l-1.27-9Z"/>
        <path class="cls-19" d="M513.47,259s.38,18.56-14.59,21.8c-15.95,3.44-2.43-15.2-2.43-15.2Z"/>
        <path class="cls-20" d="M468.07,274.11s17.71,6.8,32.34,8l.06-3.21,0-7.13Z"/>
        <path class="cls-20" d="M452.75,313.34a4.62,4.62,0,0,1-2.83,4l-.13-1.74.07-1.16Z"/>
        <path class="cls-26" d="M513.7,258.15c-1.06,4.52-5,9.83-14.58,15.46-12.43,7.26-31.05.5-31.05.5l-7.69,7.7.38,19.34-8.2,3.72a90.47,90.47,0,0,1-10.64-9.25h0c-7.41-7.51-15.57-18.53-13.1-29a18.51,18.51,0,0,1,3.71-7.79c7.28-8.72,20.8-5.28,20.8-5.28s-.09-10.46,9.8-8.13,11.46,4.18,14.22,3.37c1.12-.32,3.61-2.52,7.19-4.8,5.3-3.36,9.35-6.09,18.33-4a13.72,13.72,0,0,1,9.6,8.26A17.11,17.11,0,0,1,513.7,258.15Z"/>
        <path class="cls-19" d="M447.83,293.86c-4.89-2.52-3.4-5.74-7.24-13.95-1.74-3.72-7.33-6.35-8.59-10.69-1-3.51,1.23-11.14,1.23-11.14a19.18,19.18,0,0,0-4.34,7.72c-2.75,10.36,5.1,21.59,12.3,29.31l.72.51s4.9.31,6.57-.26Z"/>
        <path class="cls-12" d="M447.83,293.86s-6.13.38-9.45,4.36-3.39,13.57,4,15.6,10.37-.48,10.37-.48l-.19-8.47Z"/>
        <path class="cls-19" d="M483.52,287.06c.31-1-4-3.83-6.4-2.7s-2.36,2.62-2.36,2.62-6.31,2-6.44,5.16c0,0-.31.48,1.67.23S483,288.55,483.52,287.06Z"/>
        <path class="cls-19" d="M475.92,300.93a.47.47,0,0,1-.3-.1.5.5,0,0,1-.1-.7c2.44-3.25,6.68-1.94,6.73-1.93a.5.5,0,0,1-.31,1c-.14-.05-3.61-1.1-5.62,1.57A.51.51,0,0,1,475.92,300.93Z"/>
        <path class="cls-21" d="M451.14,301.57c-1.22-.72-4.57-2.24-7.41.37a.5.5,0,0,0,0,.71.5.5,0,0,0,.7,0,4.75,4.75,0,0,1,5.24-.76l-.1,4.69a.49.49,0,0,0,.49.51h0a.5.5,0,0,0,.5-.49l.09-4.21c.22.13.36.23.39.25a.49.49,0,0,0,.59,0Z"/>
        <path class="cls-19" d="M457.83,245.58s-2.15,5.82,4.95,9.39a.35.35,0,0,1-.18.66,39.67,39.67,0,0,1-9.28-2S453.3,247.23,457.83,245.58Z"/>
        <path class="cls-22" d="M504.74,240.61c-.77,2.81-3.79,4.35-9.88,5A20,20,0,0,1,484.53,244C490.17,240.45,494.9,237.41,504.74,240.61Z"/>
        <path class="cls-21" d="M492.09,313.79h-.19l-7-.75a.5.5,0,0,1-.44-.55A.49.49,0,0,1,485,312l7,.76a2.22,2.22,0,0,0,1.75-.46c.45-.48.57-1.55.39-3.45l-2.05-27.29a.5.5,0,0,1,1-.08l2.05,27.28c.21,2.27,0,3.49-.66,4.22A3.11,3.11,0,0,1,492.09,313.79Z"/>
        <path class="cls-19" d="M497.32,284.25s-.09,3.6.4,4.5a19,19,0,0,0,2.18,2.61l.9-2.21a2.68,2.68,0,0,0,.07-1.91A4.15,4.15,0,0,0,497.32,284.25Z"/>
        <path class="cls-21" d="M487.68,320.65c0,3.63-4.42,9.08-11.69,6.88-4.75-1.82-4.7-7.55-3.32-9.57a9.51,9.51,0,0,1,1.23-1.46,4.52,4.52,0,0,1,2.8-1.54c3.07,0,4.14,2.51,6.72,3.48a13.71,13.71,0,0,0,2,.51C486.68,319.2,487.68,319.48,487.68,320.65Z"/>
        <path class="cls-9" d="M485.45,319c-.12.19-1.23,2.9-3.6,2.9-2.75,0-6.72-2.78-8-5.35a4.52,4.52,0,0,1,2.8-1.54c3.07,0,4.14,2.51,6.72,3.48A13.71,13.71,0,0,0,485.45,319Z"/>
        <path class="cls-19" d="M498.85,299.44a.36.36,0,0,1-.31-.16,2.62,2.62,0,0,0-2.74-.8.37.37,0,0,1-.46-.26.36.36,0,0,1,.25-.46,3.35,3.35,0,0,1,3.56,1.09.38.38,0,0,1-.09.53A.42.42,0,0,1,498.85,299.44Z"/>
        <path class="cls-12" d="M430.6,528.16c-1.65,7.62-19.55,15.46-23.83,14.87-.33,0-.68-.11-1-.19-5.58-1.26-12.93-6.4-13-7.78a6.54,6.54,0,0,1,3.78-6.49l.32-.13-37.53-25.53,20-39.48,47.46,45.92S433.47,514.91,430.6,528.16Z"/>
        <path class="cls-20" d="M405.74,542.84c-5.58-1.26-12.93-6.4-13-7.78a6.54,6.54,0,0,1,3.78-6.49l2.91,2.44C407.17,537,405.9,542.27,405.74,542.84Z"/>
        <path class="cls-21" d="M385.84,469.8a.45.45,0,0,1-.34-.14l-9.41-9a.5.5,0,0,1,.69-.72l9.41,9a.5.5,0,0,1-.35.86Z"/>
        <path class="cls-21" d="M400.14,533.82h-.09a.5.5,0,0,1-.4-.58c.29-1.61-2.12-3.71-3.08-4.38a.51.51,0,0,1-.12-.7.5.5,0,0,1,.7-.12c.16.11,4,2.81,3.49,5.38A.51.51,0,0,1,400.14,533.82Z"/>
        <polygon class="cls-19" points="401.78 485.17 377.29 515.13 386.34 521.28 408.94 492.1 401.78 485.17"/>
        <ellipse class="cls-30" cx="399.6" cy="495.38" rx="6.68" ry="7.68" transform="translate(-212.22 670.75) rotate(-67.1)"/>
        <ellipse class="cls-31" cx="399.98" cy="494.48" rx="5.71" ry="7.68" transform="matrix(0.39, -0.92, 0.92, 0.39, -211.16, 670.55)"/>
        <ellipse class="cls-32" cx="399.98" cy="494.48" rx="4.54" ry="6.1" transform="translate(-211.16 670.55) rotate(-67.1)"/>
        <path class="cls-33" d="M405.6,496.85c-.55,1.28-2.14-2-5.24-3.27s-6-1.44-5.9-1.7c.85-1.91,4-3.85,7.79-2.06S406.6,494.56,405.6,496.85Z"/>
        <path class="cls-34" d="M398.61,491.21c-.46.11-1.24.58-1.6.08s.39-1.42,1.21-1.63,1.88.44,1.69,1S399.05,491.1,398.61,491.21Z"/>
        <path class="cls-29" d="M406,445.91a1,1,0,0,1-.71-.29l-38.16-37.71a1,1,0,1,1,1.4-1.42l38.17,37.71a1,1,0,0,1,0,1.41A1,1,0,0,1,406,445.91Z"/>
        <path class="cls-29" d="M525.49,427.81a1,1,0,0,1-.59-1.81c.29-.21,28.73-21.11,37.08-30.34a1,1,0,1,1,1.48,1.34c-8.48,9.38-36.2,29.75-37.38,30.61A1,1,0,0,1,525.49,427.81Z"/>
        <path class="cls-20" d="M626.74,380.39c-2.44,1.55-7.07-1.36-10.34-6.51s-3.95-10.57-1.51-12.12c1.36-.86,3.4-.34,5.5,1.18a3.56,3.56,0,0,0-.12.85h0A4.18,4.18,0,0,0,623.6,368a5,5,0,0,0,.78.09,3.41,3.41,0,0,0,.71-.06l.14.22,0,.05a5.86,5.86,0,0,0-.44.42,4,4,0,0,0-.57,4.67,5.36,5.36,0,0,0,.26.54,4.57,4.57,0,0,0,3.63,2.33h0C628.31,378.19,627.84,379.69,626.74,380.39Z"/>
        <path class="cls-21" d="M631.11,381.51a3.15,3.15,0,0,1-1.14-6.09l7.61-3a.38.38,0,0,1,.49.22.38.38,0,0,1-.22.48l-7.61,3a2.4,2.4,0,0,0,1.32,4.6l6.06-1.16a.38.38,0,0,1,.14.74l-6.06,1.15A3,3,0,0,1,631.11,381.51Z"/>
        <path class="cls-21" d="M628.44,376.67h-.28a5,5,0,0,1-4-2.52c-.09-.16-.17-.33-.25-.5a4.34,4.34,0,0,1,.61-5.16L625,368a3.29,3.29,0,0,1,.67-.43l8.72-4.55a.38.38,0,0,1,.51.16.38.38,0,0,1-.16.5L626,368.27a2.85,2.85,0,0,0-.55.35c-.13.12-.26.24-.39.38a3.55,3.55,0,0,0-.52,4.23l0,.1a2.86,2.86,0,0,0,.21.43,4.19,4.19,0,0,0,3.33,2.15,3.18,3.18,0,0,0,1.09-.11l.06,0,5.8-2.35a.39.39,0,0,1,.49.21.37.37,0,0,1-.21.49l-5.88,2.38A3.52,3.52,0,0,1,628.44,376.67Z"/>
        <path class="cls-21" d="M624.38,368.49a5.5,5.5,0,0,1-.85-.1,4.59,4.59,0,0,1-2.61-1.58,4.66,4.66,0,0,1-1-3,3.63,3.63,0,0,1,.13-1,4.49,4.49,0,0,1,1.73-2.61l4.32-3.4a.38.38,0,0,1,.53.06.37.37,0,0,1-.07.53l-4.33,3.41a3.82,3.82,0,0,0-1.45,2.19,3.07,3.07,0,0,0-.11.79,3.86,3.86,0,0,0,.85,2.53,3.81,3.81,0,0,0,2.18,1.31,4.3,4.3,0,0,0,.72.09,2.82,2.82,0,0,0,.62-.06,3.53,3.53,0,0,0,1.18-.37l4.28-2.21a.39.39,0,0,1,.51.16.37.37,0,0,1-.17.5L626.54,368a4,4,0,0,1-1.4.45A3.36,3.36,0,0,1,624.38,368.49Z"/>
        <path class="cls-21" d="M617.67,361.72a3.95,3.95,0,0,1-2.69-6.85l7.47-5.74a.39.39,0,0,1,.53.07.37.37,0,0,1-.07.53l-7.45,5.72a3.2,3.2,0,0,0,3.5,5.25l5.1-2.27a.38.38,0,0,1,.31.69l-5.11,2.27A4,4,0,0,1,617.67,361.72Z"/>
        <polygon class="cls-20" points="595.9 372.03 597.16 377.58 592.51 377.58 595.9 372.03"/>
        <polygon class="cls-20" points="465.5 812.89 432.6 815.65 432.6 810.68 465.5 810.53 465.5 812.89"/>
        <polygon class="cls-20" points="572.84 806.6 541.73 815.43 540.8 809.29 572.38 804.71 572.84 806.6"/>
        <path class="cls-20" d="M562.2,407.59s-28.7,19-19.47,40.19l-16.05-19.24,32.81-24.81Z"/>
      </g>
      <g id="Android">
        <path d="M200.66,591.89a3,3,0,0,1-1.6-.46,3,3,0,0,1-.93-4.14l3.93-6.21a3,3,0,0,1,5.07,3.21l-3.93,6.21A3,3,0,0,1,200.66,591.89Z"/>
        <path d="M204.1,599.63a3,3,0,0,1-2.54-4.6l3.93-6.21a3,3,0,0,1,5.07,3.21l-3.93,6.2A3,3,0,0,1,204.1,599.63Z"/>
        <path d="M206.06,606.91a3,3,0,0,1-2-.8,3,3,0,0,1-.15-4.24l5.14-5.51a3,3,0,0,1,4.39,4.1l-5.14,5.5A3,3,0,0,1,206.06,606.91Z"/>
        <ellipse class="cls-5" cx="171.09" cy="846.09" rx="170.38" ry="7.46"/>
        <circle class="cls-19" cx="182" cy="638.84" r="8.06"/>
        <rect class="cls-19" x="178.11" y="640.74" width="6" height="53.84" transform="translate(-87.34 30.08) rotate(-7.66)"/>
        <rect class="cls-19" x="189.98" y="642.43" width="2" height="43.97" transform="translate(-131.94 53.15) rotate(-11.81)"/>
        <circle class="cls-26" cx="255.16" cy="818.29" r="27.8"/>
        <path class="cls-35" d="M287.63,692.34l2.85,70.29H53.8V692.18a25.11,25.11,0,0,1,25.11-25.11,898.36,898.36,0,0,1,93.23-4.69c25.55,0,48.2,1.09,64.77,2.23,17.69,1.21,25.61,2.62,25.61,2.62a25.11,25.11,0,0,1,25.11,25.11Z"/>
        <path class="cls-36" d="M287.63,692.34l2.85,70.22L198.9,746.94l-3.42-77.43,41.43-4.9c17.69,1.21,25.61,2.62,25.61,2.62a25.11,25.11,0,0,1,25.11,25.11Z"/>
        <polygon class="cls-26" points="283.06 824.17 59.22 824.17 53.8 762.63 290.47 762.63 283.06 824.17"/>
        <path class="cls-19" d="M289.29,733.36H221.87A19.36,19.36,0,0,1,202.51,714h0a19.36,19.36,0,0,1,19.36-19.36h65.85Z"/>
        <circle class="cls-2" cx="87.02" cy="824.53" r="27.8"/>
        <circle class="cls-2" cx="171.09" cy="824.53" r="27.8"/>
        <circle class="cls-26" cx="168.59" cy="824.53" r="21.33"/>
        <circle class="cls-26" cx="84.71" cy="824.53" r="21.33"/>
        <polygon class="cls-2" points="53.8 762.63 290.47 762.63 289.85 746.94 53.8 746.94 53.8 762.63"/>
        <path class="cls-10" d="M218.22,762.63h71.47a3.12,3.12,0,0,0,3-3.84l-2.89-11.85H198.9l5.89,8.6A16.26,16.26,0,0,0,218.22,762.63Z"/>
        <path class="cls-26" d="M97.72,746.76s-4.39-34.25-43.92-34.25v34.25Z"/>
        <path class="cls-10" d="M249.56,717.54a1,1,0,0,1-1-.82c0-.11-2.06-10.88-7.92-10.88s-7.19,10.71-7.21,10.82a1,1,0,1,1-2-.24c.06-.52,1.62-12.58,9.19-12.58s9.8,12,9.89,12.52a1,1,0,0,1-.8,1.16Z"/>
        <path class="cls-10" d="M280.92,717.54a1,1,0,0,1-1-.82c0-.11-2.07-10.88-7.92-10.88s-7.2,10.71-7.21,10.82a1,1,0,1,1-2-.24c.06-.52,1.62-12.58,9.19-12.58s9.8,12,9.89,12.52a1,1,0,0,1-.8,1.16Z"/>
        <path class="cls-19" d="M198.9,824.53l9.81-55.5a7.46,7.46,0,0,1,7.4-6.4h74.36l-7.41,61.54Z"/>
        <path class="cls-36" d="M273.32,669.67l-205.21-.16a24.87,24.87,0,0,1,10.8-2.44,898.36,898.36,0,0,1,93.23-4.69,898.36,898.36,0,0,1,93.23,4.69A28.57,28.57,0,0,1,273.32,669.67Z"/>
        <circle class="cls-19" cx="119.5" cy="710.42" r="15.78"/>
        <rect class="cls-19" x="81.94" y="670.86" width="59.52" height="6" transform="translate(-564.91 767.53) rotate(-88.47)"/>
        <circle class="cls-19" cx="116.35" cy="643.24" r="8.06"/>
        <rect class="cls-19" x="110.61" y="614.93" width="81.83" height="6" transform="matrix(0.86, -0.51, 0.51, 0.86, -294.56, 164.27)"/>
        <path class="cls-19" d="M182.7,599.46l.44,1.09a9.62,9.62,0,0,0,11.18,5.74L208,602.37l-10.72-20.5-10.26,5.54A9.6,9.6,0,0,0,182.7,599.46Z"/>
        <path class="cls-19" d="M186.69,598.88a4,4,0,0,1-3.89-3.09l-4.69-20A4,4,0,1,1,185.9,574l4.68,20a4,4,0,0,1-3,4.81A4.2,4.2,0,0,1,186.69,598.88Z"/>
        <path class="cls-19" d="M197.75,587.9a3,3,0,0,1-1.24-5.74l6.7-3a3,3,0,0,1,2.47,5.47l-6.69,3A3.08,3.08,0,0,1,197.75,587.9Z"/>
        <path class="cls-19" d="M200.67,595.55a3,3,0,0,1-1.15-5.77l7.55-3.12a3,3,0,0,1,2.29,5.55l-7.55,3.12A3,3,0,0,1,200.67,595.55Z"/>
        <path class="cls-19" d="M205.22,603.09a3,3,0,0,1-.84-5.88l6-1.73a3,3,0,1,1,1.67,5.76l-6,1.73A3,3,0,0,1,205.22,603.09Z"/>
        <rect class="cls-19" x="121.25" y="646.02" width="2" height="51.39" transform="translate(-20.75 4.11) rotate(-1.77)"/>
        <rect class="cls-19" x="115.93" y="621.65" width="77.87" height="2" transform="translate(-330.45 202.95) rotate(-35.18)"/>
        <rect class="cls-19" x="174.34" y="610.48" width="81.83" height="6" transform="matrix(0.86, -0.51, 0.51, 0.86, -283.33, 196.22)"/>
        <path class="cls-19" d="M245.47,593.25l.3,1.14a9.61,9.61,0,0,0,10.39,7.06l14.09-2.21-8.13-21.66-10.86,4.24A9.6,9.6,0,0,0,245.47,593.25Z"/>
        <path class="cls-19" d="M250,593.19a4,4,0,0,1-4-3.57l-2.21-20.38a4,4,0,0,1,7.95-.87L254,588.76a4,4,0,0,1-3.54,4.41Z"/>
        <path class="cls-19" d="M262.18,583.64a3,3,0,0,1-.89-5.87l7-2.18a3,3,0,0,1,1.78,5.73l-7,2.18A2.82,2.82,0,0,1,262.18,583.64Z"/>
        <path class="cls-19" d="M264.14,591.6a3,3,0,0,1-.79-5.9l7.87-2.17a3,3,0,0,1,1.6,5.79l-7.88,2.17A3.15,3.15,0,0,1,264.14,591.6Z"/>
        <path class="cls-19" d="M267.73,599.63a3,3,0,0,1-.47-6l6.16-1a3,3,0,0,1,.94,5.93l-6.15,1A2.59,2.59,0,0,1,267.73,599.63Z"/>
        <rect class="cls-19" x="179.66" y="617.21" width="77.86" height="2" transform="translate(-316.25 238.86) rotate(-35.18)"/>
        <g>
          <path class="cls-19" d="M73.78,770.9H106a1.5,1.5,0,0,0,0-3H73.78a1.5,1.5,0,1,0,0,3Z"/>
          <path class="cls-19" d="M106,773.57H73.78a1.5,1.5,0,1,0,0,3H106a1.5,1.5,0,0,0,0-3Z"/>
          <path class="cls-19" d="M106,779.25H73.78a1.5,1.5,0,1,0,0,3H106a1.5,1.5,0,0,0,0-3Z"/>
        </g>
        <path class="cls-10" d="M257.59,726.2a201.26,201.26,0,0,1-30.81-2.27,1,1,0,0,1-.82-1.15,1,1,0,0,1,1.16-.82c.29,0,29.59,5,58.65,0a1,1,0,1,1,.34,2A169.55,169.55,0,0,1,257.59,726.2Z"/>
        <path class="cls-26" d="M263.72,586.72a3,3,0,0,1-2.15-5.09l5.12-5.27a3,3,0,0,1,4.31,4.18l-5.12,5.27A3,3,0,0,1,263.72,586.72Z"/>
        <path class="cls-26" d="M266.64,595.07a3,3,0,0,1-2.15-5.09l5.12-5.27a3,3,0,0,1,4.3,4.18l-5.12,5.27A3,3,0,0,1,266.64,595.07Z"/>
        <path class="cls-26" d="M268.25,604a3,3,0,0,1-2.15-5.09l5.12-5.27a3,3,0,0,1,4.3,4.18l-5.12,5.28A3,3,0,0,1,268.25,604Z"/>
      </g>
    </g>
  </g>
</svg>
